<?xml version="1.0" encoding="utf-8"?>
<!-- Generator: Adobe Illustrator 19.2.0, SVG Export Plug-In . SVG Version: 6.00 Build 0)  -->
<svg version="1.1" id="Layer_1" xmlns="http://www.w3.org/2000/svg" xmlns:xlink="http://www.w3.org/1999/xlink" x="0px" y="0px"
	 viewBox="0 0 1000 1000" style="enable-background:new 0 0 1000 1000;" xml:space="preserve">
<style type="text/css">
	.st0{fill:#CC8EB9;}
	.st1{fill:#F9EDBC;}
	.st2{fill:none;}
	.st3{fill:#F9E389;}
	.st4{fill:#FCD947;}
	.st5{fill:#FFCD05;}
	.st6{fill:#666666;}
</style>
<g>
	<g>
		<path class="st0" d="M474.3,428.3C474.2,428.3,474.2,428.4,474.3,428.3C474.2,428.4,474.2,428.4,474.3,428.3L474.3,428.3z"/>
		<path class="st1" d="M540.3,398.8c-3.3-1.8-12.1-4.4-12.6-4.6L540.3,398.8z"/>
		<path class="st2" d="M502,390.3c-11.2,0.1-19.3,1.9-23.4,3.6c-0.3,0.1-0.3,0.5,0,0.6c4.2,1.7,12.6,3.6,24.2,3.6
			c12.3,0,21-2.1,24.9-3.9c-0.6-0.3-1.4-0.6-2.3-0.9C518.2,391.4,510.2,390.3,502,390.3z"/>
		<g>
			<path class="st1" d="M539.9,398.9l-12.1-4.4c-0.1,0-0.2,0-0.2,0c-4,1.8-12.6,3.9-24.8,3.9c-12.2,0-20.9-2.1-24.9-3.9
				c-0.1,0-0.1-0.1-0.1-0.1c-0.6-0.8-4.6-7.4,10.2-14.2c0.4-0.2,0.2-0.7-0.2-0.6c-12.9,1.9-23.9,6.4-23.9,15c0,11.8,20.9,16,38.9,16
				c15.1,0,32.3-3,37.4-11C540.2,399.2,540.1,399,539.9,398.9z"/>
			<path class="st1" d="M540.9,385.1l0.3-142.4l0.2-92.3c0-0.1,0-0.2,0-0.3l0.1-45.6c0-3.3-2.7-5.5-6-5.5h-0.1c-3.3,0-6,2.5-6,5.8
				l-0.1,39.2c0,0,0,0,0,0l-0.2,99l-0.4,138.8c0,0,0,0,0,0.1c0,1.9-0.1,9.8-0.9,12.3c-0.1,0.2,0,0.3,0.2,0.4
				c0.2,0.1,0.4,0.1,0.7,0.2c0,0.1,1.9,0.7,4.2,1.4c2.6,0.9,5.4,1.9,7.2,2.8c0.2,0.1,0.3,0,0.4-0.1c0.1-0.1,0.3-0.3,0.3-0.5
				c0,0,0.2,0,0.2,0v-0.1C542,394.8,541.2,386.5,540.9,385.1z"/>
		</g>
		<path class="st3" d="M477.6,394c0.1,0.1,0.2,0.2,0.4,0.1c4-1.7,12.3-3.7,23.9-3.8c8.3,0,16.2,1.1,23.5,3c0.9,0.3,1.6,0.6,2.3,0.9
			c1-2,1-11.1,1-12.8c0-0.2-0.1-0.3-0.3-0.3c-3.7-0.8-7.6-1.5-11.6-2c-4.6-0.6-9.5-0.9-14.1-0.9c-0.4,0-0.7,0-1.1,0
			c-0.1,0-0.2,0-0.2,0v0c-3.7,0-7.6,0.3-11.3,0.7c0,0-2.3,0.3-2.4,0.3C471.3,386.1,476.8,392.6,477.6,394z"/>
		<path class="st2" d="M542.9,450.6c0.1,0,0.2,0,0.3,0c1.6-0.6,3-1.3,4.3-1.9c-5.2-2.5-21-3.7-37.1-4.4
			C526.4,445,537.7,448,542.9,450.6z"/>
		<path class="st2" d="M502.7,523.7c-29.5,0-49.7,5.2-58.2,9.4c-0.2,0.1-0.2,0.5,0,0.6c8.5,4.2,28.7,9.4,58.2,9.4
			c29,0,49-5,57.7-9.2c0.3-0.1,0.2-0.5,0-0.6c-12.2-4.3-25.1-7.2-38.3-8.7C516.2,524,509.7,523.7,502.7,523.7z"/>
		<path class="st2" d="M508.8,444.2c-2-0.1-3.9-0.1-6-0.1c-19.7,0-33.4,3.4-39.6,6.3c-0.3,0.1-0.3,0.5,0,0.6
			c6.2,2.9,20,6.3,39.6,6.3c19.7,0,33.4-3.4,39.6-6.3c0.3-0.1,0.3-0.5,0-0.6c-5.4-2.5-16.4-5.4-32.1-6.1
			C509.8,444.2,509.3,444.2,508.8,444.2z"/>
		<path class="st4" d="M537.2,429.6c-9.9-2.4-21.4-3.6-32.4-3.7c-0.1,0-0.3,0-0.4,0v0c-0.5,0-1.1,0-1.6,0c-9.5,0-19.4,0.8-28.5,2.4
			c0,0-2.6,0.5-2.6,0.5c-22.7,10.4-10.7,20.2-9.3,21.6c0.1,0.1,0.2,0.1,0.4,0.1c6-2.9,19.9-6.5,40.1-6.5c2.1,0,4.1,0.1,6,0.1
			c0.5,0,1,0,1.5,0c16,0.7,31.6,1.9,37,4.4c0.1,0,0.2,0,0.3,0c6.3-3.3,10.1-7.4,13.2-12.9c0.1-0.2,0-0.4-0.2-0.5
			C553.2,433,545.4,431.1,537.2,429.6z"/>
		<path class="st5" d="M607.9,529.7c-6.2,5.4-12.4,10.2-19.7,15.6c-0.2,0.1-0.2,0.4,0,0.6c67.6,37.8,108,118.7,83.6,205.3
			c-16.3,58-62,103.7-120.2,119.3c-74,19.9-147-6-190.6-63.6c-4.2-5.6-12.4-6.5-17.7-1.7c-4.8,4.3-5,11.7-1.1,16.9
			c37.4,49,93.6,77.7,155,79.1c111.4,2.6,204.6-87.3,205.8-198.7c0.8-72.8-37.3-136.9-94.8-172.9C608.2,529.6,608,529.6,607.9,529.7
			z"/>
		<path class="st3" d="M540.9,385.2c0.3,2.2,1.4,10.5-0.3,13.3c-0.1,0.2-0.1,0.4,0.1,0.5c13.7,6.8,22.6,16.9,22.6,27.4
			c0,3.1-0.8,6.1-2.3,9c-3.1,5.7-7,9.9-13.5,13.3c-1.4,0.7-2.8,1.4-4.4,2c-5.9,2.9-19.9,6.6-40.3,6.6c-20.3,0-34.3-3.7-40.2-6.6
			c0,0,0,0-0.1,0c-0.6-0.6-11.2-10.7,9.4-21.1c0.3-0.2,0.2-0.7-0.2-0.6c-16.6,3.5-29.6,10.3-29.6,21.8c0,18,31.7,24.5,59.4,24.7v0
			c0.1,0,0.1,0,0.2,0c0.4,0,0.7,0,1.1,0c32.4,0.5,52.2-10.6,63.4-19.1c1.7-1.4,8.5-9.9,9.9-15.4c1.5-4.5,2.2-9.4,2.2-14.6
			c0-18.3-14.7-33.3-37-41.5C541.1,384.8,540.8,385,540.9,385.2z"/>
		<path class="st4" d="M576.4,441.3c-0.2-0.1-0.4,0-0.4,0.2c-1.5,5.2-7.4,12.7-9.5,14.7c-0.2,0.2-0.1,0.4,0.1,0.5
			c21.2,9.6,34.9,23.6,34.9,38.5c0,8.6-4.6,16.7-12.5,23.9c0,0,0,0-0.1,0.1c0,0-20.8,11-27.8,14.6c-8.3,4.3-28.6,9.5-58.4,9.5
			c-30.2,0-50.5-5.4-58.7-9.7c0,0-0.3-0.3-0.5-0.6c-2-2.6-8.6-14.8,25.1-30.2c0.4-0.2,0.2-0.7-0.2-0.6
			c-27.5,4.3-51.2,14.1-51.5,31.3c0,0.2,0.2,0.6,0.3,0.6h0c-0.2,0-0.3,0-0.3,0.2c0.4,24.7,46.4,33.4,85.8,33.4
			c29.2,0,69.8-9.2,85.1-21.7c7.5-5.6,13.9-10.5,20.3-16.1c0,0,0,0,0,0c9.3-10.1,14.6-21.9,14.6-34.4
			C622.7,472,604.6,453.4,576.4,441.3z"/>
		<path class="st5" d="M588.4,518.9c-12.7-6.2-46.6-16.7-64.2-18.2c-7.2-0.8-14.6-1.2-22-1.2c-10.2,0.1-20.9,0.9-31.1,2.4
			c-0.1,0-2.5,0.3-2.6,0.4l-0.1,0.1c-35.7,16.1-26.4,29-24.7,31c0.1,0.2,0.1,0.1,0.3,0.3c0,0,1-0.6,1.3-0.7c8.9-4.1,28.8-9,57.4-9
			c7,0,13.4,0.3,19.3,0.8c13.5,1.5,26.5,4.6,39,9c0.1,0,0.2,0,0.3,0l27.1-14.2C588.6,519.4,588.6,519,588.4,518.9z"/>
	</g>
	<path class="st6" d="M314.7,673.5c-5.7-0.1-11.2-2.2-16.4-6.4c-0.8-0.7-1.4-1.7-1.5-2.8c-0.1-1.1,0.2-2.3,0.9-3.1
		c0.8-1.1,2-1.6,3.3-1.6c1,0,2,0.4,2.7,1c2.6,2.2,6.8,4.3,10.7,4.3l0.3,0c2.3,0,4.9-0.7,6.8-1.9c1.4-1.2,2.1-2.3,2.1-3.5
		c0-0.6-0.1-1-0.4-1.4c-0.1-0.3-0.6-0.8-1.5-1.3c-1.4-1-4.4-2.1-7.8-2.7c-3.4-0.6-6-1.4-8.1-2.4c-2.7-1.3-4.7-3-6.2-5.2
		c-1-1.6-1.5-3.5-1.5-5.5c0-3.7,1.9-7.3,5.3-9.8c3.2-2.2,7.1-3.3,11.2-3.3c6.4,0,11,3.2,13.7,5.1c1.9,1.3,2.5,4,1.3,6
		c-0.8,1.1-2.1,1.8-3.5,1.8c-0.9,0-1.7-0.3-2.4-0.8c-2.9-1.9-5.8-3.6-9.1-3.6c-2.3,0-4.6,0.7-6.1,1.9c-1.6,1.1-1.8,2.3-1.8,2.8
		c0,0.5,0,0.7,0.3,1.2c0.1,0.2,0.4,0.7,1.3,1.2c1.3,0.9,3.8,1.8,6.9,2.3l0.1,0.1l0.4,0.1c3.3,0.6,6.1,1.5,8.6,2.7
		c2,0.9,4.7,2.5,6.4,5.3c1.1,1.8,1.7,3.9,1.7,5.8c0,4-2.1,7.8-5.6,10.4C323.1,672.2,319,673.5,314.7,673.5z"/>
	<path class="st6" d="M314.7,671.7c-5.3-0.1-10.4-2.1-15.3-6c-0.5-0.4-0.8-1-0.8-1.6c-0.1-0.7,0.1-1.3,0.5-1.8c0.5-0.7,1.2-1,2-1
		c0.6,0,1.1,0.2,1.5,0.6c2.6,2.2,7.3,4.8,11.8,4.8c0,0,0.3,0,0.3,0c2.6,0,5.5-0.8,7.7-2.2l0.2-0.1l0.1-0.1c1.7-1.5,2.6-3.1,2.6-4.7
		c0-1-0.3-1.6-0.6-2.1c-0.4-0.7-1-1.4-2.1-2.1c-1.6-1.1-4.8-2.3-8.4-3l-0.2,0h-0.1c-3.1-0.6-5.5-1.3-7.4-2.2
		c-2.4-1.2-4.2-2.7-5.5-4.6c-0.7-1.2-1.2-2.9-1.2-4.6c0-3.1,1.7-6.2,4.6-8.4c2.8-1.9,6.3-3,10.1-3c5.8,0,10,2.9,12.8,4.8
		c1.2,0.8,1.5,2.4,0.8,3.6c-0.4,0.6-1.2,1-2,1c-0.5,0-1-0.2-1.4-0.5c-3.2-2.1-6.3-3.9-10.1-3.9c-2.7,0-5.4,0.8-7.2,2.2
		c-2.2,1.5-2.5,3.4-2.5,4.2c0,0.6,0,1.2,0.5,2c0.3,0.5,0.9,1.2,2,1.9c1.3,0.9,3.8,1.8,6.9,2.4l0.2,0.2l0.9,0.1
		c3.1,0.6,5.7,1.4,8,2.5c1.8,0.8,4.2,2.2,5.7,4.6c0.9,1.6,1.4,3.3,1.4,4.9c0,3.4-1.8,6.7-4.9,8.9
		C322.4,670.6,318.7,671.7,314.7,671.7z"/>
	<path class="st6" d="M314.7,671c-5.1-0.1-10.1-2-14.8-5.8c-0.3-0.2-0.5-0.6-0.5-1.1c0-0.5,0.1-0.9,0.4-1.3c0.4-0.5,0.8-0.7,1.4-0.7
		c0.4,0,0.8,0.1,1.1,0.4c2.7,2.3,7.5,5,12.3,5l0.3,0c2.8,0,5.8-0.9,8.1-2.3l0.2-0.2c2-1.7,3-3.5,3-5.4c0-1.2-0.4-2-0.7-2.5
		c-0.4-0.8-1.2-1.6-2.4-2.3c-1.6-1.2-5-2.4-8.7-3.1l-0.4-0.1c-2.9-0.6-5.3-1.3-7.2-2.2c-2.3-1.1-4-2.5-5.2-4.3
		c-0.7-1.1-1.1-2.6-1.1-4.1c0-2.9,1.6-5.7,4.3-7.8c2.7-1.8,6.1-2.8,9.7-2.8c5.6,0,9.6,2.8,12.3,4.6c0.8,0.6,1.1,1.7,0.6,2.6
		c-0.2,0.4-0.8,0.6-1.3,0.6c-0.4,0-0.7-0.1-1-0.3c-3.3-2.1-6.5-4.1-10.5-4.1c-2.9,0-5.7,0.9-7.7,2.4c-2.5,1.7-2.8,3.9-2.8,4.8
		c0,0.7,0,1.5,0.6,2.4c0.3,0.5,1,1.4,2.2,2.1c1.3,0.9,3.8,1.8,6.9,2.4l0.2,0.2l1.2,0.1c3,0.6,5.5,1.4,7.8,2.4c1.7,0.8,4,2.1,5.3,4.3
		c0.9,1.4,1.3,3,1.3,4.5c0,3.2-1.7,6.2-4.6,8.3C322.1,669.9,318.5,671,314.7,671z"/>
	<path class="st6" d="M361,673.5c-5.4,0-9.7-4.4-9.7-9.7v-27.1h-3.5c-2.5,0-4.4-2-4.4-4.4c0-2.5,2-4.4,4.4-4.4h3.5v-14.5
		c0-2.5,2-4.4,4.5-4.4c2.5,0,4.4,1.9,4.4,4.4v14.5h3.1c2.5,0,4.5,2,4.5,4.4c0,2.4-2.1,4.4-4.5,4.4h-3.1v27.9h0.8
		c2.5,0,4.4,2,4.4,4.5C365.4,671.5,363.5,673.5,361,673.5z"/>
	<path class="st6" d="M361,671.7c-4.4,0-8-3.6-8-8v-28.9h-5.2c-1.5,0-2.7-1.2-2.7-2.7c0-1.5,1.2-2.7,2.7-2.7h5.2v-16.2
		c0-1.5,1.2-2.7,2.8-2.7c1.5,0,2.7,1.2,2.7,2.7v16.2h4.9c1.5,0,2.8,1.2,2.8,2.7c0,1.4-1.3,2.7-2.8,2.7h-4.9v31.4h2.5
		c1.5,0,2.7,1.2,2.7,2.8C363.7,670.6,362.5,671.7,361,671.7z"/>
	<path class="st6" d="M361,671c-4,0-7.2-3.2-7.2-7.2v-29.6h-6c-1.1,0-1.9-0.9-1.9-1.9c0-1.1,0.8-1.9,1.9-1.9h6v-17
		c0-1.1,0.9-1.9,2-1.9c1.1,0,1.9,0.8,1.9,1.9v17h5.6c1.1,0,2,0.9,2,1.9c0,1-1,1.9-2,1.9h-5.6V667h3.3c1.1,0,1.9,0.9,1.9,2
		C362.9,670.1,362.1,671,361,671z"/>
	<path class="st6" d="M417.3,673.5c-2,0-3.7-1.4-4.2-3.5l-0.3-1.1l-0.9,0.6c-3.7,2.6-7.7,3.9-12.1,3.9c-5.9,0-11.4-2.4-15.5-6.7
		c-4-4.3-6.2-10-6.2-16.1c0-6.2,2.2-11.9,6.2-16.1c4.1-4.4,9.6-6.9,15.5-6.9c4.3,0,8.4,1.4,12.1,4l0.9,0.6l0.3-1.1
		c0.5-2.1,2.2-3.6,4.2-3.6c2.3,0,4.3,2,4.3,4.4v37.1C421.6,671.5,419.6,673.5,417.3,673.5z M399.8,636.3c-3.7,0-7.1,1.5-9.4,4.1
		c-2.4,2.5-3.8,6.2-3.8,10.2c0,4,1.3,7.6,3.8,10.2c2.3,2.5,5.7,3.9,9.3,3.9c3.5,0,6.9-1.4,9.3-3.9c2.5-2.7,3.9-6.4,3.9-10.3
		c0-4-1.4-7.6-3.9-10.3C406.9,637.8,403.4,636.3,399.8,636.3z"/>
	<path class="st6" d="M417.3,671.7c-1.3,0-2.2-1.1-2.5-2.2l-0.9-3.6l-3,2.1c-3.4,2.4-7.1,3.6-11.1,3.6c-5.4,0-10.5-2.2-14.2-6.1
		c-3.7-3.9-5.7-9.2-5.7-14.9c0-5.7,2-11,5.7-14.9c3.8-4.1,8.9-6.3,14.2-6.3c3.9,0,7.7,1.2,11.1,3.7l3,2.2l0.9-3.6
		c0.2-1,1-2.2,2.5-2.2c1.4,0,2.5,1.2,2.5,2.6v37.1C419.8,670.6,418.7,671.7,417.3,671.7z M399.8,634.6c-4.2,0-8.1,1.7-10.7,4.8
		c-2.7,2.8-4.2,6.8-4.2,11.4c0,4.4,1.5,8.5,4.3,11.4c2.6,2.9,6.5,4.5,10.6,4.5c4,0,7.9-1.6,10.6-4.5c2.8-3.1,4.4-7.1,4.4-11.5
		c0-4.4-1.6-8.5-4.4-11.5C407.8,636.3,403.9,634.6,399.8,634.6z"/>
	<path class="st6" d="M417.3,671c-0.9,0-1.6-0.8-1.8-1.6l-1.2-4.6l-3.9,2.8c-3.2,2.3-6.8,3.5-10.7,3.5c-5.2,0-10.1-2.1-13.7-5.9
		c-3.6-3.8-5.5-8.9-5.5-14.4c0-5.5,2-10.6,5.5-14.4c3.7-3.9,8.5-6.1,13.7-6.1c3.8,0,7.4,1.2,10.7,3.6l3.9,2.8l1.1-4.7
		c0-0.2,0.4-1.7,1.7-1.7c1,0,1.8,0.8,1.8,1.8v37.1C419.1,670.2,418.3,671,417.3,671z M399.8,633.8c-4.4,0-8.5,1.8-11.3,5
		c-2.8,2.9-4.4,7.1-4.4,11.8c0,4.6,1.6,8.8,4.5,11.9c2.8,3,6.8,4.7,11.2,4.7c4.2,0,8.3-1.7,11.1-4.7c3-3.2,4.6-7.5,4.6-12
		c0-4.6-1.6-8.9-4.6-12C408.2,635.6,404.2,633.8,399.8,633.8z"/>
	<path class="st6" d="M444.3,673.5c-2.3,0-4.3-1.9-4.3-4.3V632c0-2.3,1.9-4.2,4.3-4.2c2.5,0,4.4,1.9,4.4,4.2v2.7l1.3-1.6
		c0.6-0.7,1.3-1.4,1.9-1.8c3.5-2.3,7.3-3.5,11.1-3.5l0.4,0c2.4,0,4.3,1.8,4.3,4.2c0,2.3-1.9,4.3-4.3,4.3c-2.4,0-4.4,0.7-6.1,1.9
		c-1.7,1.1-3.2,2.7-4.5,4.7c-2.1,2.8-3.3,6.1-3.8,7.7l-0.2,0.5v18.1C448.8,671.5,446.8,673.5,444.3,673.5z"/>
	<path class="st6" d="M444.3,671.7c-1.4,0-2.5-1.1-2.5-2.5V632c0-1.3,1.1-2.4,2.5-2.4c1.5,0,2.7,1.1,2.7,2.4v7.5l4.4-5.2
		c0.5-0.6,1.1-1.2,1.5-1.5c3.2-2.1,6.6-3.2,10.1-3.2l0.3,0c1.5,0,2.6,1,2.6,2.4c0,1.2-1,2.5-2.5,2.5c-2.8,0-5.2,0.8-7.2,2.3
		c-1.8,1.1-3.5,2.9-4.9,5.2c-2.2,2.9-3.4,6.4-4,8l-0.3,0.8v18.4C447,670.6,445.8,671.7,444.3,671.7z"/>
	<path class="st6" d="M444.3,671c-0.9,0-1.8-0.8-1.8-1.8V632c0-0.9,0.8-1.7,1.8-1.7c1.1,0,1.9,0.7,1.9,1.7v9.5l5.7-6.7
		c0.5-0.5,1-1.1,1.4-1.4c3.1-2,6.3-3.1,9.6-3.1l0.3,0c1.1,0,1.8,0.7,1.8,1.7c0,0.8-0.7,1.8-1.8,1.8c-2.9,0-5.5,0.8-7.7,2.5
		c-1.8,1.1-3.6,3-5.1,5.4c-2.2,3-3.5,6.5-4.1,8.2l-0.3,0.9v18.5C446.3,670.1,445.4,671,444.3,671z"/>
	<path class="st6" d="M494.4,673.5c-5.4,0-9.7-4.4-9.7-9.7v-27.1h-3.5c-2.5,0-4.4-2-4.4-4.4c0-2.5,2-4.4,4.4-4.4h3.5v-14.5
		c0-2.5,2-4.4,4.5-4.4c2.5,0,4.4,1.9,4.4,4.4v14.5h3.1c2.5,0,4.5,2,4.5,4.4c0,2.4-2.1,4.4-4.5,4.4h-3.1v27.9h0.8
		c2.5,0,4.4,2,4.4,4.5C498.9,671.6,497,673.5,494.4,673.5z"/>
	<path class="st6" d="M494.4,671.7c-4.4,0-8-3.6-8-8v-28.9h-5.2c-1.5,0-2.7-1.2-2.7-2.7c0-1.5,1.2-2.7,2.7-2.7h5.2v-16.2
		c0-1.5,1.2-2.7,2.8-2.7c1.5,0,2.7,1.2,2.7,2.7v16.2h4.9c1.5,0,2.8,1.2,2.8,2.7c0,1.4-1.3,2.7-2.8,2.7h-4.9v31.4h2.5
		c1.5,0,2.7,1.2,2.7,2.8C497.1,670.6,496,671.7,494.4,671.7z"/>
	<path class="st6" d="M494.4,671c-4,0-7.2-3.2-7.2-7.2v-29.6h-6c-1.1,0-1.9-0.9-1.9-1.9c0-1.1,0.8-1.9,1.9-1.9h6v-17
		c0-1.1,0.9-1.9,2-1.9c1.1,0,1.9,0.8,1.9,1.9v17h5.6c1.1,0,2,0.9,2,1.9c0,1-1,1.9-2,1.9h-5.6V667h3.3c1.1,0,1.9,0.9,1.9,2
		C496.4,670.1,495.6,671,494.4,671z"/>
	<path class="st6" d="M537.3,673.5c-10.4,0-18.9-8.5-18.9-18.9V632c0-2.3,2-4.3,4.3-4.3c2.3,0,4.3,1.9,4.3,4.3v22.6
		c0,5.8,4.6,10.4,10.4,10.4c5.9,0,10.6-4.6,10.7-10.4V632c0-2.3,1.9-4.3,4.2-4.3c2.2,0,4.3,2.1,4.3,4.3v22.6
		C556.5,664.8,547.7,673.5,537.3,673.5z"/>
	<path class="st6" d="M537.3,671.7c-9.5,0-17.1-7.7-17.1-17.1V632c0-1.3,1.2-2.5,2.5-2.5c1.5,0,2.5,1.3,2.5,2.5v22.6
		c0,6.8,5.3,12.1,12.1,12.1c6.8,0,12.3-5.3,12.4-12.1V632c0-1.2,0.9-2.5,2.4-2.5c1.3,0,2.6,1.3,2.6,2.5v22.6
		C554.8,663.9,546.8,671.7,537.3,671.7z"/>
	<path class="st6" d="M537.3,671c-9,0-16.4-7.4-16.4-16.4V632c0-0.9,0.9-1.8,1.8-1.8c1,0,1.7,0.9,1.7,1.8v22.6
		c0,7.2,5.7,12.9,12.9,12.9c7.3,0,13.1-5.6,13.2-12.8V632c0-0.8,0.6-1.8,1.7-1.8c0.9,0,1.8,0.9,1.8,1.8v22.6
		C554,663.4,546.4,671,537.3,671z"/>
	<path class="st6" d="M579.6,691.2c-2.3,0-4.3-2-4.3-4.4V632c0-2.3,1.9-4.3,4.3-4.3c2.4,0,4.2,1.7,4.5,3.3l0.2,1.1l0.9-0.6
		c3.7-2.4,8.1-3.8,12.4-3.8c12.2,0,22.1,10.3,22.1,23c0,12.5-9.9,22.7-22.1,22.7c-4.5,0-8.9-1.3-12.2-3.7l-1.2-0.9v18.1
		C584.2,689.2,582.1,691.2,579.6,691.2z M597.6,636.5c-3.7,0-7,1.4-9.5,4.1c-2.5,2.5-3.9,6.1-3.9,10.1c0,4.1,1.4,7.8,3.9,10
		c2.4,2.7,5.7,4.2,9.5,4.2c3.6,0,6.9-1.5,9.4-4.2c2.4-2.4,3.9-6.2,3.9-10c0-3.6-1.4-7.3-3.9-10C604.5,638,601.2,636.5,597.6,636.5z"
		/>
	<path class="st6" d="M579.6,689.5c-1.3,0-2.5-1.3-2.5-2.6V632c0-1.4,1.1-2.5,2.5-2.5c1.4,0,2.6,0.9,2.7,1.8l0.7,3.7l3.2-2
		c3.5-2.2,7.5-3.5,11.5-3.5c11.2,0,20.4,9.5,20.4,21.2c0,11.5-9.1,20.9-20.4,20.9c-4.1,0-8.2-1.2-11.2-3.4l-4-2.9v21.5
		C582.5,688.1,581.3,689.5,579.6,689.5z M586.9,661.9c2.8,3.1,6.5,4.7,10.7,4.7c4.1,0,7.9-1.7,10.7-4.8c2.7-2.7,4.4-7,4.4-11.2
		c0-4-1.6-8.1-4.3-11.2c-3-3.1-6.8-4.7-10.8-4.7c-4.2,0-8,1.6-10.8,4.7c-2.8,2.8-4.4,6.8-4.4,11.2
		C582.5,655.3,584.1,659.4,586.9,661.9z"/>
	<path class="st6" d="M579.6,688.7c-0.9,0-1.7-0.9-1.7-1.8V632c0-0.9,0.8-1.8,1.7-1.8c1.1,0,1.9,0.7,2,1.2l0.9,4.8l4.1-2.7
		c3.3-2.2,7.3-3.3,11.1-3.3c10.8,0,19.6,9.2,19.6,20.5c0,11.1-8.8,20.2-19.6,20.2c-4,0-7.9-1.2-10.8-3.3l-5.2-3.7v23
		C581.7,687.6,580.9,688.7,579.6,688.7z M597.6,634c-4.5,0-8.4,1.7-11.4,4.9c-2.9,2.9-4.6,7.1-4.6,11.8c0,4.8,1.7,9.1,4.7,11.8
		c2.9,3.2,6.8,4.9,11.3,4.9c4.3,0,8.3-1.8,11.3-5c2.8-2.8,4.6-7.3,4.6-11.7c0-4.2-1.6-8.5-4.5-11.7C605.9,635.8,601.8,634,597.6,634
		z"/>
	<path class="st6" d="M496.7,786.9c-2.5,0-4.4-1.9-4.4-4.4v-21.4c0-5.9-4.9-10.9-10.9-11c-6,0.1-10.8,4.9-10.9,10.9v21.4
		c0,2.5-2,4.4-4.5,4.4c-1.9,0-3.7-1.4-4.3-3.3c-0.1-0.3-0.2-0.7-0.2-1.1v-55.7c0-2.5,2-4.4,4.4-4.4c2.5,0,4.5,2,4.5,4.4v17.7
		l1.1-0.6c3.3-1.8,6.6-2.7,9.8-2.7c10.9,0,19.8,8.9,19.8,19.9v21.4C501.1,784.9,499.2,786.9,496.7,786.9z"/>
	<path class="st6" d="M496.7,785.1c-1.5,0-2.7-1.2-2.7-2.7v-21.4c0-6.9-5.7-12.6-12.7-12.7c-7,0.1-12.5,5.7-12.7,12.7v21.4
		c0,1.5-1.2,2.7-2.8,2.7c-1.3,0-2.3-1.1-2.6-2.1c0-0.2-0.1-0.4-0.1-0.6v-55.7c0-1.5,1.2-2.7,2.7-2.7c1.6,0,2.8,1.2,2.8,2.7v20.6
		l3.7-2c3.1-1.6,6-2.4,8.9-2.4c10,0,18.1,8.2,18.1,18.2v21.4C499.4,784,498.2,785.1,496.7,785.1z"/>
	<path class="st6" d="M496.7,784.4c-1.1,0-1.9-0.8-1.9-1.9v-21.4c0-7.3-6-13.3-13.4-13.5c-7.4,0.1-13.3,6-13.4,13.4v21.4
		c0,1.1-0.9,1.9-2,1.9c-0.9,0-1.7-0.8-1.9-1.6c0-0.1,0-0.3,0-0.4v-55.7c0-1.1,0.9-1.9,1.9-1.9c1.1,0,2,0.9,2,1.9v21.9l4.8-2.5
		c3-1.6,5.8-2.4,8.6-2.4c9.6,0,17.3,7.8,17.3,17.4v21.4C498.6,783.5,497.8,784.4,496.7,784.4z"/>
	<path class="st6" d="M537.3,786.9c-10.4,0-18.9-8.5-18.9-18.9v-22.6c0-2.3,2-4.3,4.3-4.3c2.3,0,4.3,1.9,4.3,4.3V768
		c0,5.8,4.6,10.4,10.4,10.4c5.9,0,10.6-4.6,10.7-10.4v-22.6c0-2.3,1.9-4.3,4.2-4.3c2.2,0,4.3,2.1,4.3,4.3V768
		C556.5,778.2,547.7,786.9,537.3,786.9z"/>
	<path class="st6" d="M537.3,785.1c-9.5,0-17.1-7.7-17.1-17.1v-22.6c0-1.3,1.2-2.5,2.5-2.5c1.5,0,2.5,1.3,2.5,2.5V768
		c0,6.8,5.3,12.1,12.1,12.1c6.8,0,12.3-5.3,12.4-12.1v-22.6c0-1.2,0.9-2.5,2.4-2.5c1.3,0,2.6,1.3,2.6,2.5V768
		C554.8,777.3,546.8,785.1,537.3,785.1z"/>
	<path class="st6" d="M537.3,784.4c-9,0-16.4-7.4-16.4-16.4v-22.6c0-0.9,0.9-1.8,1.8-1.8c1,0,1.7,0.9,1.7,1.8V768
		c0,7.2,5.7,12.9,12.9,12.9c7.3,0,13.1-5.6,13.2-12.8v-22.6c0-0.8,0.6-1.8,1.7-1.8c0.9,0,1.8,0.9,1.8,1.8V768
		C554,776.9,546.4,784.4,537.3,784.4z"/>
	<path class="st6" d="M597.5,786.9c-4.3,0-8.7-1.4-12.4-3.9l-0.9-0.6l-0.2,1.1c-0.4,2-2.2,3.5-4.3,3.5c-2.4,0-4.3-2-4.3-4.4v-55.9
		c0-2.4,2-4.4,4.3-4.4c2.5,0,4.4,2,4.4,4.4v19.2l1.2-0.8c3.5-2.4,7.9-3.8,12.2-3.8c12.2,0,22.2,10.3,22.2,23
		C619.7,776.7,609.8,786.9,597.5,786.9z M597.5,749.9c-3.6,0-6.8,1.4-9.4,4.1c-2.6,2.6-4,6.1-4,10.1c0,3.7,1.5,7.3,4,9.9
		c2.6,2.7,5.8,4.1,9.4,4.1c3.5,0,6.9-1.5,9.4-4.1c2.5-2.5,4-6.1,4-9.9c0-3.9-1.4-7.5-4-10.1C604.4,751.4,601.1,749.9,597.5,749.9z"
		/>
	<path class="st6" d="M597.5,785.1c-4,0-8-1.3-11.4-3.6l-3.1-2.1l-0.8,3.7c-0.2,1-1.1,2.1-2.6,2.1c-1.4,0-2.6-1.2-2.6-2.6v-55.9
		c0-1.4,1.2-2.6,2.6-2.6c1.5,0,2.7,1.2,2.7,2.6v22.6l3.9-2.8c3.2-2.2,7.3-3.5,11.2-3.5c11.3,0,20.5,9.5,20.5,21.2
		C618,775.7,608.8,785.1,597.5,785.1z M597.5,748.2c-4.1,0-7.8,1.6-10.7,4.6c-2.9,2.9-4.5,6.9-4.5,11.3c0,4.2,1.6,8.3,4.5,11.1
		c2.9,3,6.6,4.6,10.7,4.6c4,0,7.8-1.6,10.7-4.6c2.8-2.8,4.5-6.9,4.5-11.1c0-4.4-1.6-8.4-4.5-11.3
		C605.3,749.8,601.5,748.2,597.5,748.2z"/>
	<path class="st6" d="M597.5,784.4c-3.8,0-7.7-1.2-11-3.5l-4-2.8l-1,4.8c-0.1,0.7-0.8,1.5-1.8,1.5c-1,0-1.8-0.8-1.8-1.8v-55.9
		c0-1,0.8-1.8,1.8-1.8c1.1,0,1.9,0.8,1.9,1.8v24l5.1-3.6c3-2.1,7-3.4,10.8-3.4c10.9,0,19.7,9.2,19.7,20.5
		C617.2,775.3,608.4,784.4,597.5,784.4z M597.5,747.4c-4.3,0-8.2,1.7-11.2,4.9c-3,3-4.7,7.2-4.7,11.8c0,4.4,1.7,8.6,4.7,11.7
		c3,3.2,6.9,4.8,11.2,4.8c4.2,0,8.2-1.7,11.2-4.9c3-3,4.7-7.2,4.7-11.6c0-4.6-1.7-8.8-4.7-11.8C605.7,749.1,601.8,747.4,597.5,747.4
		z"/>
</g>
</svg>
