<?xml version="1.0" standalone="no"?>
<!DOCTYPE svg PUBLIC "-//W3C//DTD SVG 1.1//EN" "http://www.w3.org/Graphics/SVG/1.1/DTD/svg11.dtd" >
<svg xmlns="http://www.w3.org/2000/svg">
<metadata>
Created by FontPrep 20130207 at Wed Nov 20 17:29:23 2013
 By 7daysofrain
Copyright (c) Olivier Gourvat - Mostardesign Studio, 2012. All rights reserved.
</metadata>
<defs>
<font id="ac1d368129849acd60a9ca2964976c77" horiz-adv-x='1024' >
  <font-face 
    font-family="SofiaProLight"
    font-weight="400"
    font-stretch="normal"
    units-per-em="2048"
    panose-1="2 11 0 0 0 0 0 0 0 0"
    ascent="1536"
    descent="-512"
    x-height="956"
    cap-height="1411"
    bbox="-348 -528 2290 2222"
    underline-thickness="102"
    underline-position="-102"
    unicode-range="U+0020-FB04"
  />
<missing-glyph horiz-adv-x="1300" 
d="M485 268q0 -36 28 -62t66 -26q37 0 65 26t28 62t-28 63q-28 25 -66 25t-65 -26q-28 -26 -28 -62zM379 883h127q0 76 43 123t109 47t114 -42q49 -41 49 -105t-49 -105q-31 -35 -95 -53q-63 -18 -113 -68q-50 -51 -50 -148v-77h127v77q0 45 26 67q26 23 95 43t127 91
q57 73 57 183t-85 187t-203 77t-198 -82t-81 -215zM164 0v1362h973v-1362h-973z" />
    <glyph glyph-name="f_f" unicode="ff" horiz-adv-x="1386" 
d="M1395 1475v-129h-103q-127 0 -168 -94q-28 -68 -28 -185v-111h235v-122h-235v-834h-138v834h-575v-834h-137v834h-187v122h187v111q0 408 334 408h102v-129h-102q-130 0 -168 -94q-29 -71 -29 -185v-111h575v111q0 408 334 408h103z" />
    <glyph glyph-name="fi" unicode="fi" horiz-adv-x="1222" 
d="M891 1313q0 43 31 71q32 28 74 27q42 0 73 -28q31 -29 31 -71t-31 -70t-74 -28t-73 28t-31 71zM926 834h-543v-834h-137v834h-187v122h187v111q0 408 334 408h102v-129h-102q-130 0 -168 -94q-29 -71 -29 -185v-111h678v-956h-135v834z" />
    <glyph glyph-name="fl" unicode="fl" horiz-adv-x="1196" 
d="M580 1475h450v-1475h-135v1346h-315q-130 0 -168 -94q-29 -71 -29 -185v-111h235v-122h-235v-834h-137v834h-187v122h187v111q0 408 334 408z" />
    <glyph glyph-name="f_f_i" unicode="ffi" horiz-adv-x="1935" 
d="M1604 1313q0 43 30 71t74 27q43 0 74 -28q30 -29 30 -71t-30 -70t-74 -28q-43 0 -74 28q-30 28 -30 71zM1638 834h-542v-834h-138v834h-575v-834h-137v834h-187v122h187v111q0 408 334 408h102v-129h-102q-130 0 -168 -94q-29 -71 -29 -185v-111h575v111q0 408 334 408
h103v-129h-103q-127 0 -168 -94q-28 -68 -28 -185v-111h678v-956h-136v834z" />
    <glyph glyph-name="f_f_l" unicode="ffl" horiz-adv-x="1908" 
d="M1608 0v1346h-316q-127 0 -168 -94q-28 -68 -28 -185v-111h235v-122h-235v-834h-138v834h-575v-834h-137v834h-187v122h187v111q0 408 334 408h102v-129h-102q-130 0 -168 -94q-29 -71 -29 -185v-111h575v111q0 408 334 408h451v-1475h-135z" />
    <glyph glyph-name="f_f_j" unicode="ffj" horiz-adv-x="1937" 
d="M1604 1313q0 43 30 71t74 27q43 0 74 -28q30 -29 30 -71t-30 -70t-74 -28q-43 0 -74 28q-30 28 -30 71zM1339 -463v129h103q127 0 168 93q28 68 28 186v889h-542v-834h-138v834h-575v-834h-137v834h-187v122h187v111q0 408 334 408h102v-129h-102q-130 0 -168 -94
q-29 -71 -29 -185v-111h575v111q0 408 334 408h103v-129h-103q-127 0 -168 -94q-28 -68 -28 -185v-111h680v-1011q0 -408 -334 -408h-103z" />
    <glyph glyph-name="f_j" unicode="fj" horiz-adv-x="1224" 
d="M891 1313q0 43 31 71q32 28 74 27q42 0 73 -28q31 -29 31 -71t-31 -70t-74 -28t-73 28t-31 71zM627 -463v129h102q129 0 168 93q29 71 29 186v889h-543v-834h-137v834h-187v122h187v111q0 408 334 408h102v-129h-102q-130 0 -168 -94q-29 -71 -29 -185v-111h680v-1011
q0 -408 -334 -408h-102z" />
    <glyph glyph-name=".notdef" horiz-adv-x="1300" 
d="M485 268q0 -36 28 -62t66 -26q37 0 65 26t28 62t-28 63q-28 25 -66 25t-65 -26q-28 -26 -28 -62zM379 883h127q0 76 43 123t109 47t114 -42q49 -41 49 -105t-49 -105q-31 -35 -95 -53q-63 -18 -113 -68q-50 -51 -50 -148v-77h127v77q0 45 26 67q26 23 95 43t127 91
q57 73 57 183t-85 187t-203 77t-198 -82t-81 -215zM164 0v1362h973v-1362h-973z" />
    <glyph glyph-name=".null" horiz-adv-x="0" 
 />
    <glyph glyph-name="nonmarkingreturn" horiz-adv-x="681" 
 />
    <glyph glyph-name="space" unicode=" " horiz-adv-x="544" 
 />
    <glyph glyph-name="exclam" unicode="!" horiz-adv-x="532" 
d="M334 1411l-12 -1032h-111l-12 1032h135zM154 86q0 45 32 76q33 31 80 31t80 -31t33 -76t-33 -76q-33 -30 -80 -30t-80 30q-32 31 -32 76z" />
    <glyph glyph-name="quotedbl" unicode="&#x22;" horiz-adv-x="667" 
d="M397 1411h109v-555h-109v555zM162 1411h108v-555h-108v555z" />
    <glyph glyph-name="numbersign" unicode="#" horiz-adv-x="1343" 
d="M582 924l-121 -439h295l121 439h-295zM1038 1051h230l-35 -127h-229l-121 -439h229l-35 -127h-229l-98 -358h-127l98 358h-295l-98 -358h-125l98 358h-225l35 127h225l119 439h-224l33 127h225l101 360h127l-101 -360h295l101 360h127z" />
    <glyph glyph-name="dollar" unicode="$" horiz-adv-x="1134" 
d="M625 -250h-103v232q-186 12 -303 139t-117 285h136q0 -113 90 -202t234 -89t235 68q90 69 108 163q18 121 -58 195q-77 74 -210 104l-191 43q-332 74 -331 354q0 158 121 266t286 117v195h103v-197q166 -20 270 -128t104 -271h-135q0 121 -87 195q-87 73 -214 73
t-220 -70t-93 -180q0 -172 225 -223l193 -43q188 -43 294 -154q105 -112 76 -300q-25 -126 -132 -224t-281 -114v-234z" />
    <glyph glyph-name="percent" unicode="%" horiz-adv-x="1339" 
d="M831 252q-1 -66 45 -111t112 -45t111 45q46 45 46 109t-46 112t-112 48t-111 -46t-45 -112zM715 252q0 114 79 194q80 80 194 80t194 -81t80 -195t-80 -192t-195 -78t-193 78t-79 194zM197 1104q0 -66 45 -111q44 -45 110 -45t112 45t46 109t-46 112t-112 48t-110 -46
t-45 -112zM80 1104q0 114 79 194t193 80t195 -81q80 -81 80 -195t-80 -192q-80 -79 -195 -79q-116 0 -194 79t-78 194zM1053 1378l-674 -1378h-96l673 1378h97z" />
    <glyph glyph-name="ampersand" unicode="&#x26;" horiz-adv-x="1359" 
d="M901 748h-323q-138 0 -232 -94t-94 -227q0 -132 90 -222t231 -90t233 86q91 86 95 215v332zM582 870h319v181h133v-183h189v-120h-189v-318q0 -154 46 -238t180 -83v-129q-117 0 -200 52t-112 138q-47 -86 -151 -138t-222 -52q-201 0 -329 130t-129 320q0 121 64 225
q65 104 173 164q-123 99 -123 253q-1 154 103 254t258 101q104 0 189 -48t132 -128l-114 -71q-66 113 -207 112q-98 0 -162 -59t-63 -149t61 -152t154 -62z" />
    <glyph glyph-name="quotesingle" unicode="'" horiz-adv-x="432" 
d="M162 1411h108v-555h-108v555z" />
    <glyph glyph-name="parenleft" unicode="(" horiz-adv-x="739" 
d="M655 -477q-248 0 -396 253q-148 252 -148 700t148 700t396 251v-135q-186 0 -298 -216q-111 -216 -111 -600t112 -601t297 -217v-135z" />
    <glyph glyph-name="parenright" unicode=")" horiz-adv-x="739" 
d="M84 -477v135q186 0 298 217t112 601t-112 600t-298 216v135q248 1 396 -251t148 -700t-148 -700q-148 -253 -396 -253z" />
    <glyph glyph-name="asterisk" unicode="*" horiz-adv-x="997" 
d="M504 948l-172 -250l-115 86l189 232l-289 82q3 12 45 137l278 -107l-16 299h149l-18 -299l283 107l43 -137l-289 -78l188 -238q-53 -39 -114 -82z" />
    <glyph glyph-name="plus" unicode="+" horiz-adv-x="1069" 
d="M469 604v352h129v-352h354v-129h-354v-354h-129v354h-352v129h352z" />
    <glyph glyph-name="comma" unicode="," horiz-adv-x="499" 
d="M141 -270l-94 28q135 190 129 432h158q-12 -164 -68 -284t-125 -176z" />
    <glyph glyph-name="hyphen" unicode="-" horiz-adv-x="993" 
d="M147 543h699v-129h-699v129z" />
    <glyph glyph-name="period" unicode="." horiz-adv-x="520" 
d="M147 86q0 45 33 76t80 31t80 -31t33 -76t-33 -76q-33 -30 -80 -30t-80 30t-33 76z" />
    <glyph glyph-name="slash" unicode="/" horiz-adv-x="968" 
d="M905 1411l-690 -1411h-149l690 1411h149z" />
    <glyph glyph-name="zero" unicode="0" horiz-adv-x="1249" 
d="M274 679q0 -263 78 -414t278 -151t275 168q66 144 67 402t-76 409q-78 151 -272 151t-272 -152q-78 -150 -78 -413zM139 679q0 304 98 492q108 207 388 207t388 -207q95 -183 95 -493q0 -513 -246 -645q-98 -53 -237 -53t-238 53q-248 134 -248 646z" />
    <glyph glyph-name="one" unicode="1" horiz-adv-x="659" 
d="M317 0v1186l-231 -80v123l367 133v-1362h-136z" />
    <glyph glyph-name="two" unicode="2" horiz-adv-x="1075" 
d="M805 986q0 118 -81 188t-197 70q-117 0 -197 -60q-80 -59 -94 -160l-125 33q25 147 139 234q116 87 282 87t287 -110t121 -284q0 -175 -147 -343l-428 -506h577v-135h-817v47l569 690q111 131 111 249z" />
    <glyph glyph-name="three" unicode="3" horiz-adv-x="1095" 
d="M526 664h-131v129h131q102 -1 174 63t76 159t-56 157t-162 68t-175 -27q-74 -34 -109 -93l-108 68q54 94 158 147t225 45q185 -14 283 -125t81 -262q-6 -81 -58 -153t-134 -107q115 -27 187 -141t61 -236q-13 -168 -157 -278t-331 -96q-131 10 -234 78t-151 173l123 56
q31 -70 105 -117t184 -55q112 -8 214 67q101 76 107 192t-85 202t-218 86z" />
    <glyph glyph-name="four" unicode="4" horiz-adv-x="1200" 
d="M772 416v676l-465 -676h465zM907 291v-291h-135v291h-713l748 1071h100v-946h205v-125h-205z" />
    <glyph glyph-name="five" unicode="5" horiz-adv-x="1148" 
d="M897 429q0 134 -94 212q-93 78 -203 78t-185 -23t-200 -84l-53 72l119 678h667v-137h-551l-82 -451q168 84 275 84q188 0 318 -116t130 -318t-131 -323q-131 -122 -352 -121q-141 0 -269 80t-188 206l117 84q39 -98 136 -164t204 -65q160 0 251 87t91 221z" />
    <glyph glyph-name="six" unicode="6" horiz-adv-x="1138" 
d="M384 642q-93 -83 -96 -212t82 -219t210 -94t212 79t93 212q4 129 -76 219t-206 94t-219 -79zM985 1149l-119 -51q-66 135 -241 145q-184 6 -266 -152q-81 -159 -74 -401q33 86 128 129t195 39q182 -8 301 -142t111 -316t-136 -306q-128 -122 -308 -114t-296 130
q-114 122 -130 328q-14 309 22 533q31 184 155 299t304 108q123 -6 212 -55t142 -174z" />
    <glyph glyph-name="seven" unicode="7" horiz-adv-x="1060" 
d="M121 1227v135h903l-750 -1362h-159l678 1227h-672z" />
    <glyph glyph-name="eight" unicode="8" horiz-adv-x="1157" 
d="M365 1045q0 -83 58 -142t144 -61h19q90 2 150 61t60 142t-62 141t-154 57q-92 0 -154 -57q-61 -58 -61 -141zM254 412q0 -123 93 -210t231 -87t231 87q94 87 94 212t-94 215t-231 90h-15q-131 -4 -220 -94t-89 -213zM229 1034q1 148 101 246t249 98t251 -97t102 -245
t-125 -245q107 -57 169 -157t62 -220q0 -182 -133 -308t-327 -126t-327 126q-132 126 -132 308q0 119 61 219t168 158q-119 95 -119 243z" />
    <glyph glyph-name="nine" unicode="9" 
d="M759 714q93 83 96 212t-82 219t-210 94t-212 -79t-92 -212t75 -219t206 -94t219 79zM145 207l119 51q66 -133 254 -145q184 -5 265 153t75 400q-33 -86 -128 -129t-195 -39q-182 8 -302 142q-119 134 -111 316t137 306q128 124 308 114q180 -8 295 -130t131 -328
q14 -309 -22 -533q-31 -184 -155 -299t-304 -109q-273 13 -367 230z" />
    <glyph glyph-name="colon" unicode=":" horiz-adv-x="520" 
d="M147 870q0 45 33 76t80 31t80 -31t33 -76q0 -46 -33 -76t-80 -30t-80 30t-33 76zM147 86q0 45 33 76t80 31t80 -31t33 -76t-33 -76q-33 -30 -80 -30t-80 30t-33 76z" />
    <glyph glyph-name="semicolon" unicode=";" horiz-adv-x="567" 
d="M184 870q0 45 33 76t80 31t80 -31t33 -76q0 -46 -33 -76t-80 -30t-80 30t-33 76zM182 -270l-94 28q135 190 129 432h158q-11 -164 -67 -284t-126 -176z" />
    <glyph glyph-name="less" unicode="&#x3c;" horiz-adv-x="1288" 
d="M1143 82l-1043 399v148l1043 399v-147l-885 -326l885 -328v-145z" />
    <glyph glyph-name="equal" unicode="=" horiz-adv-x="1255" 
d="M158 369h940v-129h-940v129zM158 788h940v-129h-940v129z" />
    <glyph glyph-name="greater" unicode="&#x3e;" horiz-adv-x="1288" 
d="M1188 481l-1043 -399v145l885 328l-885 326v147l1043 -399v-148z" />
    <glyph glyph-name="question" unicode="?" horiz-adv-x="997" 
d="M262 86q0 45 33 76t80 31t80 -31t33 -76t-34 -76q-32 -30 -79 -30t-80 30t-33 76zM231 1030h-135q0 176 116 286t285 110t291 -110t123 -286q0 -142 -83 -244t-210 -139q-90 -27 -133 -65t-43 -123v-80h-135v80q0 135 70 207t201 110q84 26 141 94t57 172t-84 176
t-196 72t-188 -72q-77 -72 -77 -188z" />
    <glyph glyph-name="at" unicode="@" horiz-adv-x="2021" 
d="M1264 256v272q0 119 -83 201t-200 82t-200 -82t-83 -200q0 -119 83 -201t197 -82t200 86v-146q-98 -66 -197 -65q-170 0 -289 120q-119 119 -119 287t119 288t286 120t286 -114t125 -275v-305q0 -152 163 -152q74 0 128 46t81 122q49 138 49 295q0 319 -238 534
q-239 215 -567 215q-329 0 -551 -228q-222 -230 -222 -557t222 -553t547 -226h37v-125h-37q-377 0 -635 262t-260 641q0 379 260 645t635 266q250 -1 464 -113t343 -314t129 -428t-83 -400q-42 -90 -120 -146t-193 -56q-113 0 -195 66q-82 67 -82 220z" />
    <glyph glyph-name="A" unicode="A" horiz-adv-x="1306" 
d="M932 498l-279 725l-278 -725h557zM184 0h-145l543 1411h143l543 -1411h-146l-143 371h-653z" />
    <glyph glyph-name="B" unicode="B" horiz-adv-x="1271" 
d="M756 684h-414v-549h422q118 0 190 77t72 182q0 106 -76 198t-194 92zM342 811h393q104 0 160 73q55 73 55 177t-66 161q-67 56 -179 56h-363v-467zM1085 1061q0 -246 -172 -309q105 -18 177 -127t71 -230q0 -167 -106 -281t-289 -114h-561v1411h514q170 0 268 -94
t98 -256z" />
    <glyph glyph-name="C" unicode="C" horiz-adv-x="1359" 
d="M794 1292q-238 0 -394 -171q-154 -171 -154 -419t154 -418t396 -169q240 0 408 172l94 -97q-206 -210 -502 -210t-491 210t-195 513q0 304 194 515q194 210 491 210t501 -211l-94 -95q-170 170 -408 170z" />
    <glyph glyph-name="D" unicode="D" horiz-adv-x="1478" 
d="M340 1276v-1141h395q236 0 363 157q127 156 127 410t-127 414t-363 160h-395zM735 0h-530v1411h530q291 0 458 -199t167 -509q0 -311 -167 -507t-458 -196z" />
    <glyph glyph-name="E" unicode="E" horiz-adv-x="1144" 
d="M205 1411h805v-135h-670v-516h586v-135h-586v-490h692v-135h-827v1411z" />
    <glyph glyph-name="F" unicode="F" horiz-adv-x="1064" 
d="M205 1411h792v-135h-657v-516h522v-135h-522v-625h-135v1411z" />
    <glyph glyph-name="G" unicode="G" horiz-adv-x="1548" 
d="M911 692h564q0 -352 -173 -532q-174 -180 -478 -180t-509 210t-205 513q0 302 205 514q205 211 504 210q254 0 451 -163l-96 -97q-154 125 -355 125q-241 0 -407 -172t-166 -418t165 -416t400 -171q235 0 368 119q132 120 144 331h-412v127z" />
    <glyph glyph-name="H" unicode="H" horiz-adv-x="1454" 
d="M1249 1411v-1411h-135v637h-774v-637h-135v1411h135v-647h774v647h135z" />
    <glyph glyph-name="I" unicode="I" horiz-adv-x="544" 
d="M340 1411v-1411h-135v1411h135z" />
    <glyph glyph-name="J" unicode="J" horiz-adv-x="544" 
d="M-80 -393q147 0 216 87t69 226v1491h135v-1491q0 -200 -101 -324t-319 -124q-57 0 -127 16l12 133q43 -14 115 -14z" />
    <glyph glyph-name="K" unicode="K" 
d="M340 0h-135v1411h135v-686l532 686h160l-549 -706l668 -705h-182l-629 664v-664z" />
    <glyph glyph-name="L" unicode="L" horiz-adv-x="997" 
d="M205 1411h135v-1276h598v-135h-733v1411z" />
    <glyph glyph-name="M" unicode="M" horiz-adv-x="1935" 
d="M969 311l534 1100h135l172 -1411h-133l-143 1169l-498 -1015h-135l-500 1015l-143 -1169h-133l172 1411h135z" />
    <glyph glyph-name="N" unicode="N" horiz-adv-x="1402" 
d="M1198 0h-139l-719 1182v-1182h-135v1411h145l713 -1173v1173h135v-1411z" />
    <glyph glyph-name="O" unicode="O" horiz-adv-x="1640" 
d="M246 702q0 -246 165 -416t409 -171q244 0 409 171q166 170 166 416t-166 418t-409 172q-242 0 -408 -172t-166 -418zM111 703q0 302 204 514q205 211 504 211t505 -212q206 -210 206 -512t-206 -514q-206 -210 -505 -210t-504 210q-204 211 -204 513z" />
    <glyph glyph-name="P" unicode="P" horiz-adv-x="1230" 
d="M760 1276h-418v-590h408q140 0 206 84t66 209t-66 211t-196 86zM205 1411h555q201 0 299 -125t98 -306t-98 -305t-299 -124h-418v-551h-137v1411z" />
    <glyph glyph-name="Q" unicode="Q" horiz-adv-x="1640" 
d="M1395 702q0 246 -166 418t-409 172q-242 0 -408 -172t-166 -418t165 -416t408 -171q90 0 164 20l-160 258l113 74l172 -277q133 78 210 214t77 298zM1530 702q0 -196 -94 -362t-254 -262l153 -238l-114 -73l-162 253q-117 -41 -240 -40q-299 0 -504 210t-205 513
q0 302 205 514q205 211 504 211t505 -212q206 -210 206 -514z" />
    <glyph glyph-name="R" unicode="R" horiz-adv-x="1245" 
d="M729 1276h-387v-590h377q139 0 203 84q63 84 63 209t-62 211q-63 86 -194 86zM342 551v-551h-137v1411h524q201 0 296 -125t95 -305t-91 -302t-284 -128l390 -551h-166l-389 551h-238z" />
    <glyph glyph-name="S" unicode="S" horiz-adv-x="1163" 
d="M252 406q0 -113 90 -202t234 -89t235 68q90 69 109 163q18 121 -59 195t-210 104l-190 43q-332 74 -332 354q0 166 133 276t316 110t310 -112q126 -112 126 -292h-135q0 121 -87 195q-86 73 -214 73t-221 -70t-93 -180q0 -172 225 -223l193 -43q188 -43 294 -154
q105 -112 77 -300q-27 -138 -152 -240t-326 -102t-329 131t-129 295h135z" />
    <glyph glyph-name="T" unicode="T" horiz-adv-x="1159" 
d="M59 1411h1041v-135h-453v-1276h-135v1276h-453v135z" />
    <glyph glyph-name="U" unicode="U" horiz-adv-x="1380" 
d="M690 115q154 0 259 100t106 262v934h135v-934q0 -221 -144 -359t-356 -138t-355 138q-144 138 -145 359v934h136v-934q0 -162 105 -262t259 -100z" />
    <glyph glyph-name="V" unicode="V" horiz-adv-x="1128" 
d="M209 1411l354 -1190l355 1190h139l-422 -1411h-141l-424 1411h139z" />
    <glyph glyph-name="W" unicode="W" horiz-adv-x="1859" 
d="M1669 1411h143l-477 -1411h-129l-276 946l-277 -946h-129l-477 1411h143l396 -1198l293 1012h102l293 -1012z" />
    <glyph glyph-name="X" unicode="X" horiz-adv-x="1210" 
d="M686 760l496 -760h-166l-412 645l-411 -645h-164l493 760l-438 651h166l354 -534l357 534h163z" />
    <glyph glyph-name="Y" unicode="Y" horiz-adv-x="1259" 
d="M698 0h-139v655l-530 756h161l439 -608l442 608h164l-537 -756v-655z" />
    <glyph glyph-name="Z" unicode="Z" horiz-adv-x="1146" 
d="M115 1274v137h934v-135l-799 -1139h799v-137h-963v135l797 1139h-768z" />
    <glyph glyph-name="bracketleft" unicode="[" horiz-adv-x="612" 
d="M182 -463v1874h336v-137h-199v-1598h199v-139h-336z" />
    <glyph glyph-name="backslash" unicode="\" horiz-adv-x="968" 
d="M754 0l-691 1411h150l690 -1411h-149z" />
    <glyph glyph-name="bracketright" unicode="]" horiz-adv-x="612" 
d="M430 1411v-1874h-336v139h199v1598h-199v137h336z" />
    <glyph glyph-name="underscore" unicode="_" horiz-adv-x="1456" 
d="M147 -121h1162v-129h-1162v129z" />
    <glyph glyph-name="grave" unicode="`" horiz-adv-x="937" 
d="M436 1137l-172 274h168l143 -274h-139z" />
    <glyph glyph-name="a" unicode="a" horiz-adv-x="1253" 
d="M238 483q0 -160 101 -263t253 -103t255 97t103 265t-109 264q-111 97 -257 97t-246 -98t-100 -259zM1087 956v-956h-137v164q-51 -88 -151 -136t-209 -48q-209 0 -349 139t-141 362q0 223 140 359t350 137q111 0 210 -46t150 -132v157h137z" />
    <glyph glyph-name="b" unicode="b" horiz-adv-x="1253" 
d="M1016 483q0 160 -100 258q-100 99 -247 99q-146 0 -256 -96t-110 -265q-1 -168 103 -265t256 -97t253 103t101 263zM166 0v1475h137v-676q51 86 151 132t210 46q209 0 349 -136q140 -135 140 -359t-140 -363t-349 -139q-109 0 -209 48t-152 136v-164h-137z" />
    <glyph glyph-name="c" unicode="c" horiz-adv-x="1032" 
d="M598 -20q-207 0 -352 139q-146 139 -146 361t144 360t352 137q207 0 348 -129l-96 -96q-102 90 -252 90t-255 -100t-105 -261q0 -162 105 -264t255 -102t252 92l98 -96q-141 -131 -348 -131z" />
    <glyph glyph-name="d" unicode="d" horiz-adv-x="1253" 
d="M238 483q0 -160 101 -263t253 -103t255 97t103 265t-109 264q-111 97 -257 97t-246 -98t-100 -259zM1087 1475v-1475h-137v164q-51 -88 -151 -136t-209 -48q-209 0 -349 139t-141 362q0 223 140 359t350 137q111 0 210 -46t150 -132v676h137z" />
    <glyph glyph-name="e" unicode="e" horiz-adv-x="1140" 
d="M582 842q-134 0 -228 -81t-114 -216h673q-20 137 -109 217t-222 80zM584 -20q-207 0 -345 139t-139 362q0 223 138 359t345 137q208 0 339 -135t131 -361q0 -45 -2 -63h-811q18 -137 113 -220t231 -83q96 0 175 44t124 122q43 -11 137 -31q-57 -126 -174 -198t-262 -72z
" />
    <glyph glyph-name="f" unicode="f" horiz-adv-x="673" 
d="M682 1475v-129h-102q-130 0 -168 -94q-29 -71 -29 -185v-111h235v-122h-235v-834h-137v834h-187v122h187v111q0 408 334 408h102z" />
    <glyph glyph-name="g" unicode="g" horiz-adv-x="1251" 
d="M568 -342q185 0 285 119q99 119 97 397q-45 -90 -147 -142t-213 -52q-209 0 -349 136t-141 359q0 223 140 363t350 139q109 0 209 -48t151 -136v163h137v-804q0 -629 -512 -629q-125 0 -233 59t-178 178l117 68q102 -170 287 -170zM238 473q0 -160 100 -258t246 -98
t257 96q109 96 109 264t-103 265q-103 98 -255 98t-253 -104t-101 -263z" />
    <glyph glyph-name="h" unicode="h" 
d="M303 522v-522h-137v1475h137v-676q41 88 133 133t185 45q174 0 272 -112t96 -308v-557h-137v557q0 133 -60 209t-180 76t-214 -79t-95 -241z" />
    <glyph glyph-name="i" unicode="i" horiz-adv-x="466" 
d="M131 1313q0 43 31 71t74 27q44 0 74 -28q30 -29 30 -71t-31 -70t-73 -28t-74 28q-31 28 -31 71zM301 0h-135v956h135v-956z" />
    <glyph glyph-name="j" unicode="j" horiz-adv-x="468" 
d="M-133 -463v129h102q129 0 168 93q29 71 29 186v1011h137v-1011q0 -408 -334 -408h-102zM131 1313q0 43 31 71t74 27q44 0 74 -28q30 -29 30 -71t-31 -70t-73 -28t-74 28q-31 28 -31 71z" />
    <glyph glyph-name="k" unicode="k" horiz-adv-x="993" 
d="M301 0h-135v1475h135v-897l379 378h192l-409 -409l518 -547h-186l-494 522v-522z" />
    <glyph glyph-name="l" unicode="l" horiz-adv-x="466" 
d="M301 1475v-1475h-135v1475h135z" />
    <glyph glyph-name="m" unicode="m" horiz-adv-x="1828" 
d="M989 522v-522h-137v557q0 133 -60 209t-180 76t-214 -79t-95 -241v-522h-137v956h137v-157q41 84 139 131t179 47q246 0 331 -209q100 209 355 209q174 0 272 -112t96 -308v-557h-137v557q0 133 -60 209t-180 76t-214 -79t-95 -241z" />
    <glyph glyph-name="n" unicode="n" 
d="M303 522v-522h-137v956h137v-157q41 88 133 133t185 45q174 0 272 -112t96 -308v-557h-137v557q0 133 -60 209t-180 76t-214 -79t-95 -241z" />
    <glyph glyph-name="o" unicode="o" horiz-adv-x="1200" 
d="M600 115q154 0 259 102t106 264t-105 261q-106 100 -260 100t-259 -100t-105 -261q0 -162 105 -264t259 -102zM600 -20q-209 0 -354 139q-146 139 -146 361t144 360t356 137q211 0 355 -137q145 -138 145 -360t-146 -361t-354 -139z" />
    <glyph glyph-name="p" unicode="p" horiz-adv-x="1253" 
d="M670 117q146 0 246 97t100 257t-102 264q-102 105 -252 105q-152 0 -255 -98t-103 -267q0 -168 109 -263q111 -95 257 -95zM166 -463v1419h137v-165q51 88 151 137t210 49q209 0 349 -140q140 -139 140 -363t-140 -359t-349 -135q-111 0 -210 45t-151 131v-619h-137z" />
    <glyph glyph-name="q" unicode="q" horiz-adv-x="1253" 
d="M238 471q0 -160 100 -257t246 -97t257 95q109 95 109 263t-103 266q-103 99 -255 99t-253 -104t-101 -265zM1087 956v-1419h-137v619q-51 -86 -150 -131t-210 -45q-209 0 -349 135t-141 358q0 223 140 363t350 141q109 0 209 -49t151 -137v165h137z" />
    <glyph glyph-name="r" unicode="r" horiz-adv-x="772" 
d="M578 840q-137 0 -206 -138t-69 -346v-356h-137v956h137v-217q68 238 275 238q47 -1 94 -13t61 -24l-16 -133q-66 33 -139 33z" />
    <glyph glyph-name="s" unicode="s" horiz-adv-x="868" 
d="M639 260q0 115 -137 148l-133 30q-193 44 -233 173q-17 59 -6 149t100 153t208 63t201 -60q82 -62 100 -187h-133q-12 53 -58 85t-113 32t-117 -33t-58 -84q-23 -121 141 -160l131 -30q242 -57 242 -279q0 -123 -100 -202q-100 -78 -240 -78t-238 80q-100 80 -106 214
h121q43 -166 225 -165q92 0 148 42q55 42 55 109z" />
    <glyph glyph-name="t" unicode="t" horiz-adv-x="630" 
d="M367 0h-138v834h-172v122h172v359h138v-359h202v-122h-202v-834z" />
    <glyph glyph-name="u" unicode="u" 
d="M840 434v522h137v-956h-137v158q-41 -88 -133 -133t-185 -45q-174 0 -272 112t-96 307v557h137v-557q0 -133 60 -209t180 -76q121 0 215 80q94 78 94 240z" />
    <glyph glyph-name="v" unicode="v" horiz-adv-x="1034" 
d="M49 956h144l325 -796l324 796h145l-543 -956z" />
    <glyph glyph-name="w" unicode="w" horiz-adv-x="1646" 
d="M1233 0h-115l-297 768l-286 -768h-115l-369 956h146l276 -739l275 739h147l276 -739l275 739h145z" />
    <glyph glyph-name="x" unicode="x" horiz-adv-x="989" 
d="M100 956h168l226 -315l227 315h168l-311 -430l380 -526h-165l-299 412l-299 -412h-164l381 526z" />
    <glyph glyph-name="y" unicode="y" horiz-adv-x="1034" 
d="M393 -463h-141l190 465l-393 954h144l323 -778l326 778h145z" />
    <glyph glyph-name="z" unicode="z" horiz-adv-x="1013" 
d="M913 956v-122l-645 -699h645v-135h-829v125l635 696h-600v135h794z" />
    <glyph glyph-name="braceleft" unicode="{" horiz-adv-x="808" 
d="M350 281v-349q0 -118 77 -194t187 -76h111v-125h-111q-168 0 -284 110t-115 285v349q0 55 -39 98t-92 43v117q53 0 92 43t39 98v352q-2 176 115 286t284 109h111v-124h-111q-112 0 -188 -77t-76 -194v-352q0 -62 -33 -120t-88 -81q51 -17 86 -77t35 -121z" />
    <glyph glyph-name="bar" unicode="|" horiz-adv-x="466" 
d="M285 1620v-1870h-103v1870h103z" />
    <glyph glyph-name="braceright" unicode="}" horiz-adv-x="808" 
d="M459 -68v349q0 61 35 120t86 78q-55 23 -88 80t-33 121v352q0 117 -77 194t-187 77h-111v124h111q169 1 285 -109t114 -286v-352q0 -55 39 -98t92 -43v-117q-53 0 -92 -43t-39 -98v-349q0 -176 -116 -286t-283 -109h-111v125h111q111 0 187 76t77 194z" />
    <glyph glyph-name="exclamdown" unicode="&#xa1;" horiz-adv-x="479" 
d="M184 557h111l12 -1020h-135zM352 850q0 -45 -33 -76t-79 -31t-80 31q-33 31 -33 76t33 76q33 30 80 30q48 0 80 -30t32 -76z" />
    <glyph glyph-name="cent" unicode="&#xa2;" horiz-adv-x="1071" 
d="M627 1194v-217q190 -10 323 -129l-96 -96q-102 90 -252 90t-255 -100t-105 -261q0 -162 105 -264t255 -102t252 92l98 -96q-131 -121 -325 -131v-230h-103v236q-182 28 -300 162t-118 333t118 331t300 159v223h103z" />
    <glyph glyph-name="sterling" unicode="&#xa3;" horiz-adv-x="1308" 
d="M301 688v354q0 176 123 286t292 110q168 0 284 -110t116 -286h-135q0 117 -77 189q-76 72 -188 72t-196 -73t-84 -188v-354h332v-117h-332v-436h584q18 1 30 15t13 36v121h135v-121q0 -80 -52 -133t-126 -53h-920v135h201v436h-166v117h166z" />
    <glyph glyph-name="currency" unicode="&#xa4;" horiz-adv-x="1245" 
d="M227 710q0 134 80 236l-149 152l78 78l149 -152q103 80 237 80t238 -80l150 152l77 -78l-149 -152q80 -106 80 -239t-80 -236l149 -149l-77 -78l-150 149q-102 -80 -238 -80t-239 80l-147 -149l-78 78l147 149q-78 105 -78 239zM352 709q0 -113 79 -192t192 -79t191 79
t79 192q0 113 -79 191q-80 78 -192 79q-112 -1 -191 -79t-79 -191z" />
    <glyph glyph-name="yen" unicode="&#xa5;" horiz-adv-x="1341" 
d="M268 557v96h330l-530 758h161l439 -608l442 608h164l-537 -758h332v-96h-332v-203h332v-96h-332v-258h-139v258h-330v96h330v203h-330z" />
    <glyph glyph-name="brokenbar" unicode="&#xa6;" horiz-adv-x="475" 
d="M289 520v-770h-103v770h103zM186 848v772h103v-772h-103z" />
    <glyph glyph-name="section" unicode="&#xa7;" horiz-adv-x="1058" 
d="M788 240v272q0 118 -76 188t-192 70q-115 0 -178 -55v151q88 39 182 39q168 -1 284 -109t116 -284v-272q0 -176 -116 -286t-284 -110q-129 0 -231 68t-143 184l131 37q31 -72 97 -113q66 -40 161 -40q96 0 173 71q76 72 76 189zM778 1139q-66 153 -258 153
q-96 0 -173 -72t-77 -188v-272q0 -117 77 -188q77 -70 192 -70t178 55v-151q-88 -39 -182 -39q-168 1 -284 109t-116 284v272q0 176 116 286t284 109q129 1 231 -67t143 -184z" />
    <glyph glyph-name="dieresis" unicode="&#xa8;" horiz-adv-x="1062" 
d="M608 1313q0 43 31 71t74 27q43 0 73 -28q30 -29 31 -71q0 -42 -31 -70q-32 -28 -74 -28t-73 28t-31 71zM246 1313q0 43 30 71t74 27q43 0 74 -28q31 -29 31 -71t-31 -70t-74 -28t-74 28q-30 28 -30 71z" />
    <glyph glyph-name="copyright" unicode="&#xa9;" horiz-adv-x="1669" 
d="M233 702q1 -252 175 -429t426 -177t426 177t174 429t-174 430t-426 179q-252 -1 -426 -179t-175 -430zM842 326q-154 0 -259 106t-106 260t105 260t261 106t267 -122l-76 -76q-88 88 -193 88t-179 -75t-74 -181t74 -181t179 -75t197 92l74 -79q-116 -123 -270 -123z
M119 702q0 301 208 513t507 212q300 0 508 -212t208 -513t-209 -512q-209 -210 -507 -210t-507 210q-208 210 -208 512z" />
    <glyph glyph-name="ordfeminine" unicode="&#xaa;" horiz-adv-x="974" 
d="M180 516v84h625v-84h-625zM254 1046q0 -100 63 -163t157 -63t159 60q66 60 65 164q0 104 -68 165q-69 61 -160 61q-92 0 -154 -62t-62 -162zM799 1356v-625h-101v90q-82 -104 -222 -104t-232 91t-92 237q0 145 91 235t241 90t214 -98v84h101z" />
    <glyph glyph-name="guillemotleft" unicode="&#xab;" horiz-adv-x="927" 
d="M410 477l282 424h127l-282 -424l282 -424h-127zM102 477l283 424h127l-283 -424l283 -424h-127z" />
    <glyph glyph-name="logicalnot" unicode="&#xac;" horiz-adv-x="1318" 
d="M1161 721v-463h-129v334h-874v129h1003z" />
    <glyph glyph-name="registered" unicode="&#xae;" horiz-adv-x="1669" 
d="M233 702q1 -252 175 -429t426 -177t426 177t174 429t-174 430t-426 179q-252 -1 -426 -179t-175 -430zM119 702q0 301 208 513t507 212q300 0 508 -212t208 -513t-209 -512q-209 -210 -507 -210t-507 210q-208 210 -208 512zM721 940v-233h156q53 1 86 35t32 81
q0 47 -31 82q-32 35 -83 35h-160zM721 596v-260h-113v717h273q109 0 167 -68t58 -155q0 -88 -46 -152t-130 -78l188 -264h-135l-186 260h-76z" />
    <glyph glyph-name="macron" unicode="&#xaf;" horiz-adv-x="978" 
d="M246 1370h487v-129h-487v129z" />
    <glyph glyph-name="degree" unicode="&#xb0;" horiz-adv-x="749" 
d="M223 1171q0 -63 44 -107q43 -44 107 -44t108 44t44 107t-44 107t-107 45q-63 0 -108 -44q-44 -45 -44 -108zM119 1171q0 105 75 181t181 76t181 -76q75 -74 75 -180t-75 -182q-75 -75 -181 -75t-181 75t-75 181z" />
    <glyph glyph-name="plusminus" unicode="&#xb1;" horiz-adv-x="1118" 
d="M969 0h-819v129h819v-129zM494 690v324h129v-324h346v-129h-346v-325h-129v325h-344v129h344z" />
    <glyph glyph-name="twosuperior" unicode="&#xb2;" horiz-adv-x="657" 
d="M78 963v49l325 393q59 74 59 132t-40 94t-100 36t-103 -35t-51 -92l-100 25q14 96 85 153q71 58 171 58t174 -67t74 -171t-89 -207q-45 -53 -73 -87t-67 -79q-38 -45 -79 -94h307v-108h-493z" />
    <glyph glyph-name="threesuperior" unicode="&#xb3;" horiz-adv-x="665" 
d="M317 1339h-90v105h90q43 0 75 26t39 73q7 46 -23 82q-31 36 -86 42q-90 8 -144 -72q-21 17 -78 64q34 57 96 90t147 28t149 -71t60 -161q-3 -95 -95 -150q59 -20 97 -85t32 -130q-8 -102 -96 -169t-182 -60q-95 7 -160 53t-95 114q84 48 90 51q43 -94 156 -108
q68 -4 121 35t55 97t-45 102t-113 44z" />
    <glyph glyph-name="acute" unicode="&#xb4;" horiz-adv-x="937" 
d="M575 1411l-172 -274h-139l144 274h167z" />
    <glyph glyph-name="mu" unicode="&#xb5;" horiz-adv-x="1140" 
d="M178 -334v1290h137v-557q1 -133 61 -209t180 -76t214 80q94 79 94 240v522h137v-956h-137v158q-41 -88 -133 -133t-184 -45q-162 0 -232 86v-400h-137z" />
    <glyph glyph-name="paragraph" unicode="&#xb6;" horiz-adv-x="1253" 
d="M766 1411h135q113 0 193 -80t80 -192v-162h-136v162q0 57 -40 97t-97 40v-1364q0 -124 -86 -198q-86 -75 -186 -74h-113v120h113q51 0 94 36t43 83v1532zM651 1411v-1532h-135v647q-184 0 -313 129t-129 313t129 313q129 130 313 130h135z" />
    <glyph glyph-name="periodcentered" unicode="&#xb7;" horiz-adv-x="520" 
d="M147 539q0 45 33 75t80 31q47 0 80 -31q33 -32 33 -76t-33 -75t-80 -31t-80 31t-33 76z" />
    <glyph glyph-name="cedilla" unicode="&#xb8;" horiz-adv-x="1056" 
d="M616 -182l-100 235h115l80 -192q35 -82 4 -157q-31 -76 -110 -108t-151 0t-108 109q-18 47 -18 88l108 -8q4 -31 8 -39q16 -35 52 -51t70 -1q36 15 51 52t-1 72z" />
    <glyph glyph-name="onesuperior" unicode="&#xb9;" horiz-adv-x="413" 
d="M297 963h-109v665l-131 -47v105l240 88v-811z" />
    <glyph glyph-name="ordmasculine" unicode="&#xba;" horiz-adv-x="972" 
d="M176 516v84h625v-84h-625zM483 821q94 -1 162 63t68 166t-67 163q-67 63 -163 63q-95 0 -161 -62t-66 -164q0 -101 66 -165t161 -64zM483 721q-137 0 -232 92q-95 91 -95 237t95 235t232 89t233 -89t95 -234q0 -145 -95 -238q-96 -92 -233 -92z" />
    <glyph glyph-name="guillemotright" unicode="&#xbb;" horiz-adv-x="927" 
d="M518 477l-282 -424h-127l282 424l-282 424h127zM825 477l-282 -424h-127l282 424l-282 424h127z" />
    <glyph glyph-name="onequarter" unicode="&#xbc;" horiz-adv-x="1568" 
d="M1221 1378l-918 -1398h-135l917 1398h136zM340 559h-109v666l-131 -47v104l240 88v-811zM1485 166h-117v-166h-108v166h-418l444 637h82v-535h117v-102zM1260 268v338l-232 -338h232z" />
    <glyph glyph-name="onehalf" unicode="&#xbd;" horiz-adv-x="1572" 
d="M1198 1378l-917 -1398h-136l918 1398h135zM969 0v49l325 393q60 74 60 132t-41 94t-101 37q-60 0 -102 -35q-43 -35 -51 -92l-101 24q14 96 85 154t172 57q101 0 175 -67t72 -171q0 -104 -88 -206q-45 -53 -74 -87q-28 -34 -66 -79t-79 -94h307v-109h-493zM346 559h-108
v666l-132 -47v104l240 88v-811z" />
    <glyph glyph-name="threequarters" unicode="&#xbe;" horiz-adv-x="1658" 
d="M453 -20h-136l918 1398h135zM354 936h-90v104h90q43 0 75 27t39 73t-24 82t-86 42q-90 8 -143 -72q-21 16 -78 63q33 57 95 91t148 28t148 -72t60 -160q-2 -95 -94 -151q59 -20 97 -85t32 -130q-7 -102 -95 -169t-183 -59t-160 52q-65 45 -95 115l90 51q43 -94 156 -109
q68 -4 121 35q53 40 55 98t-45 102t-113 44zM1454 166v-166h-108v166h-418l444 637h82v-535h117v-102h-117zM1346 268v338l-232 -338h232z" />
    <glyph glyph-name="questiondown" unicode="&#xbf;" horiz-adv-x="970" 
d="M723 870q0 -46 -33 -76t-80 -30t-80 31q-32 31 -32 75t32 76q33 31 80 31t80 -31t33 -76zM754 -74h135q0 -176 -116 -286t-285 -109q-170 0 -292 110t-122 285q0 142 83 244t210 139q84 25 130 73t46 136v60h135v-60q0 -256 -270 -338q-84 -27 -142 -94q-57 -68 -57 -172
t84 -176q83 -72 195 -72t189 72t77 188z" />
    <glyph glyph-name="Agrave" unicode="&#xc0;" horiz-adv-x="1306" 
d="M584 1546l-172 275h168l143 -275h-139zM653 1223l-278 -725h557zM39 0l543 1411h143l543 -1411h-146l-143 371h-653l-142 -371h-145z" />
    <glyph glyph-name="Aacute" unicode="&#xc1;" horiz-adv-x="1306" 
d="M889 1821l-172 -275h-139l143 275h168zM932 498l-279 725l-278 -725h557zM184 0h-145l543 1411h143l543 -1411h-146l-143 371h-653z" />
    <glyph glyph-name="Acircumflex" unicode="&#xc2;" horiz-adv-x="1306" 
d="M797 1546l-146 176l-143 -176h-139l194 275h178l195 -275h-139zM932 498l-279 725l-278 -725h557zM184 0h-145l543 1411h143l543 -1411h-146l-143 371h-653z" />
    <glyph glyph-name="Atilde" unicode="&#xc3;" horiz-adv-x="1306" 
d="M560 1692q-26 0 -48 -24t-23 -69h-104q6 115 57 168q100 104 222 11q54 -43 80 -43t48 20t23 66h105q-6 -115 -56 -165t-110 -50q-58 0 -113 43t-81 43zM932 498l-279 725l-278 -725h557zM184 0h-145l543 1411h143l543 -1411h-146l-143 371h-653z" />
    <glyph glyph-name="Adieresis" unicode="&#xc4;" horiz-adv-x="1306" 
d="M729 1722q0 43 31 71t74 28q44 0 74 -28t30 -71q0 -42 -31 -70t-73 -28t-74 28q-31 28 -31 70zM367 1722q0 43 30 71q31 28 74 28t74 -28t31 -71q0 -42 -32 -70q-30 -28 -73 -28t-73 28t-31 70zM653 1223l-278 -725h557zM39 0l543 1411h143l543 -1411h-146l-143 371h-653
l-142 -371h-145z" />
    <glyph glyph-name="Aring" unicode="&#xc5;" horiz-adv-x="1306" 
d="M653 1837q-39 -1 -65 -27t-27 -66q0 -40 27 -66q28 -26 66 -26t65 28q27 26 26 65t-27 65t-65 27zM455 1743q0 84 57 142q57 59 140 59q84 0 142 -58t58 -142q0 -83 -58 -140q-58 -58 -142 -58t-140 56q-57 56 -57 141zM653 1223l-278 -725h557zM39 0l543 1411h143
l543 -1411h-146l-143 371h-653l-142 -371h-145z" />
    <glyph glyph-name="AE" unicode="&#xc6;" horiz-adv-x="1929" 
d="M989 498v778l-493 -778h493zM1794 1411v-135h-670v-516h586v-135h-586v-490h693v-135h-828v371h-573l-236 -371h-160l891 1411h883z" />
    <glyph glyph-name="Ccedilla" unicode="&#xc7;" horiz-adv-x="1361" 
d="M113 716q0 292 193 502q194 210 491 210t501 -211l-94 -95q-170 170 -408 170t-394 -171q-154 -171 -154 -419t154 -418t396 -169q240 0 408 172l94 -97q-195 -201 -479 -210l49 -119q35 -82 4 -157q-32 -76 -110 -108t-151 0t-107 109q-18 47 -19 88l109 -8
q0 -63 59 -90q35 -16 71 -1t51 52t-1 72l-71 168q-260 34 -426 236t-166 494z" />
    <glyph glyph-name="Egrave" unicode="&#xc8;" horiz-adv-x="1144" 
d="M563 1546l-172 275h168l143 -275h-139zM1010 1411v-135h-670v-516h586v-135h-586v-490h692v-135h-827v1411h805z" />
    <glyph glyph-name="Eacute" unicode="&#xc9;" horiz-adv-x="1144" 
d="M799 1821l-172 -275h-140l144 275h168zM205 1411h805v-135h-670v-516h586v-135h-586v-490h692v-135h-827v1411z" />
    <glyph glyph-name="Ecircumflex" unicode="&#xca;" horiz-adv-x="1144" 
d="M723 1546l-145 176l-144 -176h-139l194 275h179l194 -275h-139zM205 1411h805v-135h-670v-516h586v-135h-586v-490h692v-135h-827v1411z" />
    <glyph glyph-name="Edieresis" unicode="&#xcb;" horiz-adv-x="1144" 
d="M653 1722q0 43 31 71t74 28q44 0 74 -28t30 -71q0 -42 -31 -70t-73 -28t-74 28q-31 28 -31 70zM291 1722q0 43 31 71q32 28 74 28t73 -28t31 -71q0 -42 -31 -70t-74 -28t-73 28t-31 70zM1010 1411v-135h-670v-516h586v-135h-586v-490h692v-135h-827v1411h805z" />
    <glyph glyph-name="Igrave" unicode="&#xcc;" horiz-adv-x="544" 
d="M201 1546l-172 275h168l143 -275h-139zM340 0h-135v1411h135v-1411z" />
    <glyph glyph-name="Iacute" unicode="&#xcd;" horiz-adv-x="544" 
d="M514 1821l-172 -275h-139l143 275h168zM340 1411v-1411h-135v1411h135z" />
    <glyph glyph-name="Icircumflex" unicode="&#xce;" horiz-adv-x="544" 
d="M418 1546l-146 176l-143 -176h-139l194 275h178l195 -275h-139zM340 1411v-1411h-135v1411h135z" />
    <glyph glyph-name="Idieresis" unicode="&#xcf;" horiz-adv-x="544" 
d="M350 1722q0 43 31 71t74 28t73 -28t31 -71q0 -42 -31 -70q-32 -28 -74 -28t-73 28t-31 70zM-12 1722q0 43 30 71q31 28 74 28t74 -28t31 -71q0 -42 -31 -70t-74 -28q-44 0 -74 28t-30 70zM340 0h-135v1411h135v-1411z" />
    <glyph glyph-name="Eth" unicode="&#xd0;" horiz-adv-x="1488" 
d="M350 768h352v-125h-352v-508h395q236 0 363 157q127 156 127 410t-127 414t-363 160h-395v-508zM745 0h-530v643h-201v125h201v643h530q291 0 458 -199t167 -509q0 -311 -167 -507t-458 -196z" />
    <glyph glyph-name="Ntilde" unicode="&#xd1;" horiz-adv-x="1402" 
d="M804 1606q-58 0 -114 43t-81 43t-47 -24t-23 -69h-105q6 115 58 168q101 104 221 11q55 -43 81 -43t48 20t22 66h105q-7 -115 -57 -165t-108 -50zM1198 0h-139l-719 1182v-1182h-135v1411h145l713 -1173v1173h135v-1411z" />
    <glyph glyph-name="Ograve" unicode="&#xd2;" horiz-adv-x="1640" 
d="M764 1546l-172 275h168l143 -275h-139zM246 702q0 -246 165 -416t409 -171q244 0 409 171q166 170 166 416t-166 418t-409 172q-242 0 -408 -172t-166 -418zM111 703q0 302 204 514q205 211 504 211t505 -212q206 -210 206 -512t-206 -514q-206 -210 -505 -210t-504 210
q-204 211 -204 513z" />
    <glyph glyph-name="Oacute" unicode="&#xd3;" horiz-adv-x="1640" 
d="M1036 1821l-172 -275h-139l143 275h168zM246 702q0 -246 165 -416t409 -171q244 0 409 171q166 170 166 416t-166 418t-409 172q-242 0 -408 -172t-166 -418zM111 703q0 302 204 514q205 211 504 211t505 -212q206 -210 206 -512t-206 -514q-206 -210 -505 -210t-504 210
q-204 211 -204 513z" />
    <glyph glyph-name="Ocircumflex" unicode="&#xd4;" horiz-adv-x="1640" 
d="M965 1546l-146 176l-143 -176h-139l194 275h178l195 -275h-139zM246 702q0 -246 165 -416t409 -171q244 0 409 171q166 170 166 416t-166 418t-409 172q-242 0 -408 -172t-166 -418zM111 703q0 302 204 514q205 211 504 211t505 -212q206 -210 206 -512t-206 -514
q-206 -210 -505 -210t-504 210q-204 211 -204 513z" />
    <glyph glyph-name="Otilde" unicode="&#xd5;" horiz-adv-x="1640" 
d="M728 1692q-26 0 -48 -24t-23 -69h-104q6 115 57 168q50 53 108 53t113 -42q55 -43 81 -43t48 20t23 66h104q-6 -115 -56 -165q-51 -50 -109 -50t-113 43t-81 43zM246 702q0 -246 165 -416t409 -171q244 0 409 171q166 170 166 416t-166 418t-409 172q-242 0 -408 -172
t-166 -418zM111 703q0 302 204 514q205 211 504 211t505 -212q206 -210 206 -512t-206 -514q-206 -210 -505 -210t-504 210q-204 211 -204 513z" />
    <glyph glyph-name="Odieresis" unicode="&#xd6;" horiz-adv-x="1640" 
d="M897 1722q0 43 31 71q32 28 74 28t73 -28t31 -71q0 -42 -31 -70t-74 -28t-73 28t-31 70zM535 1722q0 43 30 71q31 28 74 28t74 -28t31 -71q0 -42 -32 -70q-30 -28 -73 -28t-73 28t-31 70zM246 702q0 -246 165 -416t409 -171q244 0 409 171q166 170 166 416t-166 418
t-409 172q-242 0 -408 -172t-166 -418zM111 703q0 302 204 514q205 211 504 211t505 -212q206 -210 206 -512t-206 -514q-206 -210 -505 -210t-504 210q-204 211 -204 513z" />
    <glyph glyph-name="multiply" unicode="&#xd7;" horiz-adv-x="1001" 
d="M410 563l-271 271l92 90l269 -269l272 271l90 -92l-270 -271l270 -270l-90 -92l-272 270l-269 -268l-92 90z" />
    <glyph glyph-name="Oslash" unicode="&#xd8;" horiz-adv-x="1636" 
d="M817 115q244 0 410 171t166 400t-129 391l-811 -833q159 -129 364 -129zM802 1292q-226 0 -392 -172t-166 -406t133 -395l813 834q-162 139 -388 139zM109 716q0 290 204 501q205 211 489 211t482 -177l178 183l76 -76l-178 -184q168 -205 168 -489t-206 -495t-505 -210
q-262 -1 -459 167l-163 -170l-76 76l164 170q-174 203 -174 493z" />
    <glyph glyph-name="Ugrave" unicode="&#xd9;" horiz-adv-x="1380" 
d="M625 1546l-172 275h168l143 -275h-139zM690 115q154 0 259 100t106 262v934h135v-934q0 -221 -144 -359t-356 -138t-355 138q-144 138 -145 359v934h136v-934q0 -162 105 -262t259 -100z" />
    <glyph glyph-name="Uacute" unicode="&#xda;" horiz-adv-x="1380" 
d="M913 1821l-172 -275h-139l143 275h168zM690 115q154 0 259 100t106 262v934h135v-934q0 -221 -144 -359t-356 -138t-355 138q-144 138 -145 359v934h136v-934q0 -162 105 -262t259 -100z" />
    <glyph glyph-name="Ucircumflex" unicode="&#xdb;" horiz-adv-x="1380" 
d="M834 1546l-146 176l-143 -176h-139l194 275h178l195 -275h-139zM690 115q154 0 259 100t106 262v934h135v-934q0 -221 -144 -359t-356 -138t-355 138q-144 138 -145 359v934h136v-934q0 -162 105 -262t259 -100z" />
    <glyph glyph-name="Udieresis" unicode="&#xdc;" horiz-adv-x="1380" 
d="M766 1722q0 43 31 71t73 28t74 -28q31 -28 31 -71q0 -42 -31 -70t-74 -28q-44 0 -74 28t-30 70zM403 1722q0 43 31 71t74 28t74 -28q30 -28 30 -71q0 -42 -30 -70t-74 -28q-43 0 -74 28t-31 70zM690 115q154 0 259 100t106 262v934h135v-934q0 -221 -144 -359t-356 -138
t-355 138q-144 138 -145 359v934h136v-934q0 -162 105 -262t259 -100z" />
    <glyph glyph-name="Yacute" unicode="&#xdd;" horiz-adv-x="1259" 
d="M864 1821l-172 -275h-139l143 275h168zM698 0h-139v655l-530 756h161l439 -608l442 608h164l-537 -756v-655z" />
    <glyph glyph-name="Thorn" unicode="&#xde;" horiz-adv-x="1171" 
d="M342 430h332q121 0 203 82q81 82 81 212t-81 210q-82 80 -203 80h-332v-584zM674 295h-332v-295h-137v1411h137v-262h332q178 0 299 -117t121 -307t-121 -310t-299 -120z" />
    <glyph glyph-name="germandbls" unicode="&#xdf;" horiz-adv-x="1161" 
d="M166 0v1030q0 198 112 310t289 112h21q154 0 257 -100t103 -244q0 -84 -42 -156t-115 -108q121 -29 197 -149t75 -251q0 -192 -129 -324t-330 -132q-104 -4 -211 41v129q90 -41 220 -41t223 96q92 96 92 228q0 131 -94 231t-232 100h-70v123h66q94 0 155 61q60 62 60 152
t-63 150t-162 65h-21q-115 0 -191 -79t-75 -214v-1030h-135z" />
    <glyph glyph-name="agrave" unicode="&#xe0;" horiz-adv-x="1253" 
d="M238 483q0 -160 101 -263t253 -103t255 97t103 265t-109 264q-111 97 -257 97t-246 -98t-100 -259zM1087 956v-956h-137v164q-51 -88 -151 -136t-209 -48q-209 0 -349 139t-141 362q0 223 140 359t350 137q111 0 210 -46t150 -132v157h137zM573 1137l-172 274h168
l144 -274h-140z" />
    <glyph glyph-name="aacute" unicode="&#xe1;" horiz-adv-x="1253" 
d="M238 483q0 -160 101 -263t253 -103t255 97t103 265t-109 264q-111 97 -257 97t-246 -98t-100 -259zM1087 956v-956h-137v164q-51 -88 -151 -136t-209 -48q-209 0 -349 139t-141 362q0 223 140 359t350 137q111 0 210 -46t150 -132v157h137zM831 1411l-172 -274h-139
l144 274h167z" />
    <glyph glyph-name="acircumflex" unicode="&#xe2;" horiz-adv-x="1253" 
d="M238 483q0 -160 101 -263t253 -103t255 97t103 265t-109 264q-111 97 -257 97t-246 -98t-100 -259zM1087 956v-956h-137v164q-51 -88 -151 -136t-209 -48q-209 0 -349 139t-141 362q0 223 140 359t350 137q111 0 210 -46t150 -132v157h137zM768 1137l-145 176l-144 -176
h-139l195 274h178l194 -274h-139z" />
    <glyph glyph-name="atilde" unicode="&#xe3;" horiz-adv-x="1253" 
d="M238 483q0 -160 101 -263t253 -103t255 97t103 265t-109 264q-111 97 -257 97t-246 -98t-100 -259zM1087 956v-956h-137v164q-51 -88 -151 -136t-209 -48q-209 0 -349 139t-141 362q0 223 140 359t350 137q111 0 210 -46t150 -132v157h137zM726 1196q-58 0 -114 43
t-81 43t-47 -24t-23 -68h-105q6 115 58 168t108 53t112 -43t82 -43q26 1 48 21t22 65h105q-6 -115 -56 -165q-51 -50 -109 -50z" />
    <glyph glyph-name="adieresis" unicode="&#xe4;" horiz-adv-x="1253" 
d="M238 483q0 -160 101 -263t253 -103t255 97t103 265t-109 264q-111 97 -257 97t-246 -98t-100 -259zM1087 956v-956h-137v164q-51 -88 -151 -136t-209 -48q-209 0 -349 139t-141 362q0 223 140 359t350 137q111 0 210 -46t150 -132v157h137zM700 1313q0 43 31 71t74 27
q43 0 74 -28q31 -29 31 -71t-32 -70q-30 -28 -73 -28t-74 28t-31 71zM338 1313q0 43 31 71t73 27q42 0 74 -28q31 -29 31 -71t-31 -70t-74 -28q-44 0 -74 28t-30 71z" />
    <glyph glyph-name="aring" unicode="&#xe5;" horiz-adv-x="1253" 
d="M238 483q0 -160 101 -263t253 -103t255 97t103 265t-109 264q-111 97 -257 97t-246 -98t-100 -259zM1087 956v-956h-137v164q-51 -88 -151 -136t-209 -48q-209 0 -349 139t-141 362q0 223 140 359t350 137q111 0 210 -46t150 -132v157h137zM532 1334q0 -40 27 -66t66 -25
q39 0 65 27q26 28 27 66q0 38 -27 65q-28 27 -66 27t-65 -28q-27 -26 -27 -66zM426 1333q0 85 57 143t141 58t141 -58q58 -58 58 -142t-58 -140q-58 -57 -141 -57t-141 56q-57 56 -57 140z" />
    <glyph glyph-name="ae" unicode="&#xe6;" horiz-adv-x="1992" 
d="M1434 842q-134 0 -228 -81t-114 -216h673q-20 137 -109 217t-222 80zM238 483q0 -160 101 -263t253 -103t255 97t103 265t-109 264q-111 97 -257 97t-246 -98t-100 -259zM1087 0h-137v164q-51 -88 -151 -136t-209 -48q-209 0 -349 139t-141 362q0 223 140 359t350 137
q111 0 210 -46t150 -132v157h137v-118q133 139 345 139t342 -135q131 -135 131 -361q0 -45 -2 -63h-811q18 -137 113 -220t231 -83q96 0 175 44t124 122q43 -11 137 -31q-57 -127 -174 -199t-262 -71q-214 0 -349 141v-121z" />
    <glyph glyph-name="ccedilla" unicode="&#xe7;" horiz-adv-x="1034" 
d="M100 489q0 213 144 351t352 137q207 0 348 -129l-96 -96q-102 90 -252 90t-255 -100t-105 -261q0 -162 105 -264t255 -102t252 92l98 -96q-123 -113 -299 -129l51 -121q35 -82 4 -157q-32 -76 -110 -108t-151 0t-107 109q-18 47 -19 88l109 -8q2 -6 3 -19q4 -47 47 -67
q44 -20 80 -5t51 52t-1 72l-72 166q-186 24 -309 158t-123 347z" />
    <glyph glyph-name="egrave" unicode="&#xe8;" horiz-adv-x="1140" 
d="M518 1137l-172 274h168l143 -274h-139zM582 842q-134 0 -228 -81t-114 -216h673q-20 137 -109 217t-222 80zM584 -20q-207 0 -345 139t-139 362q0 223 138 359t345 137q208 0 339 -135t131 -361q0 -45 -2 -63h-811q18 -137 113 -220t231 -83q96 0 175 44t124 122
q43 -11 137 -31q-57 -126 -174 -198t-262 -72z" />
    <glyph glyph-name="eacute" unicode="&#xe9;" horiz-adv-x="1140" 
d="M805 1411l-172 -274h-139l143 274h168zM582 842q-134 0 -228 -81t-114 -216h673q-20 137 -109 217t-222 80zM584 -20q-207 0 -345 139t-139 362q0 223 138 359t345 137q208 0 339 -135t131 -361q0 -45 -2 -63h-811q18 -137 113 -220t231 -83q96 0 175 44t124 122
q43 -11 137 -31q-57 -126 -174 -198t-262 -72z" />
    <glyph glyph-name="ecircumflex" unicode="&#xea;" horiz-adv-x="1140" 
d="M721 1137l-146 176l-143 -176h-139l194 274h179l194 -274h-139zM582 842q-134 0 -228 -81t-114 -216h673q-20 137 -109 217t-222 80zM584 -20q-207 0 -345 139t-139 362q0 223 138 359t345 137q208 0 339 -135t131 -361q0 -45 -2 -63h-811q18 -137 113 -220t231 -83
q96 0 175 44t124 122q43 -11 137 -31q-57 -126 -174 -198t-262 -72z" />
    <glyph glyph-name="edieresis" unicode="&#xeb;" horiz-adv-x="1140" 
d="M653 1313q0 43 31 71t74 27q44 0 74 -28q30 -29 30 -71t-31 -70t-73 -28t-74 28q-31 28 -31 71zM291 1313q0 43 31 71q32 28 74 27q42 0 73 -28q31 -29 31 -71t-31 -70t-74 -28t-73 28t-31 71zM582 842q-134 0 -228 -81t-114 -216h673q-20 137 -109 217t-222 80zM584 -20
q-207 0 -345 139t-139 362q0 223 138 359t345 137q208 0 339 -135t131 -361q0 -45 -2 -63h-811q18 -137 113 -220t231 -83q96 0 175 44t124 122q43 -11 137 -31q-57 -126 -174 -198t-262 -72z" />
    <glyph glyph-name="igrave" unicode="&#xec;" horiz-adv-x="466" 
d="M160 1137l-172 274h168l143 -274h-139zM301 0h-135v956h135v-956z" />
    <glyph glyph-name="iacute" unicode="&#xed;" horiz-adv-x="466" 
d="M475 1411l-172 -274h-139l143 274h168zM301 956v-956h-135v956h135z" />
    <glyph glyph-name="icircumflex" unicode="&#xee;" horiz-adv-x="466" 
d="M381 1137l-145 176l-144 -176h-139l194 274h179l194 -274h-139zM301 956v-956h-135v956h135z" />
    <glyph glyph-name="idieresis" unicode="&#xef;" horiz-adv-x="466" 
d="M313 1313q0 43 31 71t74 27q43 0 74 -28q30 -29 30 -71t-30 -70t-74 -28q-43 0 -74 28t-31 71zM-49 1313q0 43 31 71q32 28 74 27q42 0 73 -28q31 -29 31 -71t-31 -70t-74 -28t-73 28t-31 71zM301 0h-135v956h135v-956z" />
    <glyph glyph-name="eth" unicode="&#xf0;" horiz-adv-x="1202" 
d="M600 115q154 0 259 102t106 264t-105 261q-106 100 -260 100t-259 -100t-105 -261q0 -162 105 -264t259 -102zM1100 481q0 -223 -146 -362t-354 -139q-209 0 -354 139q-146 139 -146 361t142 360t342 137q61 0 114 -21l-202 252l-181 -114l-51 77l174 111l-164 193h168
l107 -123l139 88l62 -72l-142 -88l398 -498q94 -127 94 -301z" />
    <glyph glyph-name="ntilde" unicode="&#xf1;" 
d="M675 1196q-57 0 -113 43t-82 43t-48 -24t-22 -68h-105q6 115 57 168q50 53 108 53t114 -43t81 -43q25 1 47 21t23 65h105q-6 -115 -56 -165t-109 -50zM303 522v-522h-137v956h137v-157q41 88 133 133t185 45q174 0 272 -112t96 -308v-557h-137v557q0 133 -60 209t-180 76
t-214 -79t-95 -241z" />
    <glyph glyph-name="ograve" unicode="&#xf2;" horiz-adv-x="1200" 
d="M537 1137l-172 274h167l144 -274h-139zM600 115q154 0 259 102t106 264t-105 261q-106 100 -260 100t-259 -100t-105 -261q0 -162 105 -264t259 -102zM600 -20q-209 0 -354 139q-146 139 -146 361t144 360t356 137q211 0 355 -137q145 -138 145 -360t-146 -361t-354 -139
z" />
    <glyph glyph-name="oacute" unicode="&#xf3;" horiz-adv-x="1200" 
d="M827 1411l-172 -274h-139l143 274h168zM600 115q154 0 259 102t106 264t-105 261q-106 100 -260 100t-259 -100t-105 -261q0 -162 105 -264t259 -102zM600 -20q-209 0 -354 139q-146 139 -146 361t144 360t356 137q211 0 355 -137q145 -138 145 -360t-146 -361t-354 -139
z" />
    <glyph glyph-name="ocircumflex" unicode="&#xf4;" horiz-adv-x="1200" 
d="M743 1137l-145 176l-143 -176h-140l195 274h178l195 -274h-140zM600 115q154 0 259 102t106 264t-105 261q-106 100 -260 100t-259 -100t-105 -261q0 -162 105 -264t259 -102zM600 -20q-209 0 -354 139q-146 139 -146 361t144 360t356 137q211 0 355 -137
q145 -138 145 -360t-146 -361t-354 -139z" />
    <glyph glyph-name="otilde" unicode="&#xf5;" horiz-adv-x="1200" 
d="M507 1282q-25 0 -47 -24t-24 -68h-104q6 115 57 168t109 53t112 -43q55 -43 81 -43q25 1 47 21t24 65h104q-6 -115 -56 -165t-108 -50t-114 43q-55 43 -81 43zM600 115q154 0 259 102t106 264t-105 261q-106 100 -260 100t-259 -100t-105 -261q0 -162 105 -264t259 -102z
M600 -20q-209 0 -354 139q-146 139 -146 361t144 360t356 137q211 0 355 -137q145 -138 145 -360t-146 -361t-354 -139z" />
    <glyph glyph-name="odieresis" unicode="&#xf6;" horiz-adv-x="1200" 
d="M676 1313q0 43 31 71t73 27q42 0 74 -28q31 -29 31 -71t-31 -70t-74 -28q-44 0 -74 28t-30 71zM313 1313q0 43 31 71t74 27q43 0 74 -28q30 -29 30 -71t-30 -70t-74 -28q-43 0 -74 28t-31 71zM600 115q154 0 259 102t106 264t-105 261q-106 100 -260 100t-259 -100
t-105 -261q0 -162 105 -264t259 -102zM600 -20q-209 0 -354 139q-146 139 -146 361t144 360t356 137q211 0 355 -137q145 -138 145 -360t-146 -361t-354 -139z" />
    <glyph glyph-name="divide" unicode="&#xf7;" horiz-adv-x="1187" 
d="M1030 606v-129h-872v129h872zM481 870q0 45 33 76t80 31t80 -31t33 -76q0 -46 -33 -76t-80 -30t-80 30t-33 76zM481 213q0 45 33 76t80 31t80 -32q33 -30 33 -75t-33 -76t-80 -31t-80 31t-33 76z" />
    <glyph glyph-name="oslash" unicode="&#xf8;" horiz-adv-x="1196" 
d="M582 842q-138 0 -243 -100t-105 -244t67 -238l508 520q-89 62 -227 62zM612 115q140 0 245 102q105 103 105 249t-75 243l-510 -525q95 -69 235 -69zM598 977q174 0 307 -98l103 106l75 -76l-100 -102q115 -135 115 -342t-146 -346t-340 -139q-196 0 -331 106l-105 -109
l-76 76l105 109q-107 136 -107 338t144 340t356 137z" />
    <glyph glyph-name="ugrave" unicode="&#xf9;" 
d="M512 1137l-172 274h168l143 -274h-139zM840 434v522h137v-956h-137v158q-41 -88 -133 -133t-185 -45q-174 0 -272 112t-96 307v557h137v-557q0 -133 60 -209t180 -76q121 0 215 80q94 78 94 240z" />
    <glyph glyph-name="uacute" unicode="&#xfa;" 
d="M788 1411l-172 -274h-139l144 274h167zM840 434v522h137v-956h-137v158q-41 -88 -133 -133t-185 -45q-174 0 -272 112t-96 307v557h137v-557q0 -133 60 -209t180 -76q121 0 215 80q94 78 94 240z" />
    <glyph glyph-name="ucircumflex" unicode="&#xfb;" 
d="M729 1137l-145 176l-144 -176h-139l195 274h178l194 -274h-139zM840 434v522h137v-956h-137v158q-41 -88 -133 -133t-185 -45q-174 0 -272 112t-96 307v557h137v-557q0 -133 60 -209t180 -76q121 0 215 80q94 78 94 240z" />
    <glyph glyph-name="udieresis" unicode="&#xfc;" 
d="M662 1313q0 43 30 71t74 27q43 0 74 -28q30 -29 30 -71t-30 -70t-74 -28q-43 0 -74 28q-30 28 -30 71zM299 1313q0 43 31 71q32 28 74 27q42 0 73 -28q31 -29 31 -71t-31 -70t-74 -28t-73 28t-31 71zM840 434v522h137v-956h-137v158q-41 -88 -133 -133t-185 -45
q-174 0 -272 112t-96 307v557h137v-557q0 -133 60 -209t180 -76q121 0 215 80q94 78 94 240z" />
    <glyph glyph-name="yacute" unicode="&#xfd;" horiz-adv-x="1034" 
d="M727 1411l-172 -274h-139l143 274h168zM393 -463h-141l190 465l-393 954h144l323 -778l326 778h145z" />
    <glyph glyph-name="thorn" unicode="&#xfe;" horiz-adv-x="1253" 
d="M1016 485q0 160 -100 258q-100 99 -247 99q-146 0 -256 -96t-110 -265q-1 -168 103 -265t256 -97t253 103t101 263zM166 -463v1938h137v-674q51 86 151 132t210 46q209 0 349 -136q140 -135 140 -359t-140 -363t-349 -139q-109 0 -209 48t-152 136v-629h-137z" />
    <glyph glyph-name="ydieresis" unicode="&#xff;" horiz-adv-x="1034" 
d="M600 1313q0 43 31 71t74 27q43 0 73 -28q30 -29 31 -71q0 -42 -31 -70q-32 -28 -74 -28t-73 28t-31 71zM238 1313q0 43 30 71t74 27q43 0 74 -28q30 -29 30 -71t-30 -70t-74 -28q-43 0 -74 28q-30 28 -30 71zM252 -463l190 465l-393 954h144l323 -778l326 778h145
l-594 -1419h-141z" />
    <glyph glyph-name="Amacron" unicode="&#x100;" horiz-adv-x="1306" 
d="M410 1825h487v-129h-487v129zM932 498l-279 725l-278 -725h557zM184 0h-145l543 1411h143l543 -1411h-146l-143 371h-653z" />
    <glyph glyph-name="amacron" unicode="&#x101;" horiz-adv-x="1253" 
d="M238 483q0 -160 101 -263t253 -103t255 97t103 265t-109 264q-111 97 -257 97t-246 -98t-100 -259zM1087 956v-956h-137v164q-51 -88 -151 -136t-209 -48q-209 0 -349 139t-141 362q0 223 140 359t350 137q111 0 210 -46t150 -132v157h137zM381 1370h487v-129h-487v129z
" />
    <glyph glyph-name="Abreve" unicode="&#x102;" horiz-adv-x="1306" 
d="M399 1866h107q10 -62 48 -102t102 -40t102 41q37 41 43 101h106q1 -115 -69 -186q-70 -70 -191 -70t-185 75t-63 181zM653 1223l-278 -725h557zM39 0l543 1411h143l543 -1411h-146l-143 371h-653l-142 -371h-145z" />
    <glyph glyph-name="abreve" unicode="&#x103;" horiz-adv-x="1253" 
d="M238 483q0 -160 101 -263t253 -103t255 97t103 265t-109 264q-111 97 -257 97t-246 -98t-100 -259zM1087 956v-956h-137v164q-51 -88 -151 -136t-209 -48q-209 0 -349 139t-141 362q0 223 140 359t350 137q111 0 210 -46t150 -132v157h137zM371 1411h106q10 -63 48 -102
t103 -39q66 0 102 41t42 100h107q0 -115 -70 -185q-71 -70 -191 -71q-120 0 -184 75q-63 75 -63 181z" />
    <glyph glyph-name="Aogonek" unicode="&#x104;" horiz-adv-x="1306" 
d="M1067 -139l55 139l-143 371h-653l-142 -371h-145l543 1411h143l543 -1411h-56l-51 -182q-10 -39 3 -74t48 -50t70 1q59 27 59 90l109 8q0 -43 -18 -88q-35 -77 -108 -109q-74 -32 -152 1t-109 107t4 157zM932 498l-279 725l-278 -725h557z" />
    <glyph glyph-name="aogonek" unicode="&#x105;" horiz-adv-x="1253" 
d="M238 483q0 -160 101 -263t253 -103t255 97t103 265t-109 264q-111 97 -257 97t-246 -98t-100 -259zM1087 956v-956h-49l-37 -182q-18 -92 52 -125q35 -14 69 2q60 28 60 90l108 8q0 -43 -18 -88q-35 -77 -108 -109t-150 1q-78 31 -105 105t-2 159l43 139v164
q-51 -88 -151 -136t-209 -48q-209 0 -349 139t-141 362q0 223 140 359t350 137q111 0 210 -46t150 -132v157h137z" />
    <glyph glyph-name="Cacute" unicode="&#x106;" horiz-adv-x="1359" 
d="M961 1866l-173 -275h-139l144 275h168zM794 1292q-238 0 -394 -171q-154 -171 -154 -419t154 -418t396 -169q240 0 408 172l94 -97q-206 -210 -502 -210t-491 210t-195 513q0 304 194 515q194 210 491 210t501 -211l-94 -95q-170 170 -408 170z" />
    <glyph glyph-name="cacute" unicode="&#x107;" horiz-adv-x="1032" 
d="M737 1411l-172 -274h-139l143 274h168zM598 -20q-207 0 -352 139q-146 139 -146 361t144 360t352 137q207 0 348 -129l-96 -96q-102 90 -252 90t-255 -100t-105 -261q0 -162 105 -264t255 -102t252 92l98 -96q-141 -131 -348 -131z" />
    <glyph glyph-name="Ccircumflex" unicode="&#x108;" horiz-adv-x="1359" 
d="M922 1591l-146 176l-143 -176h-139l194 275h178l195 -275h-139zM794 1292q-238 0 -394 -171q-154 -171 -154 -419t154 -418t396 -169q240 0 408 172l94 -97q-206 -210 -502 -210t-491 210t-195 513q0 304 194 515q194 210 491 210t501 -211l-94 -95q-170 170 -408 170z
" />
    <glyph glyph-name="ccircumflex" unicode="&#x109;" horiz-adv-x="1032" 
d="M713 1137l-146 176l-143 -176h-139l194 274h178l195 -274h-139zM598 -20q-207 0 -352 139q-146 139 -146 361t144 360t352 137q207 0 348 -129l-96 -96q-102 90 -252 90t-255 -100t-105 -261q0 -162 105 -264t255 -102t252 92l98 -96q-141 -131 -348 -131z" />
    <glyph glyph-name="Cdotaccent" unicode="&#x10a;" horiz-adv-x="1359" 
d="M647 1767q0 43 31 71t74 28q44 0 74 -28t30 -71t-31 -71t-73 -27q-42 -1 -74 27q-31 28 -31 71zM794 1292q-238 0 -394 -171q-154 -171 -154 -419t154 -418t396 -169q241 0 408 172l94 -97q-206 -210 -502 -210t-491 210t-195 513q0 304 194 515q194 210 491 210
t501 -211l-94 -95q-170 170 -408 170z" />
    <glyph glyph-name="cdotaccent" unicode="&#x10b;" horiz-adv-x="1032" 
d="M481 1313q0 43 31 71t74 27q44 0 74 -28q30 -29 30 -71t-31 -70t-73 -28t-74 28q-31 28 -31 71zM598 -20q-207 0 -352 139q-146 139 -146 361t144 360t352 137q207 0 348 -129l-96 -96q-102 90 -252 90t-255 -100t-105 -261q0 -162 105 -264t255 -102t252 92l98 -96
q-141 -131 -348 -131z" />
    <glyph glyph-name="Ccaron" unicode="&#x10c;" horiz-adv-x="1359" 
d="M616 1866l146 -176l143 176h139l-194 -275h-178l-195 275h139zM794 1292q-238 0 -394 -171q-154 -171 -154 -419t154 -418t396 -169q240 0 408 172l94 -97q-206 -210 -502 -210t-491 210t-195 513q0 304 194 515q194 210 491 210t501 -211l-94 -95q-170 170 -408 170z
" />
    <glyph glyph-name="ccaron" unicode="&#x10d;" horiz-adv-x="1032" 
d="M418 1411l145 -176l144 176h139l-195 -274h-178l-194 274h139zM598 -20q-207 0 -352 139q-146 139 -146 361t144 360t352 137q207 0 348 -129l-96 -96q-102 90 -252 90t-255 -100t-105 -261q0 -162 105 -264t255 -102t252 92l98 -96q-141 -131 -348 -131z" />
    <glyph glyph-name="Dcaron" unicode="&#x10e;" horiz-adv-x="1478" 
d="M578 1866l145 -176l143 176h140l-195 -275h-178l-195 275h140zM340 1276v-1141h395q236 0 363 157q127 156 127 410t-127 414t-363 160h-395zM735 0h-530v1411h530q291 0 458 -199t167 -509q0 -311 -167 -507t-458 -196z" />
    <glyph glyph-name="dcaron" unicode="&#x10f;" horiz-adv-x="1253" 
d="M1276 1073l-98 27q117 162 88 327h155q2 -233 -145 -354zM238 483q0 -160 101 -263t253 -103t255 97t103 265t-109 264q-111 97 -257 97t-246 -98t-100 -259zM1087 1475v-1475h-137v164q-51 -88 -151 -136t-209 -48q-209 0 -349 139t-141 362q0 223 140 359t350 137
q111 0 210 -46t150 -132v676h137z" />
    <glyph glyph-name="Dcroat" unicode="&#x110;" horiz-adv-x="1488" 
d="M350 768h352v-125h-352v-508h395q236 0 363 157q127 156 127 410t-127 414t-363 160h-395v-508zM745 0h-530v643h-201v125h201v643h530q291 0 458 -199t167 -509q0 -311 -167 -507t-458 -196z" />
    <glyph glyph-name="dcroat" unicode="&#x111;" horiz-adv-x="1253" 
d="M950 1178h-323v102h323v195h137v-195h168v-102h-168v-1178h-137v164q-51 -88 -151 -136t-209 -48q-209 0 -349 139t-141 362q0 223 140 359t350 137q111 0 210 -46t150 -132v379zM238 483q0 -160 101 -263t253 -103t255 97t103 265t-109 264q-111 97 -257 97t-246 -98
t-100 -259z" />
    <glyph glyph-name="Emacron" unicode="&#x112;" horiz-adv-x="1144" 
d="M334 1825h487v-129h-487v129zM205 1411h805v-135h-670v-516h586v-135h-586v-490h692v-135h-827v1411z" />
    <glyph glyph-name="emacron" unicode="&#x113;" horiz-adv-x="1140" 
d="M332 1370h487v-129h-487v129zM582 842q-134 0 -228 -81t-114 -216h673q-20 137 -109 217t-222 80zM584 -20q-207 0 -345 139t-139 362q0 223 138 359t345 137q208 0 339 -135t131 -361q0 -45 -2 -63h-811q18 -137 113 -220t231 -83q96 0 175 44t124 122q43 -11 137 -31
q-57 -126 -174 -198t-262 -72z" />
    <glyph glyph-name="Ebreve" unicode="&#x114;" horiz-adv-x="1144" 
d="M324 1866h106q10 -62 48 -102t103 -40t101 41t43 101h106q1 -115 -69 -186q-70 -70 -190 -70t-185 74q-63 76 -63 182zM1010 1411v-135h-670v-516h586v-135h-586v-490h692v-135h-827v1411h805z" />
    <glyph glyph-name="ebreve" unicode="&#x115;" horiz-adv-x="1140" 
d="M322 1411h106q10 -63 48 -102t102 -39t102 41q37 41 43 100h106q1 -115 -69 -185t-191 -71q-121 0 -184 75t-63 181zM582 842q-134 0 -228 -81t-114 -216h673q-20 137 -109 217t-222 80zM584 -20q-207 0 -345 139t-139 362q0 223 138 359t345 137q208 0 339 -135
t131 -361q0 -45 -2 -63h-811q18 -137 113 -220t231 -83q96 0 175 44t124 122q43 -11 137 -31q-57 -126 -174 -198t-262 -72z" />
    <glyph glyph-name="Edotaccent" unicode="&#x116;" horiz-adv-x="1144" 
d="M514 1767q0 43 31 71t73 28t74 -28q31 -28 31 -71t-31 -71t-74 -27q-44 -1 -74 27t-30 71zM1010 1411v-135h-670v-516h586v-135h-586v-490h692v-135h-827v1411h805z" />
    <glyph glyph-name="edotaccent" unicode="&#x117;" horiz-adv-x="1140" 
d="M471 1313q0 43 31 71q32 28 74 27q42 0 73 -28q31 -29 31 -71t-31 -70t-74 -28t-73 28t-31 71zM582 842q-134 0 -228 -81t-114 -216h673q-20 137 -109 217t-222 80zM584 -20q-207 0 -345 139t-139 362q0 223 138 359t345 137q208 0 339 -135t131 -361q0 -45 -2 -63h-811
q18 -137 113 -220t231 -83q96 0 175 44t124 122q43 -11 137 -31q-57 -126 -174 -198t-262 -72z" />
    <glyph glyph-name="Eogonek" unicode="&#x118;" horiz-adv-x="1144" 
d="M205 0v1411h805v-135h-670v-516h586v-135h-586v-490h692v-135l-78 -182q-16 -35 -1 -72t51 -52t72 1q57 26 59 90l108 8q0 -43 -18 -88q-35 -77 -108 -109t-153 1t-112 109q-33 76 8 155l78 139h-733z" />
    <glyph glyph-name="eogonek" unicode="&#x119;" 
d="M582 842q-134 0 -228 -81t-114 -216h673q-20 137 -109 217t-222 80zM864 -215h109q0 -35 -19 -80q-36 -77 -108 -109t-152 1t-114 111t10 153l84 131q-29 -12 -90 -12q-207 0 -345 139t-139 362q0 223 138 359t345 137q208 0 339 -135t131 -361q0 -45 -2 -63h-811
q18 -137 113 -220t231 -83q96 0 175 44t124 122q43 -11 137 -31q-19 -43 -98 -118q-78 -75 -107 -107q-92 -105 -131 -207q-14 -35 0 -72t50 -52t71 1q59 27 59 90z" />
    <glyph glyph-name="Ecaron" unicode="&#x11a;" horiz-adv-x="1144" 
d="M467 1866l145 -176l144 176h139l-195 -275h-178l-194 275h139zM205 1411h805v-135h-670v-516h586v-135h-586v-490h692v-135h-827v1411z" />
    <glyph glyph-name="ecaron" unicode="&#x11b;" horiz-adv-x="1140" 
d="M432 1411l146 -176l143 176h139l-194 -274h-179l-194 274h139zM582 842q-134 0 -228 -81t-114 -216h673q-20 137 -109 217t-222 80zM584 -20q-207 0 -345 139t-139 362q0 223 138 359t345 137q208 0 339 -135t131 -361q0 -45 -2 -63h-811q18 -137 113 -220t231 -83
q96 0 175 44t124 122q43 -11 137 -31q-57 -126 -174 -198t-262 -72z" />
    <glyph glyph-name="Gcircumflex" unicode="&#x11c;" horiz-adv-x="1548" 
d="M928 1591l-146 176l-143 -176h-139l194 275h178l195 -275h-139zM911 692h564q0 -352 -173 -532q-174 -180 -478 -180t-509 210t-205 513q0 302 205 514q205 211 504 210q254 0 451 -163l-96 -97q-154 125 -355 125q-241 0 -407 -172t-166 -418t165 -416t400 -171
q235 0 368 119q132 120 144 331h-412v127z" />
    <glyph glyph-name="gcircumflex" unicode="&#x11d;" horiz-adv-x="1251" 
d="M768 1137l-145 176l-144 -176h-139l195 274h178l194 -274h-139zM575 -342q377 0 377 494l-2 22q-45 -90 -147 -142t-213 -52q-209 0 -349 136t-141 359q0 223 140 363t350 139q109 0 209 -48t151 -136v163h137v-804q0 -629 -512 -629q-125 0 -233 59t-178 178l117 68
q102 -170 294 -170zM238 473q0 -160 100 -258t246 -98t257 96q109 96 109 264t-103 265q-103 98 -255 98t-253 -104t-101 -263z" />
    <glyph glyph-name="Gbreve" unicode="&#x11e;" horiz-adv-x="1548" 
d="M530 1866h107q10 -62 48 -102q39 -40 103 -40t101 41t43 101h106q0 -115 -70 -186q-70 -70 -190 -70t-184 75t-64 181zM1475 692q0 -352 -173 -532q-174 -180 -478 -180t-509 210t-205 513q0 302 205 514q205 211 504 210q254 0 451 -163l-96 -97q-154 125 -355 125
q-241 0 -407 -172t-166 -418t165 -416t400 -171q235 0 368 119q132 120 144 331h-412v127h564z" />
    <glyph glyph-name="gbreve" unicode="&#x11f;" horiz-adv-x="1251" 
d="M371 1411h106q10 -63 48 -102t103 -39q66 0 102 41t42 100h107q0 -115 -70 -185q-71 -70 -191 -71q-120 0 -184 75q-63 75 -63 181zM568 -342q185 0 285 119q99 119 97 397q-45 -90 -147 -142t-213 -52q-209 0 -349 136t-141 359q0 223 140 363t350 139q109 0 209 -48
t151 -136v163h137v-804q0 -629 -512 -629q-125 0 -233 59t-178 178l117 68q102 -170 287 -170zM238 473q0 -160 100 -258t246 -98t257 96q109 96 109 264t-103 265q-103 98 -255 98t-253 -104t-101 -263z" />
    <glyph glyph-name="Gdotaccent" unicode="&#x120;" horiz-adv-x="1548" 
d="M680 1767q0 43 31 71t73 28t74 -28q31 -28 31 -71t-31 -71t-74 -27q-44 -1 -74 27t-30 71zM1475 692q0 -352 -173 -532q-174 -180 -478 -180t-509 210t-205 513q0 302 205 514q205 211 504 210q254 0 451 -163l-96 -97q-154 125 -355 125q-241 0 -407 -172t-166 -418
t165 -416t400 -171q235 0 368 119q132 120 144 331h-412v127h564z" />
    <glyph glyph-name="gdotaccent" unicode="&#x121;" horiz-adv-x="1251" 
d="M520 1313q0 43 31 71t74 27q43 0 73 -28q30 -29 31 -71q0 -42 -31 -70q-32 -28 -74 -28t-73 28t-31 71zM568 -342q185 0 285 119q99 119 97 397q-45 -90 -147 -142t-213 -52q-209 0 -349 136t-141 359q0 223 140 363t350 139q109 0 209 -48t151 -136v163h137v-804
q0 -629 -512 -629q-125 0 -233 59t-178 178l117 68q102 -170 287 -170zM238 473q0 -160 100 -258t246 -98t257 96q109 96 109 264t-103 265q-103 98 -255 98t-253 -104t-101 -263z" />
    <glyph glyph-name="Gcommaaccent" unicode="&#x122;" horiz-adv-x="1548" 
d="M760 -506l-98 27q119 166 88 348h155q2 -254 -145 -375zM911 692h564q0 -352 -173 -532q-174 -180 -478 -180t-509 210t-205 513q0 302 205 514q205 211 504 210q254 0 451 -163l-96 -97q-154 125 -355 125q-241 0 -407 -172t-166 -418t165 -416t400 -171q235 0 368 119
q132 120 144 331h-412v127z" />
    <glyph glyph-name="gcommaaccent" unicode="&#x123;" horiz-adv-x="1251" 
d="M623 1470l98 -26q-119 -166 -88 -348h-156q-1 253 146 374zM568 -342q185 0 285 119q99 119 97 397q-45 -90 -147 -142t-213 -52q-209 0 -349 136t-141 359q0 223 140 363t350 139q109 0 209 -48t151 -136v163h137v-804q0 -629 -512 -629q-125 0 -233 59t-178 178l117 68
q102 -170 287 -170zM238 473q0 -160 100 -258t246 -98t257 96q109 96 109 264t-103 265q-103 98 -255 98t-253 -104t-101 -263z" />
    <glyph glyph-name="Hcircumflex" unicode="&#x124;" horiz-adv-x="1454" 
d="M870 1591l-145 176l-143 -176h-140l195 275h178l195 -275h-140zM1249 1411v-1411h-135v637h-774v-637h-135v1411h135v-647h774v647h135z" />
    <glyph glyph-name="hcircumflex" unicode="&#x125;" 
d="M377 1550l-146 176l-143 -176h-139l194 275h179l194 -275h-139zM303 522v-522h-137v1475h137v-676q41 88 133 133t185 45q174 0 272 -112t96 -308v-557h-137v557q0 133 -60 209t-180 76t-214 -79t-95 -241z" />
    <glyph glyph-name="Hbar" unicode="&#x126;" horiz-adv-x="1478" 
d="M352 764h774v287h-774v-287zM1262 1161h149v-110h-149v-1051h-136v637h-774v-637h-135v1051h-147v110h147v250h135v-250h774v250h136v-250z" />
    <glyph glyph-name="hbar" unicode="&#x127;" 
d="M303 1180v-381q41 88 133 133t185 45q174 0 272 -112t96 -308v-557h-137v557q0 133 -60 209t-180 76t-214 -79t-95 -241v-522h-137v1180h-168v100h168v195h137v-195h324v-100h-324z" />
    <glyph glyph-name="Itilde" unicode="&#x128;" horiz-adv-x="544" 
d="M376 1651q-58 0 -114 43t-81 43t-47 -24t-23 -68h-105q6 115 57 167q101 104 222 11q55 -43 81 -43t48 20t22 66h105q-7 -115 -57 -165t-108 -50zM340 1411v-1411h-135v1411h135z" />
    <glyph glyph-name="itilde" unicode="&#x129;" horiz-adv-x="466" 
d="M339 1196q-57 0 -113 43t-82 43t-48 -24t-22 -68h-105q5 115 57 168t109 53t113 -43t81 -43q25 1 47 21t23 65h105q-6 -115 -56 -165t-109 -50zM301 956v-956h-135v956h135z" />
    <glyph glyph-name="Imacron" unicode="&#x12a;" horiz-adv-x="544" 
d="M29 1825h487v-129h-487v129zM340 1411v-1411h-135v1411h135z" />
    <glyph glyph-name="imacron" unicode="&#x12b;" horiz-adv-x="466" 
d="M-8 1370h487v-129h-487v129zM301 956v-956h-135v956h135z" />
    <glyph glyph-name="Ibreve" unicode="&#x12c;" horiz-adv-x="544" 
d="M18 1866h107q10 -62 48 -102q39 -40 103 -40t101 41t43 101h106q0 -115 -70 -186q-70 -70 -190 -70t-184 75t-64 181zM340 0h-135v1411h135v-1411z" />
    <glyph glyph-name="ibreve" unicode="&#x12d;" horiz-adv-x="466" 
d="M-18 1411h106q10 -63 48 -102t103 -39t101 41t43 100h106q1 -115 -69 -185t-190 -71q-120 0 -185 75q-63 75 -63 181zM301 0h-135v956h135v-956z" />
    <glyph glyph-name="Iogonek" unicode="&#x12e;" horiz-adv-x="544" 
d="M205 1411h135v-1411h-66l-32 -182q-18 -92 51 -125q35 -14 69 2q60 28 60 90l108 8q0 -43 -18 -88q-35 -77 -108 -109q-74 -32 -152 1t-109 107t4 157l58 139v1411z" />
    <glyph glyph-name="iogonek" unicode="&#x12f;" horiz-adv-x="466" 
d="M131 1313q0 43 31 71t74 27q44 0 74 -28q30 -29 30 -71t-31 -70t-73 -28t-74 28q-31 28 -31 71zM166 956h135v-956h-61l-37 -182q-18 -92 51 -125q35 -14 70 2q59 27 59 90l109 8q0 -43 -19 -88q-35 -77 -107 -109t-152 1q-79 33 -110 107t5 157l57 139v956z" />
    <glyph glyph-name="Idotaccent" unicode="&#x130;" horiz-adv-x="544" 
d="M168 1767q0 43 31 71t73 28t74 -28q31 -28 31 -71t-31 -71t-74 -27q-44 -1 -74 27t-30 71zM340 0h-135v1411h135v-1411z" />
    <glyph glyph-name="dotlessi" unicode="&#x131;" horiz-adv-x="466" 
d="M301 956v-956h-135v956h135z" />
    <glyph glyph-name="IJ" unicode="&#x132;" horiz-adv-x="1089" 
d="M465 -393q147 0 216 87t69 226v1491h135v-1491q1 -200 -101 -324t-319 -124q-57 0 -127 16l12 133q43 -14 115 -14zM340 1411v-1411h-135v1411h135z" />
    <glyph glyph-name="ij" unicode="&#x133;" horiz-adv-x="935" 
d="M334 -463v129h102q129 0 168 93q29 71 29 186v1011h137v-1011q0 -408 -334 -408h-102zM598 1313q0 43 31 71t73 27q42 0 74 -28q31 -29 31 -71t-31 -70t-74 -28q-44 0 -74 28t-30 71zM131 1313q0 43 31 71t74 27q44 0 74 -28q30 -29 30 -71t-31 -70t-73 -28t-74 28
q-31 28 -31 71zM301 0h-135v956h135v-956z" />
    <glyph glyph-name="Jcircumflex" unicode="&#x134;" horiz-adv-x="544" 
d="M395 1591l-145 176l-144 -176h-139l195 275h178l195 -275h-140zM-80 -393q147 0 216 87t69 226v1491h135v-1491q0 -200 -101 -324t-319 -124q-57 0 -127 16l12 133q43 -14 115 -14z" />
    <glyph glyph-name="jcircumflex" unicode="&#x135;" horiz-adv-x="468" 
d="M381 1137l-145 176l-144 -176h-139l194 274h179l194 -274h-139zM-133 -463v129h102q129 0 168 93q29 71 29 186v1011h137v-1011q0 -408 -334 -408h-102z" />
    <glyph glyph-name="Kcommaaccent" unicode="&#x136;" 
d="M596 -506l-98 27q119 166 88 348h155q2 -254 -145 -375zM340 0h-135v1411h135v-686l532 686h160l-549 -706l668 -705h-182l-629 664v-664z" />
    <glyph glyph-name="kcommaaccent" unicode="&#x137;" horiz-adv-x="993" 
d="M475 -506l-98 27q119 166 88 348h156q1 -254 -146 -375zM301 0h-135v1475h135v-897l379 378h192l-409 -409l518 -547h-186l-494 522v-522z" />
    <glyph glyph-name="kgreenlandic" unicode="&#x138;" horiz-adv-x="980" 
d="M301 0h-135v956h135v-450l430 450h178l-446 -473l487 -483h-188l-461 449v-449z" />
    <glyph glyph-name="Lacute" unicode="&#x139;" horiz-adv-x="997" 
d="M516 1866l-172 -275h-139l143 275h168zM205 1411h135v-1276h598v-135h-733v1411z" />
    <glyph glyph-name="lacute" unicode="&#x13a;" horiz-adv-x="466" 
d="M481 1866l-172 -275h-139l143 275h168zM301 1475v-1475h-135v1475h135z" />
    <glyph glyph-name="Lcommaaccent" unicode="&#x13b;" horiz-adv-x="997" 
d="M485 -506l-98 27q119 166 88 348h156q1 -254 -146 -375zM205 1411h135v-1276h598v-135h-733v1411z" />
    <glyph glyph-name="lcommaaccent" unicode="&#x13c;" horiz-adv-x="466" 
d="M170 -506l-98 27q119 166 88 348h155q2 -254 -145 -375zM301 1475v-1475h-135v1475h135z" />
    <glyph glyph-name="Lcaron" unicode="&#x13d;" horiz-adv-x="997" 
d="M604 975l-98 26q121 170 119 410h155q-12 -153 -64 -269t-112 -167zM205 1411h135v-1276h598v-135h-733v1411z" />
    <glyph glyph-name="lcaron" unicode="&#x13e;" horiz-adv-x="466" 
d="M489 991l-98 27q121 170 119 409h156q-12 -153 -64 -269t-113 -167zM301 1475v-1475h-135v1475h135z" />
    <glyph glyph-name="Ldot" unicode="&#x13f;" horiz-adv-x="997" 
d="M532 539q0 45 33 75t80 31q47 0 80 -31q33 -32 33 -76t-33 -75t-80 -31t-80 31t-33 76zM205 1411h135v-1276h598v-135h-733v1411z" />
    <glyph glyph-name="ldot" unicode="&#x140;" horiz-adv-x="643" 
d="M416 539q0 45 33 75t79 31q46 0 80 -31q33 -32 33 -76t-33 -75t-80 -31q-48 0 -80 31t-32 76zM301 1475v-1475h-135v1475h135z" />
    <glyph glyph-name="Lslash" unicode="&#x141;" horiz-adv-x="1009" 
d="M352 135h598v-135h-733v688l-139 -86v121l139 86v602h135v-516l221 139v-121l-221 -139v-639z" />
    <glyph glyph-name="lslash" unicode="&#x142;" horiz-adv-x="493" 
d="M319 0h-135v680l-147 -94v121l147 94v674h135v-588l168 108v-121l-168 -108v-766z" />
    <glyph glyph-name="Nacute" unicode="&#x143;" horiz-adv-x="1402" 
d="M944 1866l-172 -275h-139l143 275h168zM1198 0h-139l-719 1182v-1182h-135v1411h145l713 -1173v1173h135v-1411z" />
    <glyph glyph-name="nacute" unicode="&#x144;" 
d="M788 1411l-172 -274h-139l144 274h167zM303 522v-522h-137v956h137v-157q41 88 133 133t185 45q174 0 272 -112t96 -308v-557h-137v557q0 133 -60 209t-180 76t-214 -79t-95 -241z" />
    <glyph glyph-name="Ncommaaccent" unicode="&#x145;" horiz-adv-x="1402" 
d="M639 -506l-98 27q119 166 88 348h155q2 -254 -145 -375zM1198 0h-139l-719 1182v-1182h-135v1411h145l713 -1173v1173h135v-1411z" />
    <glyph glyph-name="ncommaaccent" unicode="&#x146;" 
d="M510 -506l-98 27q119 166 88 348h155q2 -254 -145 -375zM303 522v-522h-137v956h137v-157q41 88 133 133t185 45q174 0 272 -112t96 -308v-557h-137v557q0 133 -60 209t-180 76t-214 -79t-95 -241z" />
    <glyph glyph-name="Ncaron" unicode="&#x147;" horiz-adv-x="1402" 
d="M557 1866l145 -176l144 176h139l-194 -275h-179l-194 275h139zM1198 0h-139l-719 1182v-1182h-135v1411h145l713 -1173v1173h135v-1411z" />
    <glyph glyph-name="ncaron" unicode="&#x148;" 
d="M428 1411l145 -176l144 176h139l-194 -274h-179l-194 274h139zM303 522v-522h-137v956h137v-157q41 88 133 133t185 45q174 0 272 -112t96 -308v-557h-137v557q0 133 -60 209t-180 76t-214 -79t-95 -241z" />
    <glyph glyph-name="napostrophe" unicode="&#x149;" 
d="M43 993l-98 27q117 162 88 328h155q2 -234 -145 -355zM303 522v-522h-137v956h137v-157q41 88 133 133t185 45q174 0 272 -112t96 -308v-557h-137v557q0 133 -60 209t-180 76t-214 -79t-95 -241z" />
    <glyph glyph-name="Eng" unicode="&#x14a;" horiz-adv-x="1402" 
d="M1063 -80v80l-723 1182v-1182h-135v1411h145l713 -1184v1184h135v-1491q0 -200 -101 -324t-319 -124q-57 0 -127 16l13 133q43 -14 114 -14q147 0 216 87t69 226z" />
    <glyph glyph-name="eng" unicode="&#x14b;" 
d="M852 -29v586q0 133 -60 209t-180 76t-214 -79t-95 -241v-522h-137v956h137v-157q41 88 133 133t185 45q174 0 272 -112t96 -308v-586q0 -199 -101 -323t-319 -125q-57 0 -127 16l13 133q43 -14 114 -14q147 0 215 87t68 226z" />
    <glyph glyph-name="Omacron" unicode="&#x14c;" horiz-adv-x="1640" 
d="M575 1825h488v-129h-488v129zM246 702q0 -246 165 -416t409 -171q244 0 409 171q166 170 166 416t-166 418t-409 172q-242 0 -408 -172t-166 -418zM111 703q0 302 204 514q205 211 504 211t505 -212q206 -210 206 -512t-206 -514q-206 -210 -505 -210t-504 210
q-204 211 -204 513z" />
    <glyph glyph-name="omacron" unicode="&#x14d;" horiz-adv-x="1200" 
d="M356 1370h488v-129h-488v129zM600 115q154 0 259 102t106 264t-105 261q-106 100 -260 100t-259 -100t-105 -261q0 -162 105 -264t259 -102zM600 -20q-209 0 -354 139q-146 139 -146 361t144 360t356 137q211 0 355 -137q145 -138 145 -360t-146 -361t-354 -139z" />
    <glyph glyph-name="Obreve" unicode="&#x14e;" horiz-adv-x="1640" 
d="M565 1866h107q10 -62 48 -102t102 -40t102 41q37 41 43 101h106q1 -115 -69 -186q-70 -70 -191 -70t-185 75t-63 181zM246 702q0 -246 165 -416t409 -171q244 0 409 171q166 170 166 416t-166 418t-409 172q-242 0 -408 -172t-166 -418zM111 703q0 302 204 514
q205 211 504 211t505 -212q206 -210 206 -512t-206 -514q-206 -210 -505 -210t-504 210q-204 211 -204 513z" />
    <glyph glyph-name="obreve" unicode="&#x14f;" horiz-adv-x="1200" 
d="M346 1411h107q10 -63 48 -102q39 -39 103 -39t101 41t43 100h106q0 -115 -70 -185t-190 -71q-120 0 -184 75t-64 181zM600 115q154 0 259 102t106 264t-105 261q-106 100 -260 100t-259 -100t-105 -261q0 -162 105 -264t259 -102zM600 -20q-209 0 -354 139
q-146 139 -146 361t144 360t356 137q211 0 355 -137q145 -138 145 -360t-146 -361t-354 -139z" />
    <glyph glyph-name="Ohungarumlaut" unicode="&#x150;" horiz-adv-x="1640" 
d="M893 1866l-143 -275h-148l139 275h152zM1159 1866l-172 -275h-139l143 275h168zM246 702q0 -246 165 -416t409 -171q244 0 409 171q166 170 166 416t-166 418t-409 172q-242 0 -408 -172t-166 -418zM111 703q0 302 204 514q205 211 504 211t505 -212q206 -210 206 -512
t-206 -514q-206 -210 -505 -210t-504 210q-204 211 -204 513z" />
    <glyph glyph-name="ohungarumlaut" unicode="&#x151;" horiz-adv-x="1200" 
d="M662 1411l-144 -274h-147l139 274h152zM928 1411l-172 -274h-140l144 274h168zM600 115q154 0 259 102t106 264t-105 261q-106 100 -260 100t-259 -100t-105 -261q0 -162 105 -264t259 -102zM600 -20q-209 0 -354 139q-146 139 -146 361t144 360t356 137q211 0 355 -137
q145 -138 145 -360t-146 -361t-354 -139z" />
    <glyph glyph-name="OE" unicode="&#x152;" horiz-adv-x="2334" 
d="M246 702q0 -246 165 -416t405 -171q240 0 405 163q164 163 174 400v49q-10 237 -175 401t-404 164q-238 0 -404 -172t-166 -418zM1395 1411h805v-135h-670v-516h586v-135h-586v-490h692v-135h-827v274q-98 -137 -249 -216t-327 -78q-299 0 -504 210t-205 513
q0 302 205 514q205 211 504 210q176 -1 327 -79t249 -215v278z" />
    <glyph glyph-name="oe" unicode="&#x153;" horiz-adv-x="2004" 
d="M1446 842q-134 0 -228 -81t-114 -216h674q-20 137 -110 217t-222 80zM596 115q150 0 257 97q105 97 112 253v16q1 162 -105 261q-106 100 -260 100t-259 -100t-105 -261q0 -162 105 -264t255 -102zM1452 -20q-141 0 -251 62t-171 173q-66 -111 -180 -173t-250 -62
q-209 0 -354 139q-146 139 -146 361t144 360t356 137q135 1 250 -61t180 -171q61 109 171 170t247 62q207 0 338 -135t131 -361q0 -45 -2 -63h-811q18 -137 114 -220t230 -83q96 0 175 44t124 122q23 -7 71 -17t66 -14q-57 -126 -174 -198t-258 -72z" />
    <glyph glyph-name="Racute" unicode="&#x154;" horiz-adv-x="1245" 
d="M780 1866l-172 -275h-139l143 275h168zM729 1276h-387v-590h377q139 0 203 84q63 84 63 209t-62 211q-63 86 -194 86zM342 551v-551h-137v1411h524q201 0 296 -125t95 -305t-91 -302t-284 -128l390 -551h-166l-389 551h-238z" />
    <glyph glyph-name="racute" unicode="&#x155;" horiz-adv-x="772" 
d="M489 1411l-172 -274h-139l144 274h167zM578 840q-137 0 -206 -138t-69 -346v-356h-137v956h137v-217q68 238 275 238q47 -1 94 -13t61 -24l-16 -133q-66 33 -139 33z" />
    <glyph glyph-name="Rcommaaccent" unicode="&#x156;" horiz-adv-x="1245" 
d="M600 -506l-98 27q119 166 88 348h155q2 -254 -145 -375zM729 1276h-387v-590h377q139 0 203 84q63 84 63 209t-62 211q-63 86 -194 86zM342 551v-551h-137v1411h524q201 0 296 -125t95 -305t-91 -302t-284 -128l390 -551h-166l-389 551h-238z" />
    <glyph glyph-name="rcommaaccent" unicode="&#x157;" horiz-adv-x="772" 
d="M172 -506l-98 27q119 166 88 348h155q2 -254 -145 -375zM578 840q-137 0 -206 -138t-69 -346v-356h-137v956h137v-217q68 238 275 238q47 -1 94 -13t61 -24l-16 -133q-66 33 -139 33z" />
    <glyph glyph-name="Rcaron" unicode="&#x158;" horiz-adv-x="1245" 
d="M479 1866l146 -176l143 176h139l-194 -275h-178l-195 275h139zM729 1276h-387v-590h377q139 0 203 84q63 84 63 209t-62 211q-63 86 -194 86zM342 551v-551h-137v1411h524q201 0 296 -125t95 -305t-91 -302t-284 -128l390 -551h-166l-389 551h-238z" />
    <glyph glyph-name="rcaron" unicode="&#x159;" horiz-adv-x="772" 
d="M262 1411l146 -176l143 176h139l-194 -274h-179l-194 274h139zM578 840q-137 0 -206 -138t-69 -346v-356h-137v956h137v-217q68 238 275 238q47 -1 94 -13t61 -24l-16 -133q-66 33 -139 33z" />
    <glyph glyph-name="Sacute" unicode="&#x15a;" horiz-adv-x="1163" 
d="M791 1866l-173 -275h-139l144 275h168zM252 406q0 -113 90 -202t234 -89t235 68q90 69 109 163q18 121 -59 195t-210 104l-190 43q-332 74 -332 354q0 166 133 276t316 110t310 -112q126 -112 126 -292h-135q0 121 -87 195q-86 73 -214 73t-221 -70t-93 -180
q0 -172 225 -223l193 -43q188 -43 294 -154q105 -112 77 -300q-27 -138 -152 -240t-326 -102t-329 131t-129 295h135z" />
    <glyph glyph-name="sacute" unicode="&#x15b;" horiz-adv-x="868" 
d="M641 1411l-172 -274h-139l143 274h168zM639 260q0 115 -137 148l-133 30q-193 44 -233 173q-17 59 -6 149t100 153t208 63t201 -60q82 -62 100 -187h-133q-12 53 -58 85t-113 32t-117 -33t-58 -84q-23 -121 141 -160l131 -30q242 -57 242 -279q0 -123 -100 -202
q-100 -78 -240 -78t-238 80q-100 80 -106 214h121q43 -166 225 -165q92 0 148 42q55 42 55 109z" />
    <glyph glyph-name="Scircumflex" unicode="&#x15c;" horiz-adv-x="1163" 
d="M731 1591l-145 176l-144 -176h-139l195 275h178l194 -275h-139zM252 406q0 -113 90 -202t234 -89t235 68q90 69 109 163q18 121 -59 195t-210 104l-190 43q-332 74 -332 354q0 166 133 276t316 110t310 -112q126 -112 126 -292h-135q0 121 -87 195q-86 73 -214 73
t-221 -70t-93 -180q0 -172 225 -223l193 -43q188 -43 294 -154q105 -112 77 -300q-27 -138 -152 -240t-326 -102t-329 131t-129 295h135z" />
    <glyph glyph-name="scircumflex" unicode="&#x15d;" horiz-adv-x="868" 
d="M580 1137l-146 176l-143 -176h-139l194 274h178l195 -274h-139zM639 260q0 115 -137 148l-133 30q-193 44 -233 173q-17 59 -6 149t100 153t208 63t201 -60q82 -62 100 -187h-133q-12 53 -58 85t-113 32t-117 -33t-58 -84q-23 -121 141 -160l131 -30q242 -57 242 -279
q0 -123 -100 -202q-100 -78 -240 -78t-238 80q-100 80 -106 214h121q43 -166 225 -165q92 0 148 42q55 42 55 109z" />
    <glyph glyph-name="Scedilla" unicode="&#x15e;" horiz-adv-x="1165" 
d="M117 406h135q0 -113 90 -202t234 -89t235 68q90 69 109 163q18 121 -59 195t-210 104l-190 43q-332 74 -332 354q0 166 133 276t316 110t310 -112q126 -112 126 -292h-135q0 121 -87 195q-86 73 -214 73t-221 -70t-93 -180q0 -172 225 -223l193 -43q188 -43 294 -154
q105 -112 77 -300q-23 -115 -115 -208t-242 -122l60 -131q35 -82 4 -157q-31 -76 -110 -108q-80 -32 -152 0t-107 109q-18 47 -18 88l108 -8q0 -63 60 -90q35 -16 71 -1t51 52t-1 72l-62 162h-27q-199 0 -327 131t-129 295z" />
    <glyph glyph-name="scedilla" unicode="&#x15f;" horiz-adv-x="870" 
d="M426 -20q-129 0 -228 80t-106 214h121q43 -166 225 -165q92 0 148 42q55 42 55 109q0 115 -137 148l-133 30q-101 23 -180 86q-78 63 -62 226q14 100 103 163t208 63t201 -60q82 -62 100 -187h-133q-12 53 -58 85t-113 32t-117 -33t-58 -84q-23 -121 141 -160l132 -30
q242 -57 241 -279q0 -96 -64 -168t-169 -98l63 -133q37 -80 6 -156q-30 -77 -110 -109t-153 0t-107 109q-18 45 -19 88l109 -8q0 -63 59 -90q35 -16 71 -1t49 51t1 73l-55 164q-10 -2 -31 -2z" />
    <glyph glyph-name="Scaron" unicode="&#x160;" horiz-adv-x="1163" 
d="M442 1866l146 -176l143 176h139l-194 -275h-178l-195 275h139zM252 406q0 -113 90 -202t234 -89t235 68q90 69 109 163q18 121 -59 195t-210 104l-190 43q-332 74 -332 354q0 166 133 276t316 110t310 -112q126 -112 126 -292h-135q0 121 -87 195q-86 73 -214 73
t-221 -70t-93 -180q0 -172 225 -223l193 -43q188 -43 294 -154q105 -112 77 -300q-27 -138 -152 -240t-326 -102t-329 131t-129 295h135z" />
    <glyph glyph-name="scaron" unicode="&#x161;" horiz-adv-x="868" 
d="M291 1411l145 -176l144 176h139l-195 -274h-178l-194 274h139zM639 260q0 115 -137 148l-133 30q-193 44 -233 173q-17 59 -6 149t100 153t208 63t201 -60q82 -62 100 -187h-133q-12 53 -58 85t-113 32t-117 -33t-58 -84q-23 -121 141 -160l131 -30q242 -57 242 -279
q0 -123 -100 -202q-100 -78 -240 -78t-238 80q-100 80 -106 214h121q43 -166 225 -165q92 0 148 42q55 42 55 109z" />
    <glyph glyph-name="Tcommaaccent" unicode="&#x162;" horiz-adv-x="1159" 
d="M518 -506l-98 27q119 166 88 348h156q1 -254 -146 -375zM59 1411h1041v-135h-453v-1276h-135v1276h-453v135z" />
    <glyph glyph-name="tcommaaccent" unicode="&#x163;" horiz-adv-x="630" 
d="M236 -506l-99 27q119 166 88 348h156q2 -254 -145 -375zM367 0h-138v834h-172v122h172v359h138v-359h202v-122h-202v-834z" />
    <glyph glyph-name="Tcaron" unicode="&#x164;" horiz-adv-x="1159" 
d="M434 1866l146 -176l143 176h139l-194 -275h-179l-194 275h139zM59 1411h1041v-135h-453v-1276h-135v1276h-453v135z" />
    <glyph glyph-name="tcaron" unicode="&#x165;" horiz-adv-x="630" 
d="M535 1073l-99 27q117 162 88 327h156q2 -233 -145 -354zM229 0v834h-172v122h172v359h138v-359h202v-122h-202v-834h-138z" />
    <glyph glyph-name="Tbar" unicode="&#x166;" horiz-adv-x="1159" 
d="M647 825h285v-108h-285v-717h-135v717h-283v108h283v451h-453v135h1041v-135h-453v-451z" />
    <glyph glyph-name="tbar" unicode="&#x167;" horiz-adv-x="638" 
d="M371 578h166v-95h-166v-483h-138v483h-149v95h149v256h-172v122h172v359h138v-359h202v-122h-202v-256z" />
    <glyph glyph-name="Utilde" unicode="&#x168;" horiz-adv-x="1380" 
d="M597 1737q-25 0 -47 -24t-24 -68h-104q6 115 57 167t109 54q58 0 112 -43q55 -43 81 -43q25 0 47 20t24 66h104q-6 -115 -56 -165t-108 -50t-114 43q-55 43 -81 43zM690 115q154 0 259 100t106 262v934h135v-934q0 -221 -144 -359t-356 -138t-355 138q-144 138 -145 359
v934h136v-934q0 -162 105 -262t259 -100z" />
    <glyph glyph-name="utilde" unicode="&#x169;" 
d="M688 1196q-58 0 -114 43q-55 43 -81 43t-48 -24t-23 -68h-105q5 115 57 168t110 53t112 -43q55 -43 81 -43q25 1 47 21t24 65h104q-6 -115 -56 -165t-108 -50zM840 434v522h137v-956h-137v158q-41 -88 -133 -133t-185 -45q-174 0 -272 112t-96 307v557h137v-557
q0 -133 60 -209t180 -76q121 0 215 80q94 78 94 240z" />
    <glyph glyph-name="Umacron" unicode="&#x16a;" horiz-adv-x="1380" 
d="M446 1825h488v-129h-488v129zM690 115q154 0 259 100t106 262v934h135v-934q0 -221 -144 -359t-356 -138t-355 138q-144 138 -145 359v934h136v-934q0 -162 105 -262t259 -100z" />
    <glyph glyph-name="umacron" unicode="&#x16b;" 
d="M340 1370h487v-129h-487v129zM840 434v522h137v-956h-137v158q-41 -88 -133 -133t-185 -45q-174 0 -272 112t-96 307v557h137v-557q0 -133 60 -209t180 -76q121 0 215 80q94 78 94 240z" />
    <glyph glyph-name="Ubreve" unicode="&#x16c;" horiz-adv-x="1380" 
d="M436 1866h107q10 -62 48 -102q39 -40 103 -40t101 41t43 101h106q0 -115 -70 -186q-70 -70 -190 -70t-184 75t-64 181zM690 115q154 0 259 100t106 262v934h135v-934q0 -221 -144 -359t-356 -138t-355 138q-144 138 -145 359v934h136v-934q0 -162 105 -262t259 -100z" />
    <glyph glyph-name="ubreve" unicode="&#x16d;" 
d="M330 1411h106q10 -63 48 -102t103 -39t101 41t43 100h107q0 -115 -70 -185t-190 -71q-120 0 -185 75q-63 75 -63 181zM840 434v522h137v-956h-137v158q-41 -88 -133 -133t-185 -45q-174 0 -272 112t-96 307v557h137v-557q0 -133 60 -209t180 -76q121 0 215 80
q94 78 94 240z" />
    <glyph glyph-name="Uring" unicode="&#x16e;" horiz-adv-x="1380" 
d="M690 1882q-40 0 -66 -26t-26 -67q0 -40 27 -66q27 -25 65 -25t66 26q27 26 26 66q0 40 -26 66t-66 26zM492 1788q0 84 57 142t140 58t141 -58t58 -141t-58 -140t-141 -57t-140 56t-57 140zM690 115q154 0 259 100t106 262v934h135v-934q0 -221 -144 -359t-356 -138
t-355 138q-144 138 -145 359v934h136v-934q0 -162 105 -262t259 -100z" />
    <glyph glyph-name="uring" unicode="&#x16f;" 
d="M492 1334q0 -40 26 -66t66 -25q40 0 66 27q26 28 26 66t-27 65t-65 27t-66 -27q-26 -27 -26 -67zM385 1333q0 85 57 143q56 58 140 58t142 -58t58 -142t-58 -140q-58 -57 -141 -57t-141 56q-57 56 -57 140zM840 434v522h137v-956h-137v158q-41 -88 -133 -133t-185 -45
q-174 0 -272 112t-96 307v557h137v-557q0 -133 60 -209t180 -76q121 0 215 80q94 78 94 240z" />
    <glyph glyph-name="Uhungarumlaut" unicode="&#x170;" horiz-adv-x="1380" 
d="M748 1866l-144 -275h-147l139 275h152zM1014 1866l-172 -275h-140l144 275h168zM690 115q154 0 259 100t106 262v934h135v-934q0 -221 -144 -359t-356 -138t-355 138q-144 138 -145 359v934h136v-934q0 -162 105 -262t259 -100z" />
    <glyph glyph-name="uhungarumlaut" unicode="&#x171;" 
d="M596 1411l-143 -274h-148l139 274h152zM862 1411l-172 -274h-139l143 274h168zM840 434v522h137v-956h-137v158q-41 -88 -133 -133t-185 -45q-174 0 -272 112t-96 307v557h137v-557q0 -133 60 -209t180 -76q121 0 215 80q94 78 94 240z" />
    <glyph glyph-name="Uogonek" unicode="&#x172;" horiz-adv-x="1380" 
d="M690 115q154 0 259 100t106 262v934h135v-934q0 -201 -120 -334t-304 -157l-66 -168q-16 -35 -1 -72t51 -52t79 5q42 20 49 67q1 13 3 19l108 8q0 -43 -18 -88q-35 -77 -108 -109t-153 1t-111 109q-32 76 7 155l60 119q-203 10 -339 146t-137 351v934h136v-934
q0 -162 105 -262t259 -100z" />
    <glyph glyph-name="uogonek" unicode="&#x173;" 
d="M840 434v522h137v-956h-43l-64 -182q-16 -35 -1 -72t51 -52t72 1q57 26 59 90l108 8q0 -43 -18 -88q-35 -77 -108 -109t-151 1t-110 107q-31 74 4 157l64 139v158q-41 -88 -133 -133t-185 -45q-174 0 -272 112t-96 307v557h137v-557q0 -133 60 -209t180 -76q121 0 215 80
q94 78 94 240z" />
    <glyph glyph-name="Wcircumflex" unicode="&#x174;" horiz-adv-x="1859" 
d="M1073 1591l-145 176l-144 -176h-139l195 275h178l194 -275h-139zM1669 1411h143l-477 -1411h-129l-276 946l-277 -946h-129l-477 1411h143l396 -1198l293 1012h102l293 -1012z" />
    <glyph glyph-name="wcircumflex" unicode="&#x175;" horiz-adv-x="1646" 
d="M965 1137l-146 176l-143 -176h-139l194 274h178l195 -274h-139zM1233 0h-115l-297 768l-286 -768h-115l-369 956h146l276 -739l275 739h147l276 -739l275 739h145z" />
    <glyph glyph-name="Ycircumflex" unicode="&#x176;" horiz-adv-x="1259" 
d="M776 1591l-145 176l-144 -176h-139l195 275h178l194 -275h-139zM698 0h-139v655l-530 756h161l439 -608l442 608h164l-537 -756v-655z" />
    <glyph glyph-name="ycircumflex" unicode="&#x177;" horiz-adv-x="1034" 
d="M668 1137l-146 176l-143 -176h-139l194 274h178l195 -274h-139zM393 -463h-141l190 465l-393 954h144l323 -778l326 778h145z" />
    <glyph glyph-name="Ydieresis" unicode="&#x178;" horiz-adv-x="1259" 
d="M709 1722q0 43 30 71q31 28 74 28t74 -28t31 -71q0 -42 -31 -70t-74 -28t-73 28t-31 70zM346 1722q0 43 31 71t74 28t73 -28t31 -71q0 -42 -31 -70q-32 -28 -74 -28t-73 28t-31 70zM698 0h-139v655l-530 756h161l439 -608l442 608h164l-537 -756v-655z" />
    <glyph glyph-name="Zacute" unicode="&#x179;" horiz-adv-x="1146" 
d="M764 1866l-172 -275h-139l143 275h168zM115 1274v137h934v-135l-799 -1139h799v-137h-963v135l797 1139h-768z" />
    <glyph glyph-name="zacute" unicode="&#x17a;" horiz-adv-x="1013" 
d="M692 1411l-172 -274h-139l143 274h168zM913 956v-122l-645 -699h645v-135h-829v125l635 696h-600v135h794z" />
    <glyph glyph-name="Zdotaccent" unicode="&#x17b;" horiz-adv-x="1146" 
d="M463 1767q0 43 31 71q32 28 74 28t73 -28t31 -71t-31 -71t-74 -27q-43 -1 -73 27t-31 71zM115 1274v137h934v-135l-799 -1139h799v-137h-963v135l797 1139h-768z" />
    <glyph glyph-name="zdotaccent" unicode="&#x17c;" horiz-adv-x="1013" 
d="M395 1313q0 43 31 71t74 27q44 0 74 -28q30 -29 30 -71t-31 -70t-73 -28t-74 28q-31 28 -31 71zM913 135v-135h-829v125l635 696h-600v135h794v-122l-645 -699h645z" />
    <glyph glyph-name="Zcaron" unicode="&#x17d;" horiz-adv-x="1146" 
d="M422 1821l145 -176l144 176h139l-195 -275h-178l-194 275h139zM115 1274v137h934v-135l-799 -1139h799v-137h-963v135l797 1139h-768z" />
    <glyph glyph-name="zcaron" unicode="&#x17e;" horiz-adv-x="1013" 
d="M354 1411l146 -176l143 176h139l-194 -274h-178l-195 274h139zM913 956v-122l-645 -699h645v-135h-829v125l635 696h-600v135h794z" />
    <glyph glyph-name="longs" unicode="&#x17f;" horiz-adv-x="589" 
d="M682 1475v-129h-102q-130 0 -168 -94q-29 -71 -29 -185v-1067h-137v834h-187v122h187v111q0 408 334 408h102z" />
    <glyph glyph-name="florin" unicode="&#x192;" horiz-adv-x="1269" 
d="M1104 1475h102l-28 -129h-103q-127 0 -187 -94q-48 -75 -69 -185l-24 -111h235l-26 -122h-236l-182 -834q-90 -408 -422 -408h-103l29 129h103q125 0 186 95q46 72 70 184l182 834h-187l27 122h186l25 111q88 408 422 408z" />
    <glyph glyph-name="Aringacute" unicode="&#x1fa;" horiz-adv-x="1306" 
d="M561 1788q0 -39 27 -66q28 -26 66 -26t65 26t26 66t-27 66t-65 26t-65 -26t-27 -66zM852 1777q0 -73 -58 -130t-142 -57t-140 56q-57 58 -57 132t35 125q36 51 96 71l129 248h168l-158 -250q57 -22 92 -72t35 -123zM932 498l-279 725l-278 -725h557zM184 0h-145l543 1411
h143l543 -1411h-146l-143 371h-653z" />
    <glyph glyph-name="aringacute" unicode="&#x1fb;" horiz-adv-x="1253" 
d="M238 483q0 -160 101 -263t253 -103t255 97t103 265t-109 264q-111 97 -257 97t-246 -98t-100 -259zM1087 956v-956h-137v164q-51 -88 -151 -136t-209 -48q-209 0 -349 139t-141 362q0 223 140 359t350 137q111 0 210 -46t150 -132v157h137zM532 1334q0 -40 27 -66t66 -25
q39 0 65 27q26 28 27 66q0 38 -27 65q-28 27 -66 27t-65 -28q-27 -26 -27 -66zM823 1324q0 -73 -58 -130t-141 -57t-141 56q-57 56 -57 131t36 126t95 72l129 247h168l-158 -249q57 -23 92 -73t35 -123z" />
    <glyph glyph-name="AEacute" unicode="&#x1fc;" horiz-adv-x="1929" 
d="M1229 1866l-172 -275h-139l143 275h168zM989 498v778l-493 -778h493zM1794 1411v-135h-670v-516h586v-135h-586v-490h693v-135h-828v371h-573l-236 -371h-160l891 1411h883z" />
    <glyph glyph-name="aeacute" unicode="&#x1fd;" horiz-adv-x="1992" 
d="M1231 1411l-172 -274h-139l143 274h168zM1434 842q-134 0 -228 -81t-114 -216h673q-20 137 -109 217t-222 80zM238 483q0 -160 101 -263t253 -103t255 97t103 265t-109 264q-111 97 -257 97t-246 -98t-100 -259zM1087 0h-137v164q-51 -88 -151 -136t-209 -48
q-209 0 -349 139t-141 362q0 223 140 359t350 137q111 0 210 -46t150 -132v157h137v-118q133 139 345 139t342 -135q131 -135 131 -361q0 -45 -2 -63h-811q18 -137 113 -220t231 -83q96 0 175 44t124 122q43 -11 137 -31q-57 -127 -174 -199t-262 -71q-214 0 -349 141v-121z
" />
    <glyph glyph-name="Oslashacute" unicode="&#x1fe;" horiz-adv-x="1636" 
d="M817 115q244 0 410 171t166 400t-129 391l-811 -833q159 -129 364 -129zM802 1292q-226 0 -392 -172t-166 -406t133 -395l813 834q-162 139 -388 139zM109 716q0 290 204 501q205 211 489 211t482 -177l178 183l76 -76l-178 -184q168 -205 168 -489t-206 -495t-505 -210
q-262 -1 -459 167l-163 -170l-76 76l164 170q-174 203 -174 493zM1028 1866l-172 -275h-139l143 275h168z" />
    <glyph glyph-name="oslashacute" unicode="&#x1ff;" horiz-adv-x="1196" 
d="M582 842q-138 0 -243 -100t-105 -244t67 -238l508 520q-89 62 -227 62zM612 115q140 0 245 102q105 103 105 249t-75 243l-510 -525q95 -69 235 -69zM598 977q174 0 307 -98l103 106l75 -76l-100 -102q115 -135 115 -342t-146 -346t-340 -139q-196 0 -331 106l-105 -109
l-76 76l105 109q-107 136 -107 338t144 340t356 137zM809 1411l-172 -274h-139l143 274h168z" />
    <glyph glyph-name="Scommaaccent" unicode="&#x218;" horiz-adv-x="1163" 
d="M496 -506l-99 27q119 166 88 348h156q2 -254 -145 -375zM252 406q0 -113 90 -202t234 -89t235 68q90 69 109 163q18 121 -59 195t-210 104l-190 43q-332 74 -332 354q0 166 133 276t316 110t310 -112q126 -112 126 -292h-135q0 121 -87 195q-86 73 -214 73t-221 -70
t-93 -180q0 -172 225 -223l193 -43q188 -43 294 -154q105 -112 77 -300q-27 -138 -152 -240t-326 -102t-329 131t-129 295h135z" />
    <glyph glyph-name="scommaaccent" unicode="&#x219;" horiz-adv-x="868" 
d="M383 -506l-98 27q119 166 88 348h155q2 -254 -145 -375zM639 260q0 115 -137 148l-133 30q-193 44 -233 173q-17 59 -6 149t100 153t208 63t201 -60q82 -62 100 -187h-133q-12 53 -58 85t-113 32t-117 -33t-58 -84q-23 -121 141 -160l131 -30q242 -57 242 -279
q0 -123 -100 -202q-100 -78 -240 -78t-238 80q-100 80 -106 214h121q43 -166 225 -165q92 0 148 42q55 42 55 109z" />
    <glyph glyph-name="circumflex" unicode="&#x2c6;" horiz-adv-x="997" 
d="M643 1137l-145 176l-144 -176h-139l195 274h178l194 -274h-139z" />
    <glyph glyph-name="caron" unicode="&#x2c7;" horiz-adv-x="1017" 
d="M365 1411l145 -176l143 176h140l-195 -274h-178l-195 274h140z" />
    <glyph glyph-name="breve" unicode="&#x2d8;" horiz-adv-x="958" 
d="M225 1411h107q10 -63 48 -102t102 -39t102 41q37 41 43 100h106q1 -115 -69 -185t-191 -71q-121 0 -185 75t-63 181z" />
    <glyph glyph-name="dotaccent" unicode="&#x2d9;" horiz-adv-x="1028" 
d="M410 1313q0 43 30 71t74 27q43 0 74 -28q30 -29 30 -71t-30 -70t-74 -28q-43 0 -74 28q-30 28 -30 71z" />
    <glyph glyph-name="ring" unicode="&#x2da;" horiz-adv-x="1052" 
d="M434 1334q0 -40 27 -66t65 -25q38 0 66 27q26 28 26 66t-26 65q-27 27 -66 27q-40 0 -66 -28q-26 -26 -26 -66zM328 1333q0 85 57 143t140 58t141 -58t59 -142q0 -84 -58 -140q-57 -57 -141 -57t-141 56t-57 140z" />
    <glyph glyph-name="ogonek" unicode="&#x2db;" horiz-adv-x="1056" 
d="M541 53l-101 -235q-16 -35 -1 -72t51 -52t79 4q42 19 52 87l108 8q0 -43 -18 -88q-35 -77 -108 -109t-151 1t-110 107q-31 74 4 157l80 192h115z" />
    <glyph glyph-name="tilde" unicode="&#x2dc;" horiz-adv-x="862" 
d="M339 1282q-25 0 -47 -24t-24 -68h-104q6 115 57 168t109 53t112 -43q55 -43 81 -43q25 1 47 21t24 65h104q-6 -115 -56 -165t-108 -50t-114 43q-55 43 -81 43z" />
    <glyph glyph-name="hungarumlaut" unicode="&#x2dd;" horiz-adv-x="884" 
d="M455 1411l-144 -274h-147l139 274h152zM721 1411l-172 -274h-139l143 274h168z" />
    <glyph glyph-name="Wgrave" unicode="&#x1e80;" horiz-adv-x="1859" 
d="M844 1591l-172 275h168l143 -275h-139zM1812 1411l-477 -1411h-129l-276 946l-277 -946h-129l-477 1411h143l396 -1198l293 1012h102l293 -1012l395 1198h143z" />
    <glyph glyph-name="wgrave" unicode="&#x1e81;" horiz-adv-x="1646" 
d="M762 1137l-172 274h168l143 -274h-139zM1118 0l-297 768l-286 -768h-115l-369 956h146l276 -739l275 739h147l276 -739l275 739h145l-358 -956h-115z" />
    <glyph glyph-name="Wacute" unicode="&#x1e82;" horiz-adv-x="1859" 
d="M1194 1866l-172 -275h-139l143 275h168zM1669 1411h143l-477 -1411h-129l-276 946l-277 -946h-129l-477 1411h143l396 -1198l293 1012h102l293 -1012z" />
    <glyph glyph-name="wacute" unicode="&#x1e83;" horiz-adv-x="1646" 
d="M1057 1411l-172 -274h-140l144 274h168zM1233 0h-115l-297 768l-286 -768h-115l-369 956h146l276 -739l275 739h147l276 -739l275 739h145z" />
    <glyph glyph-name="Wdieresis" unicode="&#x1e84;" horiz-adv-x="1859" 
d="M1006 1767q0 43 30 71q31 28 74 28t74 -28q30 -28 30 -71t-30 -71t-74 -27q-44 -1 -74 27t-30 71zM643 1767q0 43 31 71t74 28q44 0 74 -28t30 -71t-31 -71t-73 -27q-42 -1 -74 27q-31 28 -31 71zM1812 1411l-477 -1411h-129l-276 946l-277 -946h-129l-477 1411h143
l396 -1198l293 1012h102l293 -1012l395 1198h143z" />
    <glyph glyph-name="wdieresis" unicode="&#x1e85;" horiz-adv-x="1646" 
d="M897 1313q0 43 31 71q32 28 74 27q42 0 73 -28q31 -29 31 -71t-31 -70t-74 -28t-73 28t-31 71zM535 1313q1 43 31 71t73 27q43 0 74 -28q31 -29 31 -71t-32 -70q-30 -28 -73 -28t-74 28q-30 28 -30 71zM1118 0l-297 768l-286 -768h-115l-369 956h146l276 -739l275 739
h147l276 -739l275 739h145l-358 -956h-115z" />
    <glyph glyph-name="Ygrave" unicode="&#x1ef2;" horiz-adv-x="1259" 
d="M586 1591l-172 275h168l143 -275h-139zM698 0h-139v655l-530 756h161l439 -608l442 608h164l-537 -756v-655z" />
    <glyph glyph-name="ygrave" unicode="&#x1ef3;" horiz-adv-x="1034" 
d="M469 1137l-172 274h168l143 -274h-139zM252 -463l190 465l-393 954h144l323 -778l326 778h145l-594 -1419h-141z" />
    <glyph glyph-name="thinspace" unicode="&#x2009;" horiz-adv-x="28" 
 />
    <glyph glyph-name="endash" unicode="&#x2013;" horiz-adv-x="1222" 
d="M150 535h923v-121h-923v121z" />
    <glyph glyph-name="emdash" unicode="&#x2014;" horiz-adv-x="1665" 
d="M150 535h1366v-121h-1366v121z" />
    <glyph glyph-name="quoteleft" unicode="&#x2018;" horiz-adv-x="485" 
d="M311 1427l78 -26q-121 -170 -119 -410h-135q11 153 63 269t113 167z" />
    <glyph glyph-name="quoteright" unicode="&#x2019;" horiz-adv-x="481" 
d="M195 991l-78 27q121 170 119 409h135q-11 -153 -63 -269t-113 -167z" />
    <glyph glyph-name="quotesinglbase" unicode="&#x201a;" horiz-adv-x="477" 
d="M147 -137l-77 26q121 170 118 410h136q-12 -153 -64 -269t-113 -167z" />
    <glyph glyph-name="quotedblleft" unicode="&#x201c;" horiz-adv-x="722" 
d="M311 1427l78 -26q-121 -170 -119 -410h-135q11 153 63 269t113 167zM549 1427l78 -26q-121 -170 -119 -410h-135q11 153 63 269t113 167z" />
    <glyph glyph-name="quotedblright" unicode="&#x201d;" horiz-adv-x="718" 
d="M432 991l-78 27q121 170 119 409h135q-12 -153 -64 -269t-112 -167zM195 991l-78 27q121 170 119 409h135q-11 -153 -63 -269t-113 -167z" />
    <glyph glyph-name="quotedblbase" unicode="&#x201e;" horiz-adv-x="714" 
d="M385 -137l-78 26q121 170 119 410h135q-11 -153 -63 -269t-113 -167zM147 -137l-77 26q121 170 118 410h136q-12 -153 -64 -269t-113 -167z" />
    <glyph glyph-name="dagger" unicode="&#x2020;" horiz-adv-x="841" 
d="M487 1022h263v-135h-263v-1149h-135v1149h-260v135h260v389h135v-389z" />
    <glyph glyph-name="daggerdbl" unicode="&#x2021;" horiz-adv-x="903" 
d="M518 1022h262v-135h-262v-572h262v-135h-262v-442h-135v442h-260v135h260v572h-260v135h260v389h135v-389z" />
    <glyph glyph-name="bullet" unicode="&#x2022;" horiz-adv-x="937" 
d="M174 489q0 121 86 201t209 80t209 -80t86 -201t-86 -201t-209 -79q-123 -1 -209 79t-86 201z" />
    <glyph glyph-name="ellipsis" unicode="&#x2026;" horiz-adv-x="1503" 
d="M1130 86q0 45 33 76t80 31t80 -31t33 -76t-33 -76q-33 -30 -80 -30t-80 30t-33 76zM639 86q0 45 33 76t80 31q48 0 80 -31t32 -76t-33 -76q-33 -30 -79 -30t-80 30q-33 30 -33 76zM147 86q0 45 33 76t80 31t80 -31t33 -76t-33 -76q-33 -30 -80 -30t-80 30t-33 76z" />
    <glyph glyph-name="perthousand" unicode="&#x2030;" horiz-adv-x="1980" 
d="M1477 252q0 -66 45 -111q44 -45 110 -45t112 45t46 109t-47 112t-112 48t-109 -46t-45 -112zM1360 252q0 114 79 194t193 80t194 -81q81 -81 81 -195t-80 -192t-195 -78q-116 0 -194 78t-78 194zM836 252q0 -66 45 -111t111 -45t111 45q46 45 46 109t-46 112t-112 48
q-67 0 -111 -46t-44 -112zM719 252q0 114 79 194q80 80 194 80t194 -81t80 -195t-80 -192t-195 -78t-193 78t-79 194zM201 1104q0 -66 45 -111q44 -45 110 -45t112 45t46 109t-46 112t-112 48t-110 -46t-45 -112zM84 1104q0 114 79 194t193 80t195 -81q80 -81 80 -195
t-80 -192q-80 -79 -195 -79q-116 0 -194 79t-78 194zM1057 1378l-674 -1378h-96l674 1378h96z" />
    <glyph glyph-name="guilsinglleft" unicode="&#x2039;" horiz-adv-x="620" 
d="M102 475l283 424h127l-283 -424l283 -424h-127z" />
    <glyph glyph-name="guilsinglright" unicode="&#x203a;" horiz-adv-x="620" 
d="M518 475l-282 -424h-127l282 424l-282 424h127z" />
    <glyph glyph-name="fraction" unicode="&#x2044;" horiz-adv-x="368" 
d="M705 1378l-918 -1398h-135l917 1398h136z" />
    <glyph glyph-name="zerosuperior" unicode="&#x2070;" horiz-adv-x="745" 
d="M373 956q-287 0 -287 408t287 408q160 0 223 -110t63 -299t-63 -298t-223 -109zM186 1363q0 -308 186 -308t187 308q-1 308 -187 308t-186 -308z" />
    <glyph glyph-name="foursuperior" unicode="&#x2074;" horiz-adv-x="741" 
d="M682 1128h-117v-165h-108v165h-418l444 637h82v-534h117v-103zM457 1231v338l-232 -338h232z" />
    <glyph glyph-name="fivesuperior" unicode="&#x2075;" horiz-adv-x="698" 
d="M343 1059q71 0 125 46t54 116q0 69 -49 107t-111 38t-112 -14q-49 -14 -137 -60l-23 25l80 448h408v-104h-318l-41 -219q72 33 141 33q115 0 192 -67q77 -66 77 -188t-84 -196t-217 -74q-82 0 -154 50t-113 133l89 63q22 -59 72 -98t121 -39z" />
    <glyph glyph-name="sixsuperior" unicode="&#x2076;" horiz-adv-x="692" 
d="M470 1327q-42 47 -106 50t-113 -41q-48 -44 -49 -110q-1 -67 43 -112t107 -48t108 40q44 42 48 108t-38 113zM377 1677q-88 0 -140 -84t-36 -211q31 102 166 103q106 0 179 -83q72 -83 68 -193q-4 -109 -82 -183t-185 -70t-177 77t-80 198q-21 170 28 354q22 82 88 138
q67 56 173 57q166 -9 229 -154l-96 -41q-47 92 -135 92z" />
    <glyph glyph-name="sevensuperior" unicode="&#x2077;" horiz-adv-x="659" 
d="M80 1765h553l-440 -802h-127l383 694h-369v108z" />
    <glyph glyph-name="eightsuperior" unicode="&#x2078;" horiz-adv-x="708" 
d="M141 1570q1 87 61 146q60 60 152 60t154 -60t61 -145q0 -86 -61 -141q123 -76 123 -218q0 -108 -80 -184t-197 -76q-116 0 -196 75t-80 185q0 139 123 218q-60 53 -60 140zM186 1212q0 -63 48 -108t120 -45t120 45t48 108q0 62 -48 110t-120 48t-120 -48t-48 -110z
M354 1667q-46 1 -76 -27t-30 -70t31 -75t75 -32t76 34q31 33 31 74t-31 69t-76 27z" />
    <glyph glyph-name="ninesuperior" unicode="&#x2079;" horiz-adv-x="692" 
d="M222 1403q42 -47 107 -50t113 41t49 110q1 67 -43 112t-108 48t-108 -40q-44 -42 -48 -108t38 -113zM315 1053q88 0 141 84q52 84 36 211q-31 -102 -166 -103q-106 0 -180 83q-72 83 -68 193q4 109 82 183t185 70t177 -77t80 -198q21 -167 -28 -354q-22 -84 -88 -139
t-173 -56q-166 9 -229 154l96 41q47 -92 135 -92z" />
    <glyph glyph-name="zeroinferior" unicode="&#x2080;" horiz-adv-x="747" 
d="M373 -324q-287 0 -287 408t287 408q160 0 223 -110t63 -299t-63 -298t-223 -109zM186 83q0 -308 186 -308t187 308q-1 308 -187 308t-186 -308z" />
    <glyph glyph-name="oneinferior" unicode="&#x2081;" horiz-adv-x="411" 
d="M295 -317h-109v665l-131 -47v105l240 88v-811z" />
    <glyph glyph-name="twoinferior" unicode="&#x2082;" horiz-adv-x="665" 
d="M82 -317v49l326 393q59 74 59 132t-41 94t-100 36q-58 0 -102 -35t-52 -92l-100 25q14 96 85 153q71 58 172 58t174 -67t73 -171t-89 -207q-45 -53 -73 -87t-67 -79q-38 -45 -79 -94h307v-108h-493z" />
    <glyph glyph-name="threeinferior" unicode="&#x2083;" horiz-adv-x="667" 
d="M319 59h-90v105h90q43 0 75 26t39 73q7 46 -23 82q-31 36 -86 42q-90 8 -144 -72q-21 17 -78 64q34 57 96 90t147 28t149 -71t60 -161q-3 -95 -95 -150q59 -20 97 -85t32 -130q-8 -102 -95 -169t-183 -60t-160 53t-95 114q84 48 90 51q43 -94 156 -108q68 -4 121 35
t55 97t-45 102t-113 44z" />
    <glyph glyph-name="fourinferior" unicode="&#x2084;" horiz-adv-x="741" 
d="M682 -152h-117v-165h-108v165h-418l444 637h82v-534h117v-103zM457 -49v338l-232 -338h232z" />
    <glyph glyph-name="fiveinferior" unicode="&#x2085;" horiz-adv-x="696" 
d="M343 -221q71 0 125 46t54 116q0 69 -49 107t-111 38t-112 -14q-49 -14 -137 -60l-23 25l80 448h408v-104h-318l-41 -219q72 33 141 33q115 0 192 -67q77 -66 77 -188t-84 -196t-217 -74q-82 0 -154 50t-113 133l89 63q22 -59 72 -98t121 -39z" />
    <glyph glyph-name="sixinferior" unicode="&#x2086;" horiz-adv-x="692" 
d="M470 47q-42 47 -106 50t-113 -41q-48 -44 -49 -110q-1 -67 43 -112t107 -48t108 40q44 42 48 108t-38 113zM377 397q-88 0 -140 -84t-36 -211q31 102 166 103q106 0 179 -83q72 -83 68 -193q-4 -109 -82 -183t-185 -70t-177 77t-80 198q-21 167 28 354q22 84 88 139
q67 55 173 56q166 -9 229 -154l-96 -41q-47 92 -135 92z" />
    <glyph glyph-name="seveninferior" unicode="&#x2087;" horiz-adv-x="653" 
d="M82 485h553l-440 -802h-127l383 694h-369v108z" />
    <glyph glyph-name="eightinferior" unicode="&#x2088;" horiz-adv-x="704" 
d="M139 290q1 87 61 146q60 60 152 60t154 -60t61 -145q0 -86 -61 -141q123 -76 123 -218q0 -108 -80 -184t-197 -76q-116 0 -196 75t-80 185q0 139 123 218q-60 53 -60 140zM184 -68q0 -63 48 -108t120 -45t120 45t48 108q0 62 -48 110t-120 48t-120 -48t-48 -110zM352 387
q-46 1 -76 -27t-30 -70t30 -75t76 -32q45 1 76 34t31 74t-31 69t-76 27z" />
    <glyph glyph-name="nineinferior" unicode="&#x2089;" horiz-adv-x="692" 
d="M222 123q42 -47 107 -50t113 41t49 110q1 67 -43 112t-108 48t-108 -40q-44 -42 -48 -108t38 -113zM315 -227q88 0 141 84q52 84 36 211q-31 -102 -166 -103q-106 0 -180 83q-72 83 -68 193q4 109 82 183t185 70t177 -77t80 -198q21 -170 -28 -354q-22 -82 -88 -138
t-173 -57q-166 9 -229 154l96 41q47 -92 135 -92z" />
    <glyph glyph-name="colonmonetary" unicode="&#x20a1;" horiz-adv-x="1392" 
d="M242 706q0 -215 112 -372l338 948q-202 -35 -326 -198t-124 -378zM805 1292l-373 -1044q72 -61 154 -94l393 1106q-76 28 -174 32zM106 693q0 300 180 507t457 225l80 224l97 -35l-68 -189q92 -10 172 -39l68 187l96 -33l-70 -194q90 -45 174 -129l-94 -95
q-49 49 -125 95l-391 -1092q57 -10 109 -10q242 0 409 172l94 -97q-205 -211 -503 -210q-76 0 -154 16l-78 -219l-96 35l76 213q-82 33 -156 88l-92 -260l-96 32l106 301q-195 207 -195 507z" />
    <glyph glyph-name="lira" unicode="&#x20a4;" horiz-adv-x="1316" 
d="M309 406h-166v116h166v140h-166v116h166v264q0 176 123 286t292 110t285 -110t115 -286h-135q0 117 -77 189q-76 72 -188 72t-196 -73t-84 -188v-264h332v-116h-332v-140h332v-116h-332v-271h584q18 1 30 15t13 36v121h135v-121q0 -80 -52 -133t-126 -53h-919v135h200
v271z" />
    <glyph glyph-name="uni20A6" unicode="&#x20a6;" horiz-adv-x="1482" 
d="M1106 512h-166l166 -274v274zM383 905h168l-168 277v-277zM1106 614v189h-344l115 -189h229zM383 803v-189h344l-115 189h-229zM248 803h-123v102h123v506h145l307 -506h406v506h135v-506h117v-102h-117v-189h117v-102h-117v-512h-139l-311 512h-408v-512h-135v512h-123
v102h123v189z" />
    <glyph glyph-name="peseta" unicode="&#x20a7;" horiz-adv-x="1445" 
d="M412 686h407q162 0 232 121h-639v-121zM1092 968q0 24 -5 62h-675v-121h673q7 35 7 59zM829 1276h-417v-143h649q-66 143 -232 143zM1350 909v-102h-150q-39 -117 -130 -187t-241 -69h-417v-551h-138v807h-157v102h157v121h-157v103h157v278h555q154 0 248 -77t129 -201
h144v-103h-125l2 -51q0 -25 -4 -70h127z" />
    <glyph glyph-name="rupee" unicode="&#x20a8;" horiz-adv-x="1415" 
d="M150 686h444q139 0 203 84q63 84 63 209q0 27 -2 39h-708v94h690q-57 164 -236 164h-454v135h1165v-94h-445q80 -74 111 -205h334v-94h-322q2 -14 2 -39q0 -178 -91 -300t-283 -128l389 -551h-166l-389 551h-305v135z" />
    <glyph glyph-name="uni20A9" unicode="&#x20a9;" horiz-adv-x="2013" 
d="M993 897l-55 -188h139l-55 188h-29zM535 606l129 -393l112 393h-241zM1237 606l115 -393l129 393h-244zM438 897l62 -188h307l53 188h-422zM1153 897l55 -188h308l61 188h-424zM1888 999v-102h-172l-63 -188h235v-103h-270l-205 -606h-129l-178 606h-199l-176 -606h-129
l-205 606h-274v103h239l-63 188h-176v102h141l-139 412h143l135 -412h488l65 226h103l65 -226h488l135 412h143l-139 -412h137z" />
    <glyph glyph-name="afii57636" unicode="&#x20aa;" horiz-adv-x="1499" 
d="M508 420v332h135v-332q0 -121 82 -203t213 -82h219v977h135v-1112h-354q-190 0 -310 121t-120 299zM991 692v-332h-135v332q0 121 -82 203t-213 82h-219v-977h-135v1112h354q190 0 310 -121t120 -299z" />
    <glyph glyph-name="Euro" unicode="&#x20ac;" horiz-adv-x="1632" 
d="M111 631h956v-96h-600q47 -185 189 -303t339 -117q242 0 410 172l94 -97q-205 -211 -504 -210q-252 0 -434 156t-233 399h-217v96zM1067 766h-956v96h215q51 248 233 407t436 158q297 0 502 -210l-94 -95q-170 170 -408 170q-199 0 -342 -120t-188 -310h602v-96z" />
    <glyph glyph-name="uni2113" unicode="&#x2113;" horiz-adv-x="790" 
d="M293 545h133q127 0 127 182v385q0 182 -127 182q-133 0 -133 -182v-567zM426 115h205v-135h-205q-268 0 -268 317v815q0 317 268 318q262 0 262 -318v-385q0 -317 -262 -317h-133v-113q0 -182 133 -182z" />
    <glyph glyph-name="afii61352" unicode="&#x2116;" horiz-adv-x="1941" 
d="M1333 743v74h492v-74h-492zM1427 1171q0 -63 44 -107q43 -44 107 -44t109 44q44 44 44 107t-44 107q-43 44 -107 45q-64 0 -109 -44q-44 -45 -44 -108zM1323 1171q0 105 75 181t181 76t181 -76q75 -74 75 -180t-75 -182q-75 -75 -181 -75t-181 75t-75 181zM342 0h-135
v1411h145l713 -1173v1173h135v-1411h-139l-719 1182v-1182z" />
    <glyph glyph-name="trademark" unicode="&#x2122;" horiz-adv-x="1677" 
d="M477 1307v-656h-104v656h-234v104h672l262 -571l262 571h99l90 -760h-103l-69 572l-232 -506h-92l-235 502l-68 -568h-104l79 656h-223z" />
    <glyph glyph-name="estimated" unicode="&#x212e;" horiz-adv-x="1361" 
d="M1012 639v334q-139 127 -325 127t-308 -127v-334h633zM1257 571h-878v-395q135 -129 301 -129t262 68t178 192l64 -39q-90 -139 -203 -214t-291 -74q-244 0 -400 173t-155 423q0 250 154 420q155 171 409 171t406 -173t153 -423z" />
    <glyph glyph-name="minus" unicode="&#x2212;" horiz-adv-x="1187" 
d="M158 604h872v-129h-872v129z" />
    <glyph glyph-name="notequal" unicode="&#x2260;" horiz-adv-x="1234" 
d="M1087 369v-129h-542l-117 -240h-106l116 240h-291v129h355l141 290h-496v129h560l116 240h107l-117 -240h274v-129h-337l-142 -290h479z" />
    <glyph glyph-name="lessequal" unicode="&#x2264;" horiz-adv-x="1374" 
d="M166 129h1022v-129h-1022v129zM1196 373l-1042 399v148l1042 399v-148l-885 -325l885 -328v-145z" />
    <glyph glyph-name="greaterequal" unicode="&#x2265;" horiz-adv-x="1374" 
d="M1208 129v-129h-1022v129h1022zM1221 772l-1043 -399v145l885 328l-885 325v148l1043 -399v-148z" />
    <glyph glyph-name="commaaccent" unicode="&#xf6c3;" horiz-adv-x="532" 
d="M242 -506l-99 27q119 166 88 348h156q2 -254 -145 -375z" />
    <glyph glyph-name="rupiah" unicode="&#xf6dd;" horiz-adv-x="2363" 
d="M2152 471q0 160 -101 264q-101 105 -253 105t-255 -98t-103 -267q0 -168 110 -263t256 -95t246 97t100 257zM1303 -463v1419h135l2 -165q51 88 151 137t209 49q209 0 349 -140q141 -139 141 -363t-140 -359t-350 -135q-111 0 -210 45t-150 131v-619h-137zM680 1276h-387
v-590h377q139 0 202 84t64 209q0 125 -62 211t-194 86zM293 551v-551h-137v1411h524q201 0 296 -125t95 -305t-91 -302t-284 -128l389 -551h-165l-390 551h-237z" />
    <glyph glyph-name="apple" unicode="&#xf8ff;" horiz-adv-x="1734" 
d="M1329 270v-108h17v67l45 -67h26v108h-26v-67l-45 67h-17zM1317 162v59h-45v-18h24q-8 -21 -23 -21t-25 12t-9 22q0 10 9 22q10 12 26 12t16 -21h27q-8 41 -45 41q-23 0 -37 -16t-14 -38t14 -38q15 -16 35 -16t26 14l9 -14h12zM1206 270h-14v-108h14v108zM1112 203h-18
q0 -41 45 -41t45 35q0 23 -33 29t-33 12q0 12 20 12t19 -12h21q0 33 -39 32q-17 0 -31 -9t-14 -23t39 -31q25 0 24 -10q-1 -14 -23 -14t-22 20zM1087 270h-75v-108h82v20h-58v25h51v18h-51v25h51v20zM954 182h-16v68h8q35 0 35 -35q-1 -13 -9 -23t-18 -10zM954 270h-41v-108
h41q51 0 51 54t-51 54zM860 221h-26v29h26q18 0 19 -12q-1 -17 -19 -17zM872 270h-57v-108l-43 108h-18l-45 -108h24l8 26h45l7 -26h41v45h26q18 0 19 -19v-26h26q-6 6 -6 25t-14 28q14 6 14 23q0 32 -27 32zM766 244l14 -37h-32l12 37h6zM645 250h35v-88h16v88h31v20h-82
v-20zM582 203h-27q0 -41 45 -41t45 35q0 23 -32 29t-31 12q0 12 19 12t20 -12h18q0 32 -39 32t-39 -32q0 -16 33 -31q27 0 27 -12t-21 -13q-18 1 -18 21zM508 182q-14 0 -24 12t-11 22q0 10 10 22t25 12q25 0 25 -34t-25 -34zM508 270q-51 0 -51 -54t51 -54q23 0 35 16
t12 38t-12 38t-35 16zM336 270v-108h18v76l27 -76h20l23 76v-76h18v108h-28l-19 -73l-28 73h-31zM336 446h166l-152 154v365l522 -519l525 519v-365l-152 -154h172v773l-545 -539l-536 539v-773zM1571 0h-1407v1407h1407v-1407z" />
    <glyph glyph-name="published" horiz-adv-x="1669" 
d="M233 702q1 -252 175 -429t426 -177t426 177t174 429t-174 430t-426 179q-252 -1 -426 -179t-175 -430zM119 702q0 301 208 513t507 212q300 0 508 -212t208 -513t-209 -512q-209 -210 -507 -210t-507 210q-208 210 -208 512zM756 938v-233h155q53 1 86 35t33 81t-32 82
t-83 35h-159zM915 594h-159v-260h-113v717h272q109 0 167 -68t58 -158q0 -91 -58 -161t-167 -70z" />
    <glyph glyph-name="frenchfranc" horiz-adv-x="1486" 
d="M1251 713q-135 0 -205 -156t-69 -369v-188h-137v694h-498v-694h-135v1411h792v-135h-657v-447h635v-217q68 238 274 238q47 0 95 -12t61 -25l-16 -133q-66 33 -140 33z" />
    <glyph glyph-name="parenleft.case" horiz-adv-x="739" 
d="M655 -262q-248 0 -396 253t-148 701t148 699q148 252 396 251v-135q-186 0 -298 -216q-111 -216 -111 -600t112 -601t297 -217v-135z" />
    <glyph glyph-name="parenright.case" horiz-adv-x="739" 
d="M84 -262v135q186 0 298 217t112 601t-112 600t-298 216v135q248 0 396 -252t148 -698q0 -448 -148 -701t-396 -253z" />
    <glyph glyph-name="hyphen.case" horiz-adv-x="993" 
d="M147 758h699v-129h-699v129z" />
    <glyph glyph-name="at.case" horiz-adv-x="2021" 
d="M1264 471v272q0 119 -83 201t-200 82t-200 -82t-83 -200t83 -200t197 -83q114 0 200 86v-146q-98 -66 -197 -65q-170 0 -289 119t-119 289t119 288q119 119 286 119t286 -114t125 -275v-305q0 -152 163 -152q74 0 128 46t81 122q49 138 49 295q0 319 -238 535
q-239 215 -567 215q-329 0 -551 -230t-222 -556q0 -327 222 -553t547 -226h37v-125h-37q-377 0 -635 262t-260 641q0 379 260 645t635 266q250 0 464 -112t343 -315q129 -202 129 -428t-83 -400q-42 -90 -120 -146q-78 -57 -193 -57q-113 0 -195 67t-82 220z" />
    <glyph glyph-name="bracketleft.case" horiz-adv-x="612" 
d="M182 -248v1874h336v-137h-199v-1598h199v-139h-336z" />
    <glyph glyph-name="bracketright.case" horiz-adv-x="612" 
d="M430 1626v-1874h-336v139h199v1598h-199v137h336z" />
    <glyph glyph-name="braceleft.case" horiz-adv-x="811" 
d="M352 496v-349q0 -117 77 -193t187 -77h111v-125h-111q-168 0 -284 110t-115 285v349q0 55 -39 98t-92 43v117q53 0 92 43t39 98v352q-2 176 115 286t284 109h111v-124h-111q-112 0 -188 -77t-76 -194v-352q0 -63 -33 -121t-88 -80q51 -18 86 -78t35 -120z" />
    <glyph glyph-name="braceright.case" horiz-adv-x="811" 
d="M459 147v349q0 61 35 120t86 78q-55 23 -88 80t-33 121v352q0 117 -77 194t-187 77h-111v124h111q169 0 285 -110t114 -285v-352q0 -55 39 -98t92 -43v-117q-53 0 -92 -43t-39 -98v-349q0 -175 -116 -285t-283 -110h-111v125h111q111 1 187 77t77 193z" />
    <glyph glyph-name="exclamdown.case" horiz-adv-x="524" 
d="M207 1020h110l13 -1020h-135zM375 1313q0 -45 -33 -76t-80 -31t-80 31t-32 76q0 45 32 76q33 31 80 31t80 -32q33 -30 33 -75z" />
    <glyph glyph-name="guillemotleft.case" horiz-adv-x="980" 
d="M430 690l283 424h127l-283 -424l283 -424h-127zM123 690l283 424h126l-282 -424l282 -424h-126z" />
    <glyph glyph-name="periodcentered.case" horiz-adv-x="520" 
d="M147 754q0 46 33 76t80 30t80 -31t33 -75t-33 -76q-33 -31 -80 -31t-80 31t-33 76z" />
    <glyph glyph-name="guillemotright.case" horiz-adv-x="980" 
d="M551 690l-283 -424h-127l283 424l-283 424h127zM858 690l-283 -424h-126l282 424l-282 424h126z" />
    <glyph glyph-name="questiondown.case" horiz-adv-x="997" 
d="M735 1321q0 -45 -33 -76q-34 -31 -80 -31t-79 31t-33 76t33 76t80 31t79 -32q32 -30 33 -75zM766 377h135q0 -176 -116 -286q-117 -109 -285 -109t-291 110t-123 285q0 141 83 243t210 140q84 25 130 73t46 136v59h135v-59q0 -256 -270 -338q-84 -27 -141 -95t-57 -170
q0 -104 83 -177q84 -73 196 -73q113 0 189 72t76 189z" />
    <glyph glyph-name="endash.case" horiz-adv-x="1222" 
d="M150 750h923v-121h-923v121z" />
    <glyph glyph-name="emdash.case" horiz-adv-x="1665" 
d="M150 750h1366v-121h-1366v121z" />
    <glyph glyph-name="bullet.case" horiz-adv-x="937" 
d="M174 705q0 121 86 201t209 79q123 0 209 -80q86 -81 86 -201t-86 -200t-209 -80t-209 80t-86 201z" />
    <glyph glyph-name="guilsinglleft.case" horiz-adv-x="673" 
d="M123 690l283 424h126l-282 -424l282 -424h-126z" />
    <glyph glyph-name="guilsinglright.case" horiz-adv-x="673" 
d="M551 690l-283 -424h-127l283 424l-283 424h127z" />
    <glyph glyph-name="cent.case" horiz-adv-x="1071" 
d="M625 1421v-217q190 -10 323 -129l-96 -96q-102 90 -252 90t-255 -99t-105 -261q0 -163 105 -265t255 -102t252 92l98 -96q-131 -121 -325 -131v-230h-103v236q-182 27 -300 162t-118 334t118 331t300 158v223h103z" />
    <glyph glyph-name="zero.tnum" horiz-adv-x="1187" 
d="M246 679q0 -263 78 -414t277 -151t276 168q67 147 67 403q0 257 -77 408t-271 151t-272 -152q-78 -150 -78 -413zM358 33q-247 134 -247 644q0 511 246 648q97 53 237 53q283 0 390 -207q97 -186 95 -493q0 -512 -245 -645q-98 -53 -238 -53t-238 53z" />
    <glyph glyph-name="one.tnum" horiz-adv-x="1187" 
d="M582 0v1186l-232 -80v123l367 133v-1362h-135z" />
    <glyph glyph-name="two.tnum" horiz-adv-x="1187" 
d="M587 1378q167 0 287 -110t121 -284q0 -175 -147 -343l-428 -506h577v-135h-817v47l570 690q110 131 110 249t-81 188t-197 70t-196 -60q-81 -59 -95 -160l-125 33q25 147 139 234q115 87 282 87z" />
    <glyph glyph-name="three.tnum" horiz-adv-x="1187" 
d="M573 664h-131v129h131q102 -2 175 62q72 65 76 160t-57 157q-59 62 -161 68t-176 -27q-74 -34 -108 -93l-109 68q55 94 159 147t224 45q186 -14 284 -125t81 -262q-7 -81 -59 -153t-134 -107q114 -27 186 -141t62 -236q-14 -168 -158 -278t-330 -96q-131 10 -234 78
t-151 173l123 56q30 -70 104 -117t186 -55q112 -9 213 67t110 193q4 115 -87 201t-219 86z" />
    <glyph glyph-name="four.tnum" horiz-adv-x="1187" 
d="M766 416v676l-465 -676h465zM901 291v-291h-135v291h-713l748 1071h100v-946h205v-125h-205z" />
    <glyph glyph-name="five.tnum" horiz-adv-x="1187" 
d="M915 429q0 134 -94 212q-93 78 -203 78t-185 -23t-200 -84l-53 72l119 678h668v-137h-551l-82 -451q168 84 274 84q188 0 318 -116t131 -318q0 -202 -131 -323q-131 -122 -353 -121q-141 0 -268 80t-188 206l116 84q39 -98 137 -164t203 -65q160 0 251 87t91 221z" />
    <glyph glyph-name="six.tnum" horiz-adv-x="1187" 
d="M834 627q-80 90 -206 94t-220 -79t-96 -212q-3 -129 82 -219t210 -94t212 79t93 212q4 129 -75 219zM1010 1149l-119 -51q-66 135 -242 145q-184 5 -265 -153t-75 -400q33 86 128 129t196 39q182 -8 301 -142q118 -134 110 -316t-136 -306q-128 -122 -308 -114t-295 130
t-131 328q-14 309 20 513t157 319q124 115 304 108q123 -6 213 -55t142 -174z" />
    <glyph glyph-name="seven.tnum" horiz-adv-x="1187" 
d="M182 1227v135h903l-55 -105l-694 -1257h-160l678 1227h-672z" />
    <glyph glyph-name="eight.tnum" horiz-adv-x="1187" 
d="M379 1045q0 -83 58 -142t145 -61h18q90 2 151 61q60 59 60 142t-62 141q-63 58 -155 57q-92 0 -154 -57q-61 -58 -61 -141zM268 412q0 -123 93 -210t231 -87t231 87q94 87 95 212q0 125 -94 215t-232 90h-14q-130 -4 -220 -94t-90 -213zM244 1034q0 148 100 246t249 98
t251 -97t102 -245t-125 -245q107 -57 169 -157t63 -220q0 -182 -133 -308t-328 -126t-327 126t-132 308q-1 119 61 219t168 158q-118 95 -118 243z" />
    <glyph glyph-name="nine.tnum" horiz-adv-x="1187" 
d="M374 1160q-87 -83 -92 -212q-6 -129 74 -219t206 -94t220 79t96 212q3 129 -82 219t-210 94t-212 -79zM168 207l119 51q66 -133 254 -145q184 -5 265 153t75 400q-33 -86 -128 -129t-196 -39q-182 8 -301 142t-111 316q9 182 137 306t308 114q180 -8 295 -130t131 -328
q14 -309 -20 -513t-158 -319t-303 -109q-273 13 -367 230z" />
    <glyph glyph-name="zero.taboldstyle" horiz-adv-x="1187" 
d="M593 115q151 1 257 111t106 286t-106 285t-258 109t-257 -110q-105 -108 -105 -284t106 -286t257 -111zM593 -20q-206 0 -352 148q-147 148 -147 385t146 382t353 145q208 0 353 -145q146 -145 146 -382t-146 -385t-353 -148z" />
    <glyph glyph-name="one.taboldstyle" horiz-adv-x="1187" 
d="M770 0h-135v846l-318 -121v133l453 191v-1049z" />
    <glyph glyph-name="two.taboldstyle" horiz-adv-x="1187" 
d="M801 751q-1 77 -59 123t-147 46t-147 -41t-65 -113q-129 27 -131 27q12 119 112 191t241 73q143 0 241 -85t98 -220t-125 -256l-346 -361h473v-135h-735v47l504 545q86 82 86 159z" />
    <glyph glyph-name="six.taboldstyle" horiz-adv-x="1187" 
d="M834 627q-80 90 -206 94t-220 -79t-96 -212q-3 -129 82 -219t210 -94t212 79t93 212q4 129 -75 219zM1010 1149l-119 -51q-66 135 -242 145q-184 5 -265 -153t-75 -400q33 86 128 129t196 39q182 -8 301 -142q118 -134 110 -316t-136 -306q-128 -122 -308 -114t-295 130
t-131 328q-14 309 20 513t157 319q124 115 304 108q123 -6 213 -55t142 -174z" />
    <glyph glyph-name="eight.taboldstyle" horiz-adv-x="1187" 
d="M379 1045q0 -83 58 -142t145 -61h18q90 2 151 61q60 59 60 142t-62 141q-63 58 -155 57q-92 0 -154 -57q-61 -58 -61 -141zM268 412q0 -123 93 -210t231 -87t231 87q94 87 95 212q0 125 -94 215t-232 90h-14q-130 -4 -220 -94t-90 -213zM244 1034q0 148 100 246t249 98
t251 -97t102 -245t-125 -245q107 -57 169 -157t63 -220q0 -182 -133 -308t-328 -126t-327 126t-132 308q-1 119 61 219t168 158q-118 95 -118 243z" />
    <glyph glyph-name="three.taboldstyle" horiz-adv-x="1187" 
d="M578 252h-132v129h132q102 -1 174 63t76 159t-57 157q-59 62 -161 69t-176 -27t-108 -93l-109 67q55 94 159 148t224 45q186 -14 284 -125t81 -262q-7 -82 -59 -154t-134 -106q114 -27 186 -142t62 -235q-14 -168 -158 -278t-330 -97q-131 10 -234 79t-151 173l123 55
q30 -70 104 -117t186 -55t213 68t110 192q4 115 -87 201t-218 86z" />
    <glyph glyph-name="four.taboldstyle" horiz-adv-x="1187" 
d="M766 6v676l-465 -676h465zM901 -119v-291h-135v291h-713l748 1071h100v-946h205v-125h-205z" />
    <glyph glyph-name="five.taboldstyle" horiz-adv-x="1187" 
d="M573 -285q160 0 251 87q91 88 91 222t-94 212q-93 78 -203 78t-185 -24q-75 -22 -200 -83l-53 72l119 677h668v-137h-551l-82 -450q168 84 274 84q188 0 318 -116q130 -115 131 -317q0 -202 -131 -324t-353 -122q-141 0 -268 80t-188 207l116 84q39 -98 137 -164t203 -66
z" />
    <glyph glyph-name="seven.taboldstyle" horiz-adv-x="1187" 
d="M182 817v135h903l-749 -1362h-160l678 1227h-672z" />
    <glyph glyph-name="nine.taboldstyle" horiz-adv-x="1187" 
d="M362 319q80 -90 206 -94t220 79t96 212q3 129 -82 219t-210 94q-125 3 -212 -79t-92 -211t74 -220zM174 -203l119 51q66 -133 254 -145q184 -6 265 153t75 400q-33 -86 -128 -129t-196 -39q-182 8 -301 142q-118 134 -110 316t136 306q128 123 308 115t295 -130t131 -329
q14 -309 -20 -513t-158 -319t-303 -108q-273 12 -367 229z" />
    <glyph glyph-name="zero.oldstyle" horiz-adv-x="1226" 
d="M250 512q0 -176 106 -286t257 -111q151 1 257 111t107 286q-1 176 -107 285t-258 109t-257 -110q-105 -108 -105 -284zM613 1040q207 0 353 -145t146 -382t-146 -385t-353 -148q-206 0 -352 148t-146 385t145 382t353 145z" />
    <glyph glyph-name="one.oldstyle" horiz-adv-x="724" 
d="M539 0h-136v846l-317 -121v133l453 191v-1049z" />
    <glyph glyph-name="two.oldstyle" horiz-adv-x="962" 
d="M688 751q0 77 -58 123t-148 46t-147 -41q-58 -41 -65 -113q-129 27 -131 27q11 119 111 191t242 73q142 0 240 -85t99 -220q0 -135 -124 -256l-347 -361h474v-135h-736v47l504 545q86 82 86 159z" />
    <glyph glyph-name="three.oldstyle" horiz-adv-x="1054" 
d="M512 252h-131v129h131q102 -1 174 63t76 159t-56 157t-162 69t-176 -27t-108 -93l-108 67q55 94 158 148t225 45q186 -14 283 -125t81 -262q-6 -82 -58 -154t-134 -106q115 -27 187 -142t60 -235q-14 -168 -157 -278t-330 -97q-131 10 -235 79q-103 69 -150 173l123 55
q31 -70 104 -117t185 -55t214 68q101 75 107 191t-85 202t-218 86z" />
    <glyph glyph-name="four.oldstyle" horiz-adv-x="1177" 
d="M762 6v676l-465 -676h465zM897 -119v-291h-135v291h-713l748 1071h100v-946h205v-125h-205z" />
    <glyph glyph-name="five.oldstyle" horiz-adv-x="1116" 
d="M539 -285q160 0 251 87q91 88 91 222q-1 134 -95 212t-204 78t-184 -24q-75 -22 -199 -83l-54 72l119 677h668v-137h-551l-82 -450q168 84 274 84q189 0 319 -116q130 -115 130 -317t-131 -324t-352 -122q-141 0 -269 80q-127 80 -188 207l117 84q39 -98 136 -164
t204 -66z" />
    <glyph glyph-name="six.oldstyle" horiz-adv-x="1138" 
d="M384 642q-93 -83 -96 -212t82 -219t210 -94t212 79t93 212q4 129 -76 219t-206 94t-219 -79zM985 1149l-119 -51q-66 135 -241 145q-184 6 -266 -152q-81 -159 -74 -401q33 86 128 129t195 39q182 -8 301 -142t111 -316t-136 -306q-128 -122 -308 -114t-296 130
q-114 122 -130 328q-14 309 22 533q31 184 155 299t304 108q123 -6 212 -55t142 -174z" />
    <glyph glyph-name="seven.oldstyle" horiz-adv-x="1021" 
d="M100 817v135h904l-750 -1362h-160l678 1227h-672z" />
    <glyph glyph-name="eight.oldstyle" horiz-adv-x="1157" 
d="M365 1045q0 -83 58 -142t144 -61h19q90 2 150 61t60 142t-62 141t-154 57q-92 0 -154 -57q-61 -58 -61 -141zM254 412q0 -123 93 -210t231 -87t231 87q94 87 94 212t-94 215t-231 90h-15q-131 -4 -220 -94t-89 -213zM229 1034q1 148 101 246t249 98t251 -97t102 -245
t-125 -245q107 -57 169 -157t62 -220q0 -182 -133 -308t-327 -126t-327 126q-132 126 -132 308q0 119 61 219t168 158q-119 95 -119 243z" />
    <glyph glyph-name="nine.oldstyle" horiz-adv-x="1095" 
d="M317 319q80 -90 206 -94q125 -4 219 79t97 212t-82 219t-210 94q-125 3 -212 -79t-92 -211t74 -220zM129 -203l119 51q66 -133 254 -145q184 -6 265 153t75 400q-33 -86 -128 -129t-196 -39q-182 8 -301 142t-111 316t136 306q128 123 309 115q180 -8 295 -130t131 -329
q14 -309 -20 -513q-33 -204 -157 -319t-304 -108q-273 12 -367 229z" />
    <glyph glyph-name="Lslash.sc" horiz-adv-x="888" 
d="M326 1200v-434l186 117v-105l-186 -119v-536h505v-123h-628v582l-117 -72v104l117 74v512h123z" />
    <glyph glyph-name="Zcaron.sc" horiz-adv-x="1019" 
d="M381 1561l123 -152l125 152h123l-170 -240h-154l-170 240h123zM119 1077v123h796v-121l-671 -956h671v-123h-821v119l670 958h-645z" />
    <glyph glyph-name="exclam.sc" horiz-adv-x="520" 
d="M260 170q40 0 70 -26t30 -67q0 -40 -28 -67q-28 -26 -71 -26q-42 0 -71 26q-28 26 -28 67t28 67t70 26zM199 1200h123l-13 -878h-98z" />
    <glyph glyph-name="ampersand.sc" horiz-adv-x="1198" 
d="M784 631h-270q-114 0 -192 -79q-78 -78 -78 -188t76 -185t192 -75q117 0 193 72t79 178v277zM518 739h266v154h119v-156h158v-106h-158v-264q0 -129 39 -199t152 -70v-114q-100 0 -171 43t-96 112q-41 -71 -128 -113t-185 -42q-172 0 -282 110t-109 273q0 102 53 189
t146 138q-102 82 -102 214t88 218q89 84 218 84q90 0 163 -42t114 -111l-103 -64q-59 96 -174 97q-82 0 -134 -50t-52 -124t50 -126t128 -51z" />
    <glyph glyph-name="question.sc" horiz-adv-x="882" 
d="M238 77q0 41 28 67t71 26q42 0 71 -27q28 -27 28 -67t-30 -66t-70 -26q-41 0 -70 26q-28 27 -28 67zM221 870h-123q0 154 98 248t242 94q142 0 248 -94t106 -228t-71 -222q-72 -86 -162 -114t-126 -58t-36 -101v-73h-121v73q0 115 60 175t150 88t137 84t47 142t-69 146
t-162 60t-155 -61t-63 -159z" />
    <glyph glyph-name="A.sc" horiz-adv-x="1161" 
d="M307 313l-121 -313h-131l461 1200h131l459 -1200h-131l-121 313h-547zM350 428h461l-229 602z" />
    <glyph glyph-name="B.sc" horiz-adv-x="1124" 
d="M664 578h-347v-457h353q96 0 156 63q60 64 60 152t-62 165q-64 77 -160 77zM317 692h326q88 0 134 60t46 146q0 87 -56 134t-149 47h-301v-387zM946 899q0 -205 -147 -260q90 -19 150 -109t61 -192q0 -142 -91 -240t-247 -98h-479v1200h440q145 0 229 -81t84 -220z" />
    <glyph glyph-name="C.sc" horiz-adv-x="1200" 
d="M701 -18q-255 0 -421 179t-167 437q0 258 167 436q168 178 422 178t426 -182l-86 -84q-145 146 -345 146q-201 0 -331 -144t-130 -351q0 -208 131 -350t333 -142t344 147l86 -86q-174 -184 -429 -184z" />
    <glyph glyph-name="D.sc" horiz-adv-x="1294" 
d="M643 0h-450v1200h450q248 0 390 -170q143 -170 143 -432t-142 -430t-391 -168zM315 1077v-954h328q199 0 304 131t106 344q-1 213 -107 346t-303 133h-328z" />
    <glyph glyph-name="E.sc" horiz-adv-x="1015" 
d="M193 0v1200h688v-121h-566v-430h496v-121h-496v-407h584v-121h-706z" />
    <glyph glyph-name="F.sc" horiz-adv-x="946" 
d="M193 0v1200h677v-121h-555v-430h441v-121h-441v-528h-122z" />
    <glyph glyph-name="G.sc" horiz-adv-x="1355" 
d="M788 477v113h486q0 -301 -148 -455q-148 -153 -407 -153q-258 0 -432 180t-174 436t174 435t428 179q219 0 387 -141l-88 -86q-130 107 -316 107t-324 -144t-138 -351q0 -206 138 -349q138 -144 334 -144t307 100q112 100 122 273h-349z" />
    <glyph glyph-name="H.sc" horiz-adv-x="1275" 
d="M961 1200h122v-1200h-122v539h-646v-539h-122v1200h122v-547h646v547z" />
    <glyph glyph-name="I.sc" horiz-adv-x="507" 
d="M193 1200h122v-1200h-122v1200z" />
    <glyph glyph-name="J.sc" horiz-adv-x="507" 
d="M193 1200h122v-1263q0 -171 -87 -277t-271 -106q-60 0 -113 14l13 121q39 -14 100 -15q121 0 178 73t58 190v1263z" />
    <glyph glyph-name="K.sc" horiz-adv-x="1017" 
d="M315 0h-122v1200h122v-573l443 573h145l-465 -600l568 -600h-166l-525 555v-555z" />
    <glyph glyph-name="L.sc" horiz-adv-x="878" 
d="M193 0v1200h122v-1079h506v-121h-628z" />
    <glyph glyph-name="M.sc" horiz-adv-x="1679" 
d="M840 274l448 926h121l147 -1200h-120l-121 979l-414 -848h-121l-415 848l-121 -979h-121l145 1200h121z" />
    <glyph glyph-name="N.sc" horiz-adv-x="1232" 
d="M1040 1200v-1200h-125l-600 987v-987h-122v1200h129l596 -981v981h122z" />
    <glyph glyph-name="O.sc" horiz-adv-x="1433" 
d="M113 598q0 256 174 435t429 179t430 -179t175 -435t-175 -436t-430 -180t-429 180t-174 436zM236 597q0 -206 138 -349q138 -144 342 -144t343 144t139 349q0 206 -139 350q-139 145 -343 145t-342 -144t-138 -351z" />
    <glyph glyph-name="P.sc" horiz-adv-x="1089" 
d="M193 0v1200h473q172 0 256 -108t84 -262q0 -155 -84 -260t-256 -105h-349v-465h-124zM666 1079h-349v-493h340q115 0 170 70t55 174q0 103 -53 176q-54 73 -163 73z" />
    <glyph glyph-name="Q.sc" horiz-adv-x="1433" 
d="M236 598q0 -205 136 -347t339 -145q78 0 137 15l-133 217l100 65l146 -233q109 66 173 180t64 248q0 205 -139 349q-139 145 -343 145t-342 -144t-138 -350zM113 598q0 256 174 435t429 179t430 -179t175 -435q0 -166 -80 -306t-215 -224l129 -201l-100 -66l-137 215
q-98 -35 -203 -34q-254 0 -428 180t-174 436z" />
    <glyph glyph-name="R.sc" horiz-adv-x="1101" 
d="M317 465v-465h-124v1200h448q172 0 254 -106t82 -260t-78 -258q-78 -103 -240 -111l330 -465h-151l-328 465h-193zM639 1079h-322v-493h314q115 0 169 70t54 175q0 104 -52 176t-163 72z" />
    <glyph glyph-name="S.sc" horiz-adv-x="1032" 
d="M242 344q0 -94 76 -171t197 -77q120 0 194 60t88 141q29 188 -224 248l-159 37q-285 66 -285 303q0 143 114 235q113 92 271 92t264 -94t107 -250h-123q0 100 -72 162t-178 62t-183 -58t-77 -149q0 -145 188 -187l164 -36q162 -36 250 -132t64 -254q-23 -118 -128 -206
q-104 -88 -276 -88t-284 112t-111 250h123z" />
    <glyph glyph-name="T.sc" horiz-adv-x="999" 
d="M57 1077v123h885v-123h-381v-1077h-123v1077h-381z" />
    <glyph glyph-name="U.sc" horiz-adv-x="1214" 
d="M608 104q127 0 215 84t88 220v792h123v-792q0 -188 -124 -308t-303 -118q-179 0 -303 118t-124 308v792h123v-792q0 -136 89 -220t216 -84z" />
    <glyph glyph-name="V.sc" horiz-adv-x="1001" 
d="M78 1200h127l297 -997l295 997h127l-359 -1200h-127z" />
    <glyph glyph-name="W.sc" horiz-adv-x="1626" 
d="M1104 195l330 1005h131l-406 -1200h-115l-231 795l-231 -795h-115l-406 1200h132l329 -1005l244 845h94z" />
    <glyph glyph-name="X.sc" horiz-adv-x="1077" 
d="M985 1200l-373 -555l422 -645h-149l-346 543l-346 -543h-148l420 645l-373 555h150l297 -450l299 450h147z" />
    <glyph glyph-name="Y.sc" horiz-adv-x="1118" 
d="M623 0h-127v557l-451 643h148l366 -512l373 512h147l-456 -643v-557z" />
    <glyph glyph-name="Z.sc" horiz-adv-x="1019" 
d="M119 1077v123h796v-121l-671 -956h671v-123h-821v119l670 958h-645z" />
    <glyph glyph-name="Scaron.sc" horiz-adv-x="1032" 
d="M242 344q0 -94 76 -171t197 -77q120 0 194 60t88 141q29 188 -224 248l-159 37q-285 66 -285 303q0 143 114 235q113 92 271 92t264 -94t107 -250h-123q0 100 -72 162t-178 62t-183 -58t-77 -149q0 -145 188 -187l164 -36q162 -36 250 -132t64 -254q-23 -118 -128 -206
q-104 -88 -276 -88t-284 112t-111 250h123zM395 1591l123 -149l125 149h121l-168 -239h-154l-170 239h123z" />
    <glyph glyph-name="OE.sc" horiz-adv-x="2019" 
d="M1196 1200h688v-123h-565v-428h493v-123h-493v-403h584v-123h-707v225q-84 -113 -209 -179t-272 -64q-254 0 -428 180t-174 436t174 435t428 179q147 0 272 -64t209 -177v229zM236 598q0 -205 138 -348q138 -144 339 -144t338 136t145 333v43q-8 197 -145 334
q-137 138 -338 138t-339 -144t-138 -348z" />
    <glyph glyph-name="Ydieresis.sc" horiz-adv-x="1118" 
d="M623 1466q0 37 27 63q28 25 66 25t64 -24t27 -63q0 -39 -27 -63q-26 -24 -64 -24t-66 24t-27 62zM502 1467q0 -39 -27 -63t-65 -24t-66 24q-27 24 -27 63q0 38 27 63q27 24 66 24q40 0 66 -24t26 -63zM623 0h-127v557l-451 643h148l366 -512l373 512h147l-456 -643v-557z
" />
    <glyph glyph-name="exclamdown.sc" horiz-adv-x="518" 
d="M259 1217q43 0 71 -27t28 -67q0 -41 -30 -67t-70 -26q-41 0 -70 27q-28 27 -28 67t28 66q29 27 71 27zM319 0h-122l12 879h98z" />
    <glyph glyph-name="questiondown.sc" horiz-adv-x="870" 
d="M664 736q0 -40 -29 -66t-71 -27q-42 0 -70 27q-28 26 -29 66q0 40 29 67q30 27 70 27t70 -28q30 -26 30 -66zM680 -59h123q0 -152 -98 -246q-99 -94 -243 -94t-249 93q-104 92 -104 228q1 136 71 222t178 118q145 43 146 170v60h121v-60q0 -215 -230 -285
q-69 -20 -117 -77t-48 -142q0 -86 69 -146q70 -60 163 -60q94 0 156 60q62 61 62 159z" />
    <glyph glyph-name="Agrave.sc" horiz-adv-x="1161" 
d="M307 313l-121 -313h-131l461 1200h131l459 -1200h-131l-121 313h-547zM350 428h461l-229 602zM645 1321h-125l-155 240h149z" />
    <glyph glyph-name="Aacute.sc" horiz-adv-x="1161" 
d="M186 0h-131l461 1200h131l459 -1200h-131l-121 313h-547zM811 428l-229 602l-232 -602h461zM793 1561l-156 -240h-125l131 240h150z" />
    <glyph glyph-name="Acircumflex.sc" horiz-adv-x="1161" 
d="M307 313l-121 -313h-131l461 1200h131l459 -1200h-131l-121 313h-547zM350 428h461l-229 602zM827 1321h-122l-125 149l-123 -149h-123l170 240h153z" />
    <glyph glyph-name="Atilde.sc" horiz-adv-x="1161" 
d="M307 313l-121 -313h-131l461 1200h131l459 -1200h-131l-121 313h-547zM350 428h461l-229 602zM502 1440q-20 0 -38 -20t-20 -58h-92q6 100 49 145t93 45t96 -36q45 -36 67 -37q22 0 40 17q17 17 20 56h92q-6 -100 -49 -143q-44 -43 -94 -43t-97 37t-67 37z" />
    <glyph glyph-name="Adieresis.sc" horiz-adv-x="1161" 
d="M186 0h-131l461 1200h131l459 -1200h-131l-121 313h-547zM811 428l-229 602l-232 -602h461zM639 1466q0 37 28 63q27 25 65 25t65 -24t27 -63t-28 -63q-26 -24 -64 -24t-66 24t-27 62zM426 1380q-40 0 -66 24t-26 63q0 38 26 63q27 24 66 24t66 -24q26 -24 26 -63
t-26 -63t-66 -24z" />
    <glyph glyph-name="Aring.sc" horiz-adv-x="1161" 
d="M186 0h-131l461 1200h131l459 -1200h-131l-121 313h-547zM811 428l-229 602l-232 -602h461zM500 1487q0 -35 22 -57t58 -23q36 0 58 24q22 23 22 57t-24 58t-58 23q-34 1 -56 -23t-22 -59zM408 1487q0 72 49 122t122 50t123 -50t50 -122t-50 -121t-124 -49q-72 0 -121 49
t-49 121z" />
    <glyph glyph-name="AE.sc" horiz-adv-x="1685" 
d="M862 313h-477l-199 -313h-145l758 1200h751v-123h-565v-428h494v-123h-494v-403h584v-123h-707v313zM862 428v637l-405 -637h405z" />
    <glyph glyph-name="Ccedilla.sc" horiz-adv-x="1204" 
d="M115 608q0 248 167 426q168 178 422 178t426 -182l-86 -84q-145 146 -345 146q-201 0 -331 -144t-130 -351q0 -208 131 -350t333 -142t345 147l86 -86q-166 -176 -410 -182l43 -101q18 -43 13 -99t-59 -100q-54 -46 -122 -39t-114 59t-46 124l97 -8q-3 -43 33 -69t73 -9
q31 12 42 44t-1 60l-59 142q-223 27 -366 199q-142 173 -142 421z" />
    <glyph glyph-name="Egrave.sc" horiz-adv-x="1015" 
d="M193 0v1200h688v-121h-566v-430h496v-121h-496v-407h584v-121h-706zM621 1321h-125l-156 240h152z" />
    <glyph glyph-name="Eacute.sc" horiz-adv-x="1015" 
d="M193 1200h688v-121h-566v-430h496v-121h-496v-407h584v-121h-706v1200zM707 1561l-156 -240h-125l131 240h150z" />
    <glyph glyph-name="Ecircumflex.sc" horiz-adv-x="1015" 
d="M193 0v1200h688v-121h-566v-430h496v-121h-496v-407h584v-121h-706zM758 1321h-123l-123 149l-125 -149h-121l170 240h152z" />
    <glyph glyph-name="Edieresis.sc" horiz-adv-x="1015" 
d="M193 1200h688v-121h-566v-430h496v-121h-496v-407h584v-121h-706v1200zM756 1467q0 -39 -27 -63t-65 -24t-66 24q-27 24 -27 63q0 38 27 63q27 24 66 24q40 0 66 -24t26 -63zM451 1466q0 -38 -28 -62t-66 -24q-39 0 -65 24t-26 63q0 38 27 63q27 24 65 24t65 -26
q28 -26 28 -62z" />
    <glyph glyph-name="Igrave.sc" horiz-adv-x="507" 
d="M193 1200h122v-1200h-122v1200zM315 1321h-125l-155 240h151z" />
    <glyph glyph-name="Iacute.sc" horiz-adv-x="507" 
d="M315 1200v-1200h-122v1200h122zM471 1561l-156 -240h-125l129 240h152z" />
    <glyph glyph-name="Icircumflex.sc" horiz-adv-x="507" 
d="M193 1200h122v-1200h-122v1200zM502 1321h-123l-125 149l-123 -149h-123l170 240h154z" />
    <glyph glyph-name="Idieresis.sc" horiz-adv-x="507" 
d="M315 1200v-1200h-122v1200h122zM315 1466q0 37 28 63q28 25 66 25q39 0 65 -24t26 -63t-27 -63t-65 -24t-65 24q-28 24 -28 62zM195 1466q0 -38 -28 -62t-66 -24q-39 0 -65 24t-26 63q0 38 27 63q27 24 65 24t65 -26q28 -26 28 -62z" />
    <glyph glyph-name="Eth.sc" horiz-adv-x="1302" 
d="M651 0h-450v545h-170v108h170v547h450q248 0 390 -170q143 -170 143 -432t-142 -430t-391 -168zM324 1077v-424h297v-108h-297v-422h327q199 0 304 131t106 344q-1 213 -107 346t-303 133h-327z" />
    <glyph glyph-name="Ntilde.sc" horiz-adv-x="1232" 
d="M1040 1200v-1200h-125l-600 987v-987h-122v1200h129l596 -981v981h122zM538 1440q-20 0 -38 -20t-21 -58h-90q6 100 49 145q42 45 92 45t96 -36t67 -37q21 0 40 17q18 17 19 56h92q-6 -100 -49 -143t-93 -43t-98 37q-47 37 -66 37z" />
    <glyph glyph-name="Ograve.sc" horiz-adv-x="1433" 
d="M113 598q0 256 174 435t429 179t430 -179t175 -435t-175 -436t-430 -180t-429 180t-174 436zM236 597q0 -206 138 -349q138 -144 342 -144t343 144t139 349q0 206 -139 350q-139 145 -343 145t-342 -144t-138 -351zM791 1321h-123l-158 240h152z" />
    <glyph glyph-name="Oacute.sc" horiz-adv-x="1433" 
d="M113 598q0 256 174 435t429 179t430 -179t175 -435t-175 -436t-430 -180t-429 180t-174 436zM236 597q0 -206 138 -349q138 -144 342 -144t343 144t139 349q0 206 -139 350q-139 145 -343 145t-342 -144t-138 -351zM911 1561l-155 -240h-125l131 240h149z" />
    <glyph glyph-name="Ocircumflex.sc" horiz-adv-x="1433" 
d="M113 598q0 256 174 435t429 179t430 -179t175 -435t-175 -436t-430 -180t-429 180t-174 436zM236 597q0 -206 138 -349q138 -144 342 -144t343 144t139 349q0 206 -139 350q-139 145 -343 145t-342 -144t-138 -351zM963 1321h-123l-125 149l-123 -149h-123l170 240h154z
" />
    <glyph glyph-name="Otilde.sc" horiz-adv-x="1433" 
d="M113 598q0 256 174 435t429 179t430 -179t175 -435t-175 -436t-430 -180t-429 180t-174 436zM236 597q0 -206 138 -349q138 -144 342 -144t343 144t139 349q0 206 -139 350q-139 145 -343 145t-342 -144t-138 -351zM802 1366q-50 0 -98 37t-66 37q-20 0 -38 -20t-20 -58
h-91q5 100 49 145t93 45t95 -36t68 -37q22 0 40 17t18 56h92q-6 -100 -49 -143t-93 -43z" />
    <glyph glyph-name="Odieresis.sc" horiz-adv-x="1433" 
d="M113 598q0 256 174 435t429 179t430 -179t175 -435t-175 -436t-430 -180t-429 180t-174 436zM236 597q0 -206 138 -349q138 -144 342 -144t343 144t139 349q0 206 -139 350q-139 145 -343 145t-342 -144t-138 -351zM870 1380q-40 0 -66 24t-26 63q0 38 27 63q27 24 65 24
t66 -24q27 -24 27 -63t-27 -63t-66 -24zM564 1380q-38 0 -64 24t-27 63q0 38 27 63q26 24 64 24t66 -26t28 -62q0 -38 -28 -62t-66 -24z" />
    <glyph glyph-name="Oslash.sc" horiz-adv-x="1431" 
d="M111 609q0 245 174 424q173 179 415 179t410 -147l147 154l68 -68l-149 -156q143 -169 143 -411t-175 -422t-431 -180q-219 0 -387 141l-140 -143l-67 67l139 143q-147 174 -147 419zM698 1092q-188 0 -326 -144t-139 -338q0 -194 111 -331l680 698q-138 115 -326 115z
M730 104q188 0 327 144t139 334q0 192 -106 327l-678 -698q130 -107 318 -107z" />
    <glyph glyph-name="Ugrave.sc" horiz-adv-x="1214" 
d="M584 1321l-158 240h152l129 -240h-123zM608 104q127 0 215 84t88 220v792h123v-792q0 -188 -124 -308t-303 -118q-179 0 -303 118t-124 308v792h123v-792q0 -136 89 -220t216 -84z" />
    <glyph glyph-name="Uacute.sc" horiz-adv-x="1214" 
d="M805 1561l-158 -240h-123l129 240h152zM608 104q127 0 215 84t88 220v792h123v-792q0 -188 -124 -308t-303 -118q-179 0 -303 118t-124 308v792h123v-792q0 -136 89 -220t216 -84z" />
    <glyph glyph-name="Ucircumflex.sc" horiz-adv-x="1214" 
d="M858 1321h-123l-125 149l-123 -149h-122l170 240h153zM608 104q127 0 215 84t88 220v792h123v-792q0 -188 -124 -308t-303 -118q-179 0 -303 118t-124 308v792h123v-792q0 -136 89 -220t216 -84z" />
    <glyph glyph-name="Udieresis.sc" horiz-adv-x="1214" 
d="M852 1466q0 -38 -28 -62t-66 -24t-64 24t-26 63q0 38 26 63q27 24 65 24q37 0 65 -26t28 -62zM362 1466q0 37 27 63q27 25 65 25t64 -24t27 -63q0 -39 -27 -63q-26 -24 -64 -24t-65 24t-27 62zM608 104q127 0 215 84t88 220v792h123v-792q0 -188 -124 -308t-303 -118
q-179 0 -303 118t-124 308v792h123v-792q0 -136 89 -220t216 -84z" />
    <glyph glyph-name="Yacute.sc" horiz-adv-x="1118" 
d="M768 1561l-156 -240h-125l131 240h150zM623 0h-127v557l-451 643h148l366 -512l373 512h147l-456 -643v-557z" />
    <glyph glyph-name="Thorn.sc" horiz-adv-x="1036" 
d="M592 250h-275v-250h-124v1200h124v-221h275q154 0 256 -100q102 -99 102 -263t-102 -265t-256 -101zM317 371h275q100 1 168 69t68 176t-69 175q-69 66 -169 65h-273v-485z" />
    <glyph glyph-name="Amacron.sc" horiz-adv-x="1161" 
d="M307 313l-121 -313h-131l461 1200h131l459 -1200h-131l-121 313h-547zM350 428h461l-229 602zM371 1434v114h420v-114h-420z" />
    <glyph glyph-name="Abreve.sc" horiz-adv-x="1161" 
d="M186 0h-131l461 1200h131l459 -1200h-131l-121 313h-547zM811 428l-229 602l-232 -602h461zM362 1583h97q6 -51 38 -84t85 -33t84 35t34 82h97q1 -97 -59 -157t-164 -60t-158 64t-54 153z" />
    <glyph glyph-name="Cacute.sc" horiz-adv-x="1200" 
d="M701 -18q-255 0 -421 179t-167 437q0 258 167 436q168 178 422 178t426 -182l-86 -84q-145 146 -345 146q-201 0 -331 -144t-130 -351q0 -208 131 -350t333 -142t344 147l86 -86q-174 -184 -429 -184zM858 1591l-158 -239h-122l129 239h151z" />
    <glyph glyph-name="Ccircumflex.sc" horiz-adv-x="1200" 
d="M701 -18q-255 0 -421 179t-167 437q0 258 167 436q168 178 422 178t426 -182l-86 -84q-145 146 -345 146q-201 0 -331 -144t-130 -351q0 -208 131 -350t333 -142t344 147l86 -86q-174 -184 -429 -184zM932 1352h-123l-125 151l-123 -151h-121l168 239h154z" />
    <glyph glyph-name="Cdotaccent.sc" horiz-adv-x="1200" 
d="M701 -18q-255 0 -421 179t-167 437q0 258 167 436q168 178 422 178t426 -182l-86 -84q-145 146 -345 146q-201 0 -331 -144t-130 -351q0 -208 131 -350t333 -142t344 147l86 -86q-174 -184 -429 -184zM571 1501q0 37 28 63t66 26q39 0 65 -26q26 -24 26 -62t-27 -62
t-65 -25q-38 1 -65 25q-28 24 -28 61z" />
    <glyph glyph-name="Ccaron.sc" horiz-adv-x="1200" 
d="M701 -18q-255 0 -421 179t-167 437q0 258 167 436q168 178 422 178t426 -182l-86 -84q-145 146 -345 146q-201 0 -331 -144t-130 -351q0 -208 131 -350t333 -142t344 147l86 -86q-174 -184 -429 -184zM547 1591l125 -149l123 149h123l-170 -239h-154l-170 239h123z" />
    <glyph glyph-name="Dcaron.sc" horiz-adv-x="1294" 
d="M643 0h-450v1200h450q248 0 390 -170q143 -170 143 -432t-142 -430t-391 -168zM315 123h328q199 0 304 131t106 344q-1 213 -107 346t-303 133h-328v-954zM496 1591l125 -149l122 149h123l-170 -239h-153l-170 239h123z" />
    <glyph glyph-name="Aogonek.sc" horiz-adv-x="1161" 
d="M924 -129q18 53 51 129l-121 313h-547l-121 -313h-131l461 1200h131l459 -1200h-51l-45 -154q-10 -32 1 -62t44 -44t69 12t33 68l96 8q0 -74 -45 -126t-106 -58q-102 -10 -156 66q-53 77 -22 161zM811 428l-229 602l-232 -602h461z" />
    <glyph glyph-name="Emacron.sc" horiz-adv-x="1015" 
d="M193 0v1200h688v-121h-566v-430h496v-121h-496v-407h584v-121h-706zM307 1434v114h418v-114h-418z" />
    <glyph glyph-name="Ebreve.sc" horiz-adv-x="1015" 
d="M193 1200h688v-121h-566v-430h496v-121h-496v-407h584v-121h-706v1200zM293 1583h96q6 -51 38 -84t85 -33t84 35t35 82h98q0 -97 -60 -157t-164 -60t-158 64t-54 153z" />
    <glyph glyph-name="Edotaccent.sc" horiz-adv-x="1015" 
d="M193 1200h688v-121h-566v-430h496v-121h-496v-407h584v-121h-706v1200zM453 1501q0 37 27 63q28 26 66 26t66 -26t27 -63q0 -37 -28 -61q-27 -24 -65 -25q-38 1 -66 25t-27 61z" />
    <glyph glyph-name="Ecaron.sc" horiz-adv-x="1015" 
d="M193 1200h688v-121h-566v-430h496v-121h-496v-407h584v-121h-706v1200zM410 1591l125 -149l122 149h123l-170 -239h-153l-168 239h121z" />
    <glyph glyph-name="Gcircumflex.sc" horiz-adv-x="1355" 
d="M788 477v113h486q0 -301 -148 -455q-148 -153 -407 -153q-258 0 -432 180t-174 436t174 435t428 179q219 0 387 -141l-88 -86q-130 107 -316 107t-324 -144t-138 -351q0 -206 138 -349q138 -144 334 -144t307 100q112 100 122 273h-349zM932 1352h-123l-125 151
l-123 -151h-123l170 239h154z" />
    <glyph glyph-name="Gbreve.sc" horiz-adv-x="1355" 
d="M788 590h486q0 -301 -148 -455q-148 -153 -407 -153q-258 0 -432 180t-174 436t174 435t428 179q219 0 387 -141l-88 -86q-130 107 -316 107t-324 -144t-138 -351q0 -206 138 -349q138 -144 334 -144t307 100q112 100 122 273h-349v113zM469 1583h98q6 -51 38 -84t85 -33
t83 34t34 83h98q0 -97 -59 -157t-163 -60t-159 64t-55 153z" />
    <glyph glyph-name="Eogonek.sc" horiz-adv-x="1015" 
d="M193 0v1200h688v-121h-566v-430h496v-121h-496v-407h584v-121l-63 -152q-12 -30 0 -60t46 -44t68 10t35 70l94 6q0 -72 -45 -124q-46 -52 -112 -59t-124 41t-64 104t18 95l63 113h-622z" />
    <glyph glyph-name="Dcroat.sc" horiz-adv-x="1302" 
d="M651 0h-450v545h-170v108h170v547h450q248 0 390 -170q143 -170 143 -432t-142 -430t-391 -168zM324 1077v-424h297v-108h-297v-422h327q199 0 304 131t106 344q-1 213 -107 346t-303 133h-327z" />
    <glyph glyph-name="Gdotaccent.sc" horiz-adv-x="1355" 
d="M788 590h486q0 -301 -148 -455q-148 -153 -407 -153q-258 0 -432 180t-174 436t174 435t428 179q219 0 387 -141l-88 -86q-130 107 -316 107t-324 -144t-138 -351q0 -206 138 -349q138 -144 334 -144t307 100q112 100 122 273h-349v113zM598 1501q0 37 28 63t66 26
t65 -26t27 -63t-28 -61t-65 -25q-37 1 -65 25t-28 61z" />
    <glyph glyph-name="Hcircumflex.sc" horiz-adv-x="1275" 
d="M961 1200h122v-1200h-122v539h-646v-539h-122v1200h122v-547h646v547zM883 1352h-121l-125 151l-123 -151h-123l170 239h152z" />
    <glyph glyph-name="Hbar.sc" horiz-adv-x="1294" 
d="M1092 1200v-213h127v-86h-127v-901h-123v537h-643v-537h-123v901h-125v86h125v213h123v-213h643v213h123zM326 901v-248h643v248h-643z" />
    <glyph glyph-name="Itilde.sc" horiz-adv-x="507" 
d="M193 1200h122v-1200h-122v1200zM176 1470q-20 0 -38 -19t-19 -58h-92q6 100 49 145t92 45t96 -36q46 -36 68 -36q22 -1 40 17t19 55h92q-6 -98 -50 -141t-93 -43q-48 -1 -96 35t-68 36z" />
    <glyph glyph-name="Imacron.sc" horiz-adv-x="507" 
d="M193 1200h122v-1200h-122v1200zM45 1434v114h418v-114h-418z" />
    <glyph glyph-name="Iogonek.sc" horiz-adv-x="507" 
d="M193 1200h122v-1200h-57l-33 -154q-16 -82 43 -104q37 -16 72 10t35 68l94 8q0 -74 -45 -126t-107 -58q-102 -10 -154 66t-24 161q6 21 28 69t26 60v1200z" />
    <glyph glyph-name="IJ.sc" horiz-adv-x="1015" 
d="M700 -63v1263h123v-1263q0 -171 -87 -277t-271 -106q-60 0 -113 14l13 121q39 -14 100 -15q121 0 178 73t57 190zM193 1200h122v-1200h-122v1200z" />
    <glyph glyph-name="Jcircumflex.sc" horiz-adv-x="507" 
d="M498 1352h-121l-125 151l-123 -151h-123l170 239h152zM193 1200h122v-1263q0 -171 -87 -277t-271 -106q-60 0 -113 14l13 121q39 -14 100 -15q121 0 178 73t58 190v1263z" />
    <glyph glyph-name="Lacute.sc" horiz-adv-x="878" 
d="M193 1200h122v-1079h506v-121h-628v1200zM475 1589l-156 -239h-124l129 239h151z" />
    <glyph glyph-name="Lcaron.sc" horiz-adv-x="878" 
d="M539 829l-76 23q102 143 100 348h125q-22 -277 -149 -371zM193 0v1200h122v-1079h506v-121h-628z" />
    <glyph glyph-name="Ldot.sc" horiz-adv-x="878" 
d="M469 497q0 39 27 63q26 24 64 24t66 -26t28 -62t-28 -62q-28 -24 -66 -24t-64 24t-27 63zM193 0v1200h122v-1079h506v-121h-628z" />
    <glyph glyph-name="Nacute.sc" horiz-adv-x="1232" 
d="M1040 0h-125l-600 987v-987h-122v1200h129l596 -981v981h122v-1200zM825 1591l-155 -239h-125l131 239h149z" />
    <glyph glyph-name="Ncaron.sc" horiz-adv-x="1232" 
d="M1040 0h-125l-600 987v-987h-122v1200h129l596 -981v981h122v-1200zM492 1591l124 -149l123 149h123l-170 -239h-153l-170 239h123z" />
    <glyph glyph-name="Omacron.sc" horiz-adv-x="1433" 
d="M113 598q0 256 174 435t429 179t430 -179t175 -435t-175 -436t-430 -180t-429 180t-174 436zM236 597q0 -206 138 -349q138 -144 342 -144t343 144t139 349q0 206 -139 350q-139 145 -343 145t-342 -144t-138 -351zM506 1434v114h420v-114h-420z" />
    <glyph glyph-name="Obreve.sc" horiz-adv-x="1433" 
d="M113 598q0 256 174 435t429 179t430 -179t175 -435t-175 -436t-430 -180t-429 180t-174 436zM236 597q0 -206 138 -349q138 -144 342 -144t343 144t139 349q0 206 -139 350q-139 145 -343 145t-342 -144t-138 -351zM500 1583h96q6 -51 38 -84t85 -33t84 35t35 82h96
q0 -97 -60 -157t-162 -60q-104 0 -158 64t-54 153z" />
    <glyph glyph-name="Ohungarumlaut.sc" horiz-adv-x="1433" 
d="M113 598q0 256 174 435t429 179t430 -179t175 -435t-175 -436t-430 -180t-429 180t-174 436zM236 597q0 -206 138 -349q138 -144 342 -144t343 144t139 349q0 206 -139 350q-139 145 -343 145t-342 -144t-138 -351zM784 1591l-127 -239h-129l123 239h133zM1016 1591
l-152 -239h-123l129 239h146z" />
    <glyph glyph-name="Racute.sc" horiz-adv-x="1101" 
d="M317 465v-465h-124v1200h448q172 0 254 -106t82 -260t-78 -258q-78 -103 -240 -111l330 -465h-151l-328 465h-193zM639 1079h-322v-493h314q115 0 169 70t54 175q0 104 -52 176t-163 72zM692 1591l-155 -239h-125l131 239h149z" />
    <glyph glyph-name="Rcaron.sc" horiz-adv-x="1101" 
d="M317 465v-465h-124v1200h448q172 0 254 -106t82 -260t-78 -258q-78 -103 -240 -111l330 -465h-151l-328 465h-193zM639 1079h-322v-493h314q115 0 169 70t54 175q0 104 -52 176t-163 72zM428 1591l125 -149l123 149h123l-170 -239h-154l-170 239h123z" />
    <glyph glyph-name="Sacute.sc" horiz-adv-x="1032" 
d="M242 344q0 -92 76 -166t197 -74q120 0 194 58t88 135q29 188 -224 248l-159 37q-285 66 -285 303q0 143 114 235q113 92 271 92t264 -94t107 -250h-123q0 100 -72 162t-178 62t-183 -58t-77 -149q0 -145 188 -187l164 -36q162 -36 250 -132t64 -254q-23 -118 -128 -206
q-104 -88 -276 -88t-284 112t-111 250h123zM700 1591l-157 -239h-123l129 239h151z" />
    <glyph glyph-name="Scircumflex.sc" horiz-adv-x="1032" 
d="M242 344q0 -92 76 -166t197 -74q120 0 194 58t88 135q29 188 -224 248l-159 37q-285 66 -285 303q0 143 114 235q113 92 271 92t264 -94t107 -250h-123q0 100 -72 162t-178 62t-183 -58t-77 -149q0 -145 188 -187l164 -36q162 -36 250 -132t64 -254q-23 -118 -128 -206
q-104 -88 -276 -88t-284 112t-111 250h123zM764 1352h-123l-125 151l-123 -151h-123l170 239h154z" />
    <glyph glyph-name="Scedilla.sc" horiz-adv-x="1036" 
d="M121 344h123q0 -92 77 -166t197 -74t193 58q74 58 88 135q29 188 -224 248l-161 37q-283 66 -283 303q0 143 114 235q113 92 271 92t264 -94t107 -250h-123q0 100 -72 162t-178 62t-183 -58t-77 -149q0 -145 188 -187l164 -36q162 -36 250 -132t64 -254
q-18 -100 -96 -180t-206 -102l52 -111q2 -4 2 -12q23 -68 -7 -131t-106 -88q-77 -25 -147 26t-70 150l94 -8q0 -43 35 -69t72 -9q31 12 42 43t1 61l-51 136h-13q-176 0 -289 109q-112 110 -112 253z" />
    <glyph glyph-name="Utilde.sc" horiz-adv-x="1214" 
d="M524 1440q-20 0 -38 -20t-19 -58h-92q6 100 49 145t92 45t96 -36q46 -36 68 -37q22 0 40 17q17 17 19 56h92q-6 -100 -49 -143t-93 -43q-49 0 -97 37t-68 37zM608 104q127 0 215 84t88 220v792h123v-792q0 -188 -124 -308t-303 -118q-179 0 -303 118t-124 308v792h123
v-792q0 -136 89 -220t216 -84z" />
    <glyph glyph-name="Umacron.sc" horiz-adv-x="1214" 
d="M406 1434v114h419v-114h-419zM608 104q127 0 215 84t88 220v792h123v-792q0 -188 -124 -308t-303 -118q-179 0 -303 118t-124 308v792h123v-792q0 -136 89 -220t216 -84z" />
    <glyph glyph-name="Ubreve.sc" horiz-adv-x="1214" 
d="M389 1583h98q6 -51 37 -84t84 -33t84 35t35 82h98q0 -97 -59 -157t-164 -60t-159 64t-54 153zM608 104q127 0 215 84t88 220v792h123v-792q0 -188 -124 -308t-303 -118q-179 0 -303 118t-124 308v792h123v-792q0 -136 89 -220t216 -84z" />
    <glyph glyph-name="Uring.sc" horiz-adv-x="1214" 
d="M526 1520q0 -33 24 -57q24 -23 58 -23t57 24q24 24 23 56q0 32 -24 56t-57 24t-57 -24q-24 -23 -24 -56zM436 1519q0 73 49 123t121 50t122 -50t50 -124q0 -72 -50 -121t-122 -49t-121 49t-49 122zM608 104q127 0 215 84t88 220v792h123v-792q0 -188 -124 -308t-303 -118
q-179 0 -303 118t-124 308v792h123v-792q0 -136 89 -220t216 -84z" />
    <glyph glyph-name="Uhungarumlaut.sc" horiz-adv-x="1214" 
d="M659 1591l-127 -239h-129l123 239h133zM891 1591l-152 -239h-123l127 239h148zM608 104q127 0 215 84t88 220v792h123v-792q0 -188 -124 -308t-303 -118q-179 0 -303 118t-124 308v792h123v-792q0 -136 89 -220t216 -84z" />
    <glyph glyph-name="Uogonek.sc" horiz-adv-x="1214" 
d="M608 104q127 0 215 84t88 220v792h123v-792q0 -172 -102 -286t-260 -134l-56 -142q-12 -28 -1 -60t47 -46t65 10t37 70l96 8q0 -74 -45 -125t-113 -58t-123 40t-61 103t14 95l52 101q-172 8 -288 125t-116 299v792h123v-792q0 -136 89 -220t216 -84z" />
    <glyph glyph-name="Wcircumflex.sc" horiz-adv-x="1626" 
d="M1104 195l330 1005h131l-406 -1200h-115l-231 795l-231 -795h-115l-406 1200h132l329 -1005l244 845h94zM1059 1352h-123l-125 151l-123 -151h-123l170 239h154z" />
    <glyph glyph-name="Ycircumflex.sc" horiz-adv-x="1118" 
d="M807 1352h-123l-125 151l-123 -151h-123l170 239h154zM623 0h-127v557l-451 643h148l366 -512l373 512h147l-456 -643v-557z" />
    <glyph glyph-name="Tcaron.sc" horiz-adv-x="1001" 
d="M561 0h-123v1077h-381v123h887v-123h-383v-1077zM375 1591l125 -149l123 149h122l-170 -239h-153l-170 239h123z" />
    <glyph glyph-name="Tbar.sc" horiz-adv-x="999" 
d="M561 1077v-372h232v-84h-232v-621h-123v621h-227v84h227v372h-381v123h887v-123h-383z" />
    <glyph glyph-name="Zacute.sc" horiz-adv-x="1019" 
d="M686 1591l-158 -239h-122l129 239h151zM119 1077v123h796v-121l-671 -956h671v-123h-821v119l670 958h-645z" />
    <glyph glyph-name="Zdotaccent.sc" horiz-adv-x="1019" 
d="M598 1501q0 -37 -28 -61t-66 -25q-38 1 -64 25t-26 62t26 63q27 25 65 25q37 0 65 -26t28 -63zM119 1077v123h796v-121l-671 -956h671v-123h-821v119l670 958h-645z" />
    <glyph glyph-name="Wgrave.sc" horiz-adv-x="1626" 
d="M1104 195l330 1005h131l-406 -1200h-115l-231 795l-231 -795h-115l-406 1200h132l329 -1005l244 845h94zM864 1352h-125l-155 239h151z" />
    <glyph glyph-name="Wacute.sc" horiz-adv-x="1626" 
d="M1434 1200h131l-406 -1200h-115l-231 795l-231 -795h-115l-406 1200h132l329 -1005l244 845h94l244 -845zM1047 1591l-158 -239h-123l129 239h152z" />
    <glyph glyph-name="Wdieresis.sc" horiz-adv-x="1626" 
d="M1434 1200h131l-406 -1200h-115l-231 795l-231 -795h-115l-406 1200h132l329 -1005l244 845h94l244 -845zM872 1499q0 37 27 62t66 25t65 -26q26 -24 27 -61q0 -37 -27 -61q-28 -24 -66 -25q-38 1 -65 25t-27 61zM567 1499q0 37 27 62q26 25 64 25t65 -26q27 -24 27 -61
t-27 -61t-65 -25q-38 1 -64 25t-27 61z" />
    <glyph glyph-name="Aringacute.sc" horiz-adv-x="1161" 
d="M186 0h-131l461 1200h131l459 -1200h-131l-121 313h-547zM811 428l-229 602l-232 -602h461zM500 1518q0 -35 22 -58q22 -22 58 -22t58 22t21 58q1 34 -23 58t-58 24t-56 -24q-22 -23 -22 -58zM576 1348q-70 0 -119 49t-49 113t31 108q32 45 83 61l115 211h149l-141 -215
q106 -49 100 -176q-4 -67 -52 -109q-47 -42 -117 -42z" />
    <glyph glyph-name="AEacute.sc" horiz-adv-x="1685" 
d="M1550 1200v-123h-565v-428h494v-123h-494v-403h584v-123h-707v313h-477l-199 -313h-145l758 1200h751zM862 428v637l-405 -637h405zM1128 1591l-155 -239h-125l131 239h149z" />
    <glyph glyph-name="Oslashacute.sc" horiz-adv-x="1431" 
d="M111 609q0 245 174 424q173 179 415 179t410 -147l147 154l68 -68l-149 -156q143 -169 143 -411t-175 -422t-431 -180q-219 0 -387 141l-140 -143l-67 67l139 143q-147 174 -147 419zM698 1092q-188 0 -326 -144t-139 -338q0 -194 111 -331l680 698q-138 115 -326 115z
M730 104q188 0 327 144t139 334q0 192 -106 327l-678 -698q130 -107 318 -107zM909 1591l-155 -239h-125l129 239h151z" />
    <glyph glyph-name="Ibreve.sc" horiz-adv-x="507" 
d="M315 1200v-1200h-122v1200h122zM37 1583h96q8 -51 40 -84t84 -33t83 35t35 82h98q0 -97 -59 -157t-164 -60t-159 64t-54 153z" />
    <glyph glyph-name="Eng.sc" horiz-adv-x="1232" 
d="M918 -63v65l-603 983v-985h-122v1200h129l596 -989v989h122v-1198q0 -328 -177 -413q-129 -62 -294 -19l11 121q33 -12 98 -13q124 -2 182 71t58 188z" />
    <glyph glyph-name="Ygrave.sc" horiz-adv-x="1118" 
d="M532 1321l-155 240h149l131 -240h-125zM623 0h-127v557l-451 643h148l366 -512l373 512h147l-456 -643v-557z" />
    <glyph glyph-name="Gcommaaccent.sc" horiz-adv-x="1355" 
d="M643 -430l-88 24q100 135 76 297h137q2 -217 -125 -321zM788 477v113h486q0 -301 -148 -455q-148 -153 -407 -153q-258 0 -432 180t-174 436t174 435t428 179q219 0 387 -141l-88 -86q-130 107 -316 107t-324 -144t-138 -351q0 -206 138 -349q138 -144 334 -144t307 100
q112 100 122 273h-349z" />
    <glyph glyph-name="Kcommaaccent.sc" horiz-adv-x="1017" 
d="M530 -430l-88 24q100 135 76 297h137q2 -217 -125 -321zM315 0h-122v1200h122v-573l443 573h145l-465 -600l568 -600h-166l-525 555v-555z" />
    <glyph glyph-name="Lcommaaccent.sc" horiz-adv-x="878" 
d="M446 -430l-88 24q100 135 76 297h137q2 -217 -125 -321zM193 0v1200h122v-1079h506v-121h-628z" />
    <glyph glyph-name="Ncommaaccent.sc" horiz-adv-x="1232" 
d="M580 -430l-88 24q100 135 75 297h138q2 -217 -125 -321zM1040 1200v-1200h-125l-600 987v-987h-122v1200h129l596 -981v981h122z" />
    <glyph glyph-name="Rcommaaccent.sc" horiz-adv-x="1101" 
d="M512 -430l-88 24q100 135 76 297h137q2 -217 -125 -321zM317 465v-465h-124v1200h448q172 0 254 -106t82 -260t-78 -258q-78 -103 -240 -111l330 -465h-151l-328 465h-193zM639 1079h-322v-493h314q115 0 169 70t54 175q0 104 -52 176t-163 72z" />
    <glyph glyph-name="Tcommaaccent.sc" horiz-adv-x="999" 
d="M455 -430l-88 24q100 135 75 297h138q2 -217 -125 -321zM57 1077v123h885v-123h-381v-1077h-123v1077h-381z" />
    <glyph glyph-name="Scommaaccent.sc" horiz-adv-x="1032" 
d="M469 -430l-88 24q100 135 76 297h137q2 -217 -125 -321zM242 344q0 -94 76 -171t197 -77q120 0 194 60t88 141q29 188 -224 248l-159 37q-285 66 -285 303q0 143 114 235q113 92 271 92t264 -94t107 -250h-123q0 100 -72 162t-178 62t-183 -58t-77 -149q0 -145 188 -187
l164 -36q162 -36 250 -132t64 -254q-23 -118 -128 -206q-104 -88 -276 -88t-284 112t-111 250h123z" />
    <glyph glyph-name="Idotaccent.sc" horiz-adv-x="507" 
d="M315 1200v-1200h-122v1200h122zM346 1502q0 -38 -27 -62t-65 -25q-38 1 -66 25q-26 24 -26 62t26 63q27 25 66 25q40 0 66 -26q26 -24 26 -62z" />
    <glyph glyph-name="zero.numr" horiz-adv-x="747" 
d="M86 960q0 408 287 408q160 0 223 -110t63 -299t-63 -297t-223 -109q-287 -1 -287 407zM186 959q0 -308 186 -308t187 308q0 308 -186 309q-187 -1 -187 -309z" />
    <glyph glyph-name="one.numr" horiz-adv-x="411" 
d="M295 559h-109v666l-131 -47v104l240 88v-811z" />
    <glyph glyph-name="two.numr" horiz-adv-x="661" 
d="M80 559v49l326 393q59 75 59 133t-41 94t-100 36q-58 0 -102 -35t-52 -92l-100 24q14 95 85 153t172 58t174 -66t73 -171q0 -104 -89 -207q-45 -53 -73 -87t-67 -79q-38 -45 -79 -94h307v-109h-493z" />
    <glyph glyph-name="three.numr" horiz-adv-x="667" 
d="M319 936h-90v104h90q43 0 75 27t39 73t-23 82q-31 36 -86 42q-90 8 -144 -72q-21 16 -78 63q34 57 96 91t147 28t149 -71q63 -66 60 -161t-95 -151q59 -20 97 -85t32 -130q-8 -102 -95 -169t-183 -59t-160 52q-64 45 -95 115l90 51q43 -94 156 -109q68 -4 121 35
q53 40 55 98t-45 102t-113 44z" />
    <glyph glyph-name="four.numr" horiz-adv-x="741" 
d="M682 725h-117v-166h-108v166h-418l444 637h82v-535h117v-102zM457 827v338l-232 -338h232z" />
    <glyph glyph-name="five.numr" horiz-adv-x="696" 
d="M343 655q71 0 125 46t54 116t-49 108t-111 38q-62 -1 -112 -15q-49 -14 -137 -59l-23 24l80 449h408v-105h-318l-41 -219q72 33 141 33q115 -1 192 -67t77 -188t-84 -196t-217 -73q-82 0 -154 50t-113 132l89 64q23 -59 72 -99q50 -39 121 -39z" />
    <glyph glyph-name="six.numr" horiz-adv-x="692" 
d="M251 933q-48 -44 -49 -111q-1 -68 43 -112t107 -47t108 39q44 43 48 109t-38 113t-106 50t-113 -41zM377 1274q-88 0 -140 -84t-36 -211q31 102 166 102q106 0 179 -83q72 -82 68 -192t-82 -184t-185 -69q-107 4 -177 77t-80 197q-21 166 28 355q22 84 88 139
q67 55 173 55q166 -8 229 -153l-96 -41q-47 92 -135 92z" />
    <glyph glyph-name="seven.numr" horiz-adv-x="651" 
d="M80 1362h553l-440 -803h-127l383 694h-369v109z" />
    <glyph glyph-name="eight.numr" horiz-adv-x="704" 
d="M139 1166q1 86 61 146t152 60t154 -59t61 -145q0 -86 -61 -142q123 -76 123 -217q0 -109 -80 -185t-197 -75q-116 0 -196 75t-80 185q0 139 123 217q-60 53 -60 140zM184 809q0 -63 48 -109t120 -45q72 0 120 45q48 44 48 108t-48 112t-120 47q-72 1 -120 -47t-48 -111z
M352 1264q-46 0 -76 -28t-30 -70t30 -74t76 -32q45 1 76 34q31 34 31 74t-31 68t-76 28z" />
    <glyph glyph-name="nine.numr" horiz-adv-x="692" 
d="M222 999q42 -47 107 -50t113 41t49 111t-43 111t-108 48t-108 -39t-48 -109t38 -113zM315 649q88 0 141 84q52 84 36 211q-31 -102 -166 -102q-106 0 -180 83q-72 83 -68 193t82 182q78 74 185 70t177 -77t80 -197q21 -169 -28 -355q-22 -82 -88 -138t-173 -56
q-166 8 -229 153l96 41q47 -92 135 -92z" />
    <glyph glyph-name="zero.dnom" horiz-adv-x="745" 
d="M86 401q0 408 287 408q160 0 223 -110t63 -299t-63 -298t-223 -108q-287 -1 -287 407zM186 400q0 -308 186 -308t187 308q0 308 -186 309q-187 -1 -187 -309z" />
    <glyph glyph-name="one.dnom" horiz-adv-x="413" 
d="M297 0h-109v666l-131 -48v105l240 88v-811z" />
    <glyph glyph-name="two.dnom" horiz-adv-x="659" 
d="M80 0v49l326 393q59 74 59 132t-41 94t-100 37q-58 0 -102 -35t-52 -92l-100 24q14 96 85 154t172 57q101 0 174 -67t73 -171t-89 -206q-45 -53 -73 -87t-67 -79q-38 -45 -79 -94h307v-109h-493z" />
    <glyph glyph-name="three.dnom" horiz-adv-x="667" 
d="M319 377h-90v104h90q43 0 75 27q32 26 39 72t-23 83q-31 36 -86 42q-90 8 -144 -72q-21 16 -78 63q34 57 96 90t147 28t149 -71q64 -67 60 -161q-3 -94 -95 -150q59 -20 97 -85t32 -130q-8 -102 -95 -169q-87 -68 -183 -60t-160 53t-95 115q48 24 90 51q43 -94 156 -109
q68 -4 121 35t55 97t-45 102t-113 45z" />
    <glyph glyph-name="four.dnom" horiz-adv-x="731" 
d="M674 166h-117v-166h-108v166h-418l444 637h82v-535h117v-102zM449 268v338l-232 -338h232z" />
    <glyph glyph-name="five.dnom" horiz-adv-x="698" 
d="M343 96q71 0 125 46t54 116t-49 108t-111 38t-112 -15q-49 -14 -137 -59l-23 24l80 449h408v-105h-318l-41 -219q72 33 141 33q115 0 192 -67t77 -189t-84 -195q-84 -74 -217 -73q-82 0 -154 50t-113 132l89 63q22 -59 72 -98t121 -39z" />
    <glyph glyph-name="six.dnom" horiz-adv-x="692" 
d="M251 374q-48 -44 -49 -111t43 -111t107 -48t108 39q44 43 48 109t-38 113t-106 50t-113 -41zM377 715q-88 0 -140 -84t-36 -211q31 102 166 102q106 0 179 -83q72 -83 68 -193t-82 -183t-185 -69t-177 77t-80 197q-21 169 28 355q22 82 88 138q67 56 173 56
q166 -8 229 -153l-96 -41q-47 92 -135 92z" />
    <glyph glyph-name="seven.dnom" horiz-adv-x="655" 
d="M78 803h553l-441 -803h-127l383 694h-368v109z" />
    <glyph glyph-name="eight.dnom" horiz-adv-x="704" 
d="M139 607q1 87 61 147t152 59q92 0 154 -59q62 -60 61 -146q0 -86 -61 -141q123 -76 123 -217q0 -108 -80 -184t-197 -76q-116 0 -196 75t-80 185q0 139 123 217q-60 53 -60 140zM184 250q0 -62 48 -108t120 -46t120 45t48 109t-48 110q-48 48 -120 48t-120 -48t-48 -110z
M352 705q-46 0 -76 -28t-30 -70t30 -75q30 -34 76 -32q45 2 76 35t31 73t-31 69q-31 28 -76 28z" />
    <glyph glyph-name="nine.dnom" horiz-adv-x="692" 
d="M222 440q42 -47 107 -50t113 41t49 111q1 68 -43 112t-108 47q-63 3 -108 -39q-44 -43 -48 -109t38 -113zM315 90q88 0 141 84q52 84 36 211q-31 -102 -166 -102q-106 0 -180 83q-72 82 -68 192t82 184t185 69q107 -4 177 -77t80 -197q21 -168 -28 -355q-22 -84 -88 -139
t-173 -55q-166 8 -229 153l96 41q47 -92 135 -92z" />
    <glyph glyph-name="l.alt1" horiz-adv-x="550" 
d="M569 129v-129h-82q-334 0 -333 408v1067h137v-1067q0 -118 23 -174q43 -105 173 -105h82z" />
    <glyph glyph-name="a.alt1" horiz-adv-x="1105" 
d="M815 580q0 122 -79 192q-80 70 -232 70t-268 -123l-93 94q125 164 387 164q205 0 314 -101t108 -296v-580h-137v133q-61 -72 -169 -113t-204 -40q-162 0 -258 76t-96 210q0 133 98 214t308 81q123 0 321 -63v82zM440 113q100 0 210 47t163 133v82q-172 59 -319 59
q-264 0 -265 -166q-1 -68 55 -112t156 -43z" />
    <glyph glyph-name="y.alt1" horiz-adv-x="1040" 
d="M141 -475q-45 0 -92 12v121q66 -10 88 -10q100 0 154 54q53 54 108 183l45 115l-397 956h146l325 -786l328 786h145l-465 -1122q-74 -166 -158 -238t-227 -71z" />
    <glyph glyph-name="lslash.alt1" horiz-adv-x="569" 
d="M586 129v-129h-82q-334 0 -334 408v268l-141 -90v121l141 90v678h137v-590l172 110v-121l-172 -110v-356q-1 -119 23 -174q44 -105 174 -105h82z" />
    <glyph glyph-name="lacute.alt1" horiz-adv-x="550" 
d="M569 129v-129h-82q-334 0 -333 408v1067h137v-1067q0 -118 23 -174q43 -105 173 -105h82zM469 1866l-172 -275h-139l143 275h168z" />
    <glyph glyph-name="lcommaaccent.alt1" horiz-adv-x="550" 
d="M569 129v-129h-82q-334 0 -333 408v1067h137v-1067q0 -118 23 -174q43 -105 173 -105h82zM379 -506l-98 27q119 166 88 348h155q2 -254 -145 -375z" />
    <glyph glyph-name="lcaron.alt1" horiz-adv-x="550" 
d="M569 129v-129h-82q-334 0 -333 408v1067h137v-1067q0 -118 23 -174q43 -105 173 -105h82zM483 991l-98 27q121 170 119 409h155q-11 -153 -63 -269t-113 -167z" />
    <glyph glyph-name="aacute.alt1" horiz-adv-x="1105" 
d="M815 580q0 122 -79 192q-80 70 -232 70t-268 -123l-93 94q125 164 387 164q205 0 314 -101t108 -296v-580h-137v133q-61 -72 -169 -113t-204 -40q-162 0 -258 76t-96 210q0 133 98 214t308 81q123 0 321 -63v82zM440 113q100 0 210 47t163 133v82q-172 59 -319 59
q-264 0 -265 -166q-1 -68 55 -112t156 -43zM786 1411l-172 -274h-139l143 274h168z" />
    <glyph glyph-name="agrave.alt1" horiz-adv-x="1105" 
d="M815 580q0 122 -79 192q-80 70 -232 70t-268 -123l-93 94q125 164 387 164q205 0 314 -101t108 -296v-580h-137v133q-61 -72 -169 -113t-204 -40q-162 0 -258 76t-96 210q0 133 98 214t308 81q123 0 321 -63v82zM440 113q100 0 210 47t163 133v82q-172 59 -319 59
q-264 0 -265 -166q-1 -68 55 -112t156 -43zM483 1137l-172 274h168l144 -274h-140z" />
    <glyph glyph-name="acircumflex.alt1" horiz-adv-x="1105" 
d="M815 580q0 122 -79 192q-80 70 -232 70t-268 -123l-93 94q125 164 387 164q205 0 314 -101t108 -296v-580h-137v133q-61 -72 -169 -113t-204 -40q-162 0 -258 76t-96 210q0 133 98 214t308 81q123 0 321 -63v82zM440 113q100 0 210 47t163 133v82q-172 59 -319 59
q-264 0 -265 -166q-1 -68 55 -112t156 -43zM682 1137l-145 176l-144 -176h-139l195 274h178l194 -274h-139z" />
    <glyph glyph-name="adieresis.alt1" horiz-adv-x="1105" 
d="M815 580q0 122 -79 192q-80 70 -232 70t-268 -123l-93 94q125 164 387 164q205 0 314 -101t108 -296v-580h-137v133q-61 -72 -169 -113t-204 -40q-162 0 -258 76t-96 210q0 133 98 214t308 81q123 0 321 -63v82zM440 113q100 0 210 47t163 133v82q-172 59 -319 59
q-264 0 -265 -166q-1 -68 55 -112t156 -43zM610 1313q0 43 31 71t74 27q43 0 73 -28q30 -29 31 -71q0 -42 -31 -70q-32 -28 -74 -28t-73 28t-31 71zM248 1313q0 43 31 71t73 27q42 0 74 -28q31 -29 31 -71t-31 -70t-74 -28q-44 0 -74 28t-30 71z" />
    <glyph glyph-name="atilde.alt1" horiz-adv-x="1103" 
d="M813 580q0 122 -79 192q-80 70 -232 70t-269 -123l-92 94q125 164 387 164q205 0 314 -101t108 -296v-580h-137v133q-61 -72 -169 -113t-204 -40q-162 0 -258 76t-96 210q0 133 98 214t308 81q123 0 321 -63v82zM438 113q100 0 210 47t163 133v82q-172 59 -319 59
q-264 0 -265 -166q-1 -68 55 -112t156 -43zM462 1282q-26 0 -48 -24t-23 -68h-104q6 115 57 168q50 53 108 53t113 -43t81 -43q26 1 48 21t23 65h104q-6 -115 -56 -165q-51 -50 -109 -50t-113 43t-81 43z" />
    <glyph glyph-name="aring.alt1" horiz-adv-x="1105" 
d="M815 580q0 122 -79 192q-80 70 -232 70t-268 -123l-93 94q125 164 387 164q205 0 314 -101t108 -296v-580h-137v133q-61 -72 -169 -113t-204 -40q-162 0 -258 76t-96 210q0 133 98 214t308 81q123 0 321 -63v82zM440 113q100 0 210 47t163 133v82q-172 59 -319 59
q-264 0 -265 -166q-1 -68 55 -112t156 -43zM446 1334q0 -40 27 -66t66 -25q39 0 65 27q26 28 27 66q0 38 -27 65q-28 27 -66 27t-65 -28q-27 -26 -27 -66zM340 1333q0 85 57 143t141 58t141 -58q58 -58 58 -142t-58 -140q-58 -57 -141 -57t-141 56q-57 56 -57 140z" />
    <glyph glyph-name="amacron.alt1" horiz-adv-x="1103" 
d="M813 580q0 122 -79 192q-80 70 -232 70t-269 -123l-92 94q125 164 387 164q205 0 314 -101t108 -296v-580h-137v133q-61 -72 -169 -113t-204 -40q-162 0 -258 76t-96 210q0 133 98 214t308 81q123 0 321 -63v82zM438 113q100 0 210 47t163 133v82q-172 59 -319 59
q-264 0 -265 -166q-1 -68 55 -112t156 -43zM291 1370h487v-129h-487v129z" />
    <glyph glyph-name="abreve.alt1" horiz-adv-x="1105" 
d="M815 580q0 122 -79 192q-80 70 -232 70t-268 -123l-93 94q125 164 387 164q205 0 314 -101t108 -296v-580h-137v133q-61 -72 -169 -113t-204 -40q-162 0 -258 76t-96 210q0 133 98 214t308 81q123 0 321 -63v82zM440 113q100 0 210 47t163 133v82q-172 59 -319 59
q-264 0 -265 -166q-1 -68 55 -112t156 -43zM289 1411h106q10 -63 48 -102t103 -39q66 0 102 41t42 100h107q0 -115 -70 -185q-71 -70 -191 -71q-120 0 -184 75q-63 75 -63 181z" />
    <glyph glyph-name="aogonek.alt1" horiz-adv-x="1103" 
d="M438 113q100 0 210 47t163 133v82q-172 59 -319 59q-264 0 -265 -166q-1 -68 55 -112t156 -43zM813 580q0 122 -79 192q-80 70 -232 70t-269 -123l-92 94q125 164 387 164q205 0 314 -101t108 -296v-580h-47l-37 -182q-18 -92 52 -125q36 -14 70 2q57 26 59 90l108 8
q0 -43 -18 -88q-35 -77 -108 -109t-150 1q-78 31 -105 105t-2 159l41 139v133q-61 -72 -169 -113t-204 -40q-162 0 -258 76t-96 210q0 133 98 214t308 81q123 0 321 -63v82z" />
    <glyph glyph-name="yacute.alt1" horiz-adv-x="1040" 
d="M141 -475q-45 0 -92 12v121q66 -10 88 -10q100 0 154 54q53 54 108 183l45 115l-397 956h146l325 -786l328 786h145l-465 -1122q-74 -166 -158 -238t-227 -71zM776 1411l-172 -274h-139l143 274h168z" />
    <glyph glyph-name="ydieresis.alt1" horiz-adv-x="1040" 
d="M141 -475q-45 0 -92 12v121q66 -10 88 -10q100 0 154 54q53 54 108 183l45 115l-397 956h146l325 -786l328 786h145l-465 -1122q-74 -166 -158 -238t-227 -71zM610 1313q0 43 31 71t74 27q43 0 73 -28q30 -29 31 -71q0 -42 -31 -70q-32 -28 -74 -28t-73 28t-31 71z
M248 1313q0 43 31 71t73 27q42 0 74 -28q31 -29 31 -71t-31 -70t-74 -28q-44 0 -74 28t-30 71z" />
    <glyph glyph-name="ae.alt1" horiz-adv-x="1855" 
d="M1767 481q0 -45 -2 -63h-811q18 -137 114 -220t230 -83q96 0 176 44t123 122q39 -10 138 -31q-57 -127 -174 -199t-263 -71q-213 0 -346 139v-119h-137v133q-61 -72 -169 -113t-204 -40q-162 0 -258 76t-96 210q0 133 98 214t308 81q123 0 321 -63v82q0 122 -79 192
q-80 70 -232 70t-268 -123l-93 94q125 163 399 163t365 -188q139 188 391 189q207 0 338 -135t131 -361zM440 113q100 0 210 47t163 133v82q-172 59 -319 59q-264 0 -265 -166q-1 -68 55 -112t156 -43zM1296 842q-134 0 -228 -81t-114 -216h674q-20 137 -109 217t-223 80z
" />
    <glyph glyph-name="aeacute.alt1" horiz-adv-x="1853" 
d="M1765 481q0 -45 -2 -63h-811q18 -137 114 -220t230 -83q96 0 175 44t124 122q39 -10 138 -31q-57 -127 -174 -199t-263 -71q-213 0 -346 139v-119h-137v133q-61 -72 -169 -113t-204 -40q-162 0 -258 76t-96 210q0 133 98 214t308 81q123 0 321 -63v82q0 122 -79 192
q-80 70 -232 70t-269 -123l-92 94q125 163 399 163t365 -188q139 188 391 189q207 0 338 -135t131 -361zM438 113q100 0 210 47t163 133v82q-172 59 -319 59q-264 0 -265 -166q-1 -68 55 -112t156 -43zM1294 842q-134 0 -228 -81t-114 -216h674q-20 137 -109 217t-223 80z
M1161 1411l-172 -274h-139l143 274h168z" />
    <glyph glyph-name="ycircumflex.alt1" horiz-adv-x="1040" 
d="M141 -475q-45 0 -92 12v121q66 -10 88 -10q100 0 154 54q53 54 108 183l45 115l-397 956h146l325 -786l328 786h145l-465 -1122q-74 -166 -158 -238t-227 -71zM668 1137l-146 176l-143 -176h-139l194 274h178l195 -274h-139z" />
    <glyph glyph-name="ldot.alt1" horiz-adv-x="608" 
d="M569 129v-129h-82q-334 0 -333 408v1067h137v-1067q0 -118 23 -174q43 -105 173 -105h82zM403 539q0 45 33 75t80 31q47 0 80 -31q33 -32 33 -76t-33 -75t-80 -31t-80 31t-33 76z" />
    <glyph glyph-name="t.alt1" horiz-adv-x="673" 
d="M612 129v-129h-41q-182 0 -258 86t-75 264v484h-172v122h172v256l137 39v-295h203v-122h-203v-484q-2 -113 35 -167t161 -54h41z" />
    <glyph glyph-name="tcaron.alt1" horiz-adv-x="673" 
d="M612 0h-41q-182 0 -258 86t-75 264v484h-172v122h172v256l137 39v-295h203v-122h-203v-484q-2 -113 35 -167t161 -54h41v-129zM543 1073l-99 27q117 162 88 327h156q2 -233 -145 -354z" />
    <glyph glyph-name="tbar.alt1" horiz-adv-x="677" 
d="M616 129v-129h-41q-182 0 -258 86t-75 264v133h-150v95h150v256h-172v122h172v256l137 39v-295h203v-122h-203v-256h166v-95h-166v-133q-2 -113 35 -167t161 -54h41z" />
    <glyph glyph-name="tcommaaccent.alt1" horiz-adv-x="673" 
d="M612 129v-129h-41q-182 0 -258 86t-75 264v484h-172v122h172v256l137 39v-295h203v-122h-203v-484q-2 -113 35 -167t161 -54h41zM444 -506l-98 27q119 166 88 348h156q1 -254 -146 -375z" />
    <glyph glyph-name="T.sc.alt1" horiz-adv-x="999" 
d="M57 1077v123h885v-123h-381v-1077h-123v1077h-381z" />
    <glyph glyph-name="Tcaron.sc.alt1" horiz-adv-x="1001" 
d="M561 0h-123v1077h-381v123h887v-123h-383v-1077zM375 1591l125 -149l123 149h122l-170 -239h-153l-170 239h123z" />
    <glyph glyph-name="Tbar.sc.alt1" horiz-adv-x="999" 
d="M561 1077v-372h232v-84h-232v-621h-123v621h-227v84h227v372h-381v123h887v-123h-383z" />
    <glyph glyph-name="Tcommaaccent.sc.alt1" horiz-adv-x="999" 
d="M455 -430l-88 24q100 135 75 297h138q2 -217 -125 -321zM57 1077v123h885v-123h-381v-1077h-123v1077h-381z" />
    <glyph glyph-name="aringacute.alt1" horiz-adv-x="1105" 
d="M815 580q0 122 -79 192q-80 70 -232 70t-268 -123l-93 94q125 164 387 164q205 0 314 -101t108 -296v-580h-137v133q-61 -72 -169 -113t-204 -40q-162 0 -258 76t-96 210q0 133 98 214t308 81q123 0 321 -63v82zM440 113q100 0 210 47t163 133v82q-172 59 -319 59
q-264 0 -265 -166q-1 -68 55 -112t156 -43zM459 1334q1 -40 27 -66t65 -25q39 0 65 27q26 28 27 66q0 38 -27 65q-28 27 -66 27t-65 -27q-26 -27 -26 -67zM750 1324q0 -73 -58 -130t-142 -57q-83 0 -140 56q-58 56 -58 131t36 126t95 72l129 247h168l-157 -249
q57 -23 92 -73t35 -123z" />
    </font>
</defs>
</svg>
