<?xml version="1.0" encoding="UTF-8" standalone="no"?>
<!DOCTYPE svg PUBLIC "-//W3C//DTD SVG 1.1//EN" "http://www.w3.org/Graphics/SVG/1.1/DTD/svg11.dtd">
<svg version="1.1" xmlns="http://www.w3.org/2000/svg" xmlns:xlink="http://www.w3.org/1999/xlink" preserveAspectRatio="xMidYMid meet" viewBox="0 0 262 406" width="262" height="406"><defs><path d="M133.73 0.03L135.08 0.06L136.44 0.11L137.79 0.17L139.15 0.25L140.5 0.34L141.85 0.44L143.2 0.56L144.54 0.69L145.89 0.84L147.23 1L148.57 1.17L149.91 1.36L151.25 1.56L152.58 1.77L153.92 2L155.25 2.24L156.57 2.5L157.9 2.77L159.22 3.05L160.54 3.35L161.85 3.66L163.16 3.99L164.47 4.32L165.78 4.68L167.08 5.04L168.38 5.42L169.67 5.81L170.97 6.22L172.25 6.64L173.54 7.07L174.81 7.51L176.09 7.97L177.36 8.44L178.63 8.93L179.89 9.43L181.14 9.94L182.39 10.47L183.64 11.01L188.54 13.27L193.3 15.71L197.92 18.32L202.4 21.1L206.73 24.03L210.92 27.11L214.96 30.35L218.85 33.72L222.59 37.23L226.17 40.87L229.59 44.64L232.86 48.53L235.97 52.53L238.91 56.64L241.69 60.85L244.29 65.16L246.73 69.56L249 74.05L251.09 78.61L253.01 83.26L254.75 87.97L256.31 92.75L257.68 97.59L258.87 102.47L259.87 107.41L260.69 112.39L261.31 117.41L261.73 122.45L261.97 127.52L262 132.61L261.83 137.72L261.47 142.83L260.89 147.95L260.11 153.07L259.12 158.17L257.92 163.27L256.51 168.34L254.88 173.39L253.04 178.41L250.97 183.4L138.33 402.23L138.27 402.35L138.21 402.48L138.14 402.6L138.08 402.72L138.01 402.84L137.94 402.96L137.87 403.07L137.79 403.19L137.72 403.3L137.64 403.41L137.56 403.53L137.48 403.63L137.39 403.74L137.31 403.85L137.22 403.96L137.13 404.06L137.04 404.16L136.95 404.26L136.86 404.36L136.76 404.46L136.66 404.55L136.56 404.65L136.46 404.74L136.36 404.83L136.26 404.92L136.15 405.01L136.05 405.09L135.94 405.17L135.83 405.26L135.72 405.34L135.6 405.41L135.49 405.49L135.37 405.56L135.26 405.64L135.14 405.71L135.02 405.78L134.9 405.84L134.78 405.91L134.65 405.97L134.53 406.03L134.23 406.16L133.93 406.29L133.62 406.39L133.31 406.49L133.01 406.57L132.7 406.64L132.39 406.7L132.07 406.74L131.76 406.77L131.45 406.79L131.14 406.8L130.83 406.79L130.52 406.78L130.22 406.75L129.91 406.71L129.61 406.65L129.31 406.59L129.01 406.52L128.71 406.43L128.42 406.33L128.14 406.22L127.86 406.1L127.58 405.97L127.3 405.83L127.04 405.68L126.78 405.52L126.52 405.35L126.27 405.16L126.03 404.97L125.79 404.77L125.56 404.56L125.34 404.33L125.13 404.1L124.92 403.86L124.73 403.61L124.54 403.35L124.36 403.09L124.2 402.81L124.04 402.52L123.89 402.23L11.25 183.4L10.72 182.16L10.19 180.91L9.68 179.66L9.19 178.4L8.7 177.14L8.23 175.87L7.77 174.61L7.33 173.33L6.9 172.05L6.48 170.77L6.08 169.49L5.68 168.2L5.31 166.9L4.94 165.61L4.59 164.3L4.25 163L3.93 161.69L3.62 160.38L3.32 159.07L3.04 157.75L2.77 156.44L2.51 155.11L2.27 153.79L2.04 152.46L1.83 151.13L1.62 149.8L1.44 148.47L1.26 147.13L1.1 145.79L0.95 144.45L0.82 143.11L0.7 141.77L0.6 140.42L0.5 139.08L0.43 137.73L0.36 136.38L0.31 135.03L0.28 133.68L0.26 132.32L0.25 130.97L0.35 125.58L0.67 120.24L1.2 114.96L1.94 109.74L2.89 104.6L4.03 99.52L5.36 94.52L6.89 89.6L8.6 84.77L10.49 80.02L12.56 75.37L14.81 70.82L17.22 66.37L19.8 62.02L22.54 57.78L25.44 53.66L28.48 49.66L31.68 45.78L35.02 42.03L38.5 38.4L42.12 34.92L45.87 31.57L49.74 28.37L53.74 25.31L57.86 22.41L62.09 19.66L66.43 17.08L70.88 14.66L75.43 12.4L80.08 10.32L84.82 8.42L89.65 6.7L94.57 5.17L99.56 3.83L104.64 2.68L109.78 1.73L115 0.98L120.28 0.44L125.62 0.11L131.01 0L132.37 0.01L133.73 0.03ZM122.31 24.52L118.04 24.95L113.81 25.55L109.64 26.32L105.53 27.25L101.48 28.33L97.49 29.57L93.58 30.96L89.74 32.5L85.97 34.18L82.28 36L78.68 37.96L75.16 40.05L71.72 42.28L68.39 44.63L65.15 47.1L62 49.69L58.96 52.4L56.03 55.22L53.21 58.16L50.5 61.2L47.91 64.34L45.43 67.58L43.08 70.92L40.86 74.35L38.77 77.87L36.81 81.47L34.99 85.16L33.31 88.93L31.77 92.77L30.38 96.69L29.14 100.67L28.06 104.72L27.13 108.83L26.36 113L25.76 117.23L25.33 121.51L25.06 125.83L24.97 130.2L25.06 134.57L25.33 138.9L25.76 143.18L26.36 147.4L27.13 151.57L28.06 155.68L29.14 159.73L30.38 163.72L31.77 167.63L33.31 171.48L34.99 175.24L36.81 178.93L38.77 182.54L40.86 186.06L43.08 189.49L45.43 192.82L47.91 196.07L50.5 199.21L53.21 202.25L56.03 205.18L58.96 208L62 210.71L65.15 213.31L68.39 215.78L71.72 218.13L75.16 220.35L78.68 222.44L82.28 224.4L85.97 226.22L89.74 227.9L93.58 229.44L97.49 230.83L101.48 232.07L105.53 233.16L109.64 234.08L113.81 234.85L118.04 235.45L122.31 235.89L126.64 236.15L131.01 236.24L135.38 236.15L139.7 235.89L143.98 235.45L148.2 234.85L152.37 234.08L156.48 233.16L160.53 232.07L164.52 230.83L168.43 229.45L172.27 227.91L176.04 226.23L179.73 224.41L183.33 222.45L186.85 220.36L190.28 218.14L193.62 215.79L196.86 213.32L200 210.73L203.04 208.02L205.97 205.2L208.79 202.27L211.5 199.23L214.1 196.09L216.57 192.85L218.92 189.51L221.14 186.08L223.23 182.57L225.19 178.96L227.02 175.28L228.7 171.51L230.24 167.67L231.63 163.76L232.87 159.77L233.95 155.72L234.88 151.61L235.65 147.45L236.25 143.22L236.69 138.95L236.95 134.62L237.05 130.25L237.05 130.2L236.96 125.83L236.69 121.51L236.26 117.23L235.66 113L234.89 108.83L233.96 104.72L232.88 100.67L231.64 96.69L230.25 92.77L228.71 88.93L227.03 85.16L225.21 81.47L223.25 77.87L221.16 74.35L218.94 70.92L216.59 67.58L214.11 64.34L211.52 61.2L208.81 58.16L205.99 55.22L203.06 52.4L200.02 49.69L196.87 47.1L193.63 44.63L190.3 42.28L186.86 40.05L183.35 37.96L179.74 36L176.05 34.18L172.28 32.5L168.44 30.96L164.53 29.57L160.54 28.33L156.49 27.25L152.38 26.32L148.21 25.55L143.98 24.95L139.71 24.52L135.38 24.25L131.01 24.17L126.64 24.25L122.31 24.52Z" id="g7vdOKCvM"></path><path d="M238.55 130.64C238.55 190.11 190.36 238.38 131.01 238.38C71.66 238.38 23.47 190.11 23.47 130.64C23.47 71.18 71.66 22.91 131.01 22.91C190.36 22.91 238.55 71.18 238.55 130.64Z" id="b1gRQbmKg5"></path><path d="M125.43 49.41L125.43 62.72L136.59 62.72L136.59 49.41C144.12 49.41 148.3 49.41 149.13 49.41C151.03 49.41 152.57 47.87 152.57 45.98C152.57 45.98 152.57 45.98 152.57 45.98C152.57 45.55 152.57 42.11 152.57 41.68C152.57 39.78 151.03 38.25 149.13 38.25C149.13 38.25 149.13 38.25 149.13 38.25C145.51 38.25 116.51 38.25 112.89 38.25C110.99 38.25 109.45 39.78 109.45 41.68C109.45 41.68 109.45 41.68 109.45 41.68C109.45 42.11 109.45 45.55 109.45 45.98C109.45 47.87 110.99 49.41 112.89 49.41C112.89 49.41 112.89 49.41 112.89 49.41C114.56 49.41 118.74 49.41 125.43 49.41Z" id="b4uHUv3xvf"></path><path d="M69.21 201.83C67.2 203.82 67.19 207.07 69.19 209.08C71.18 211.08 74.42 211.09 76.43 209.1C76.43 209.1 76.43 209.1 76.43 209.1C78.5 207.05 88.82 196.81 107.41 178.38L94.91 176.33C81.21 189.93 72.64 198.43 69.21 201.83Z" id="a1BYSvutFn"></path><path d="M167.21 176.23L154.66 178.23C173.28 196.66 183.62 206.9 185.69 208.95C188.03 210.54 191.21 209.95 192.81 207.61C194 205.87 194 203.57 192.81 201.83C189.4 198.42 180.86 189.88 167.21 176.23Z" id="beamIYSrk"></path><path d="M173.62 68.28L173.93 68.31L174.23 68.36L174.53 68.42L174.83 68.48L175.12 68.56L175.41 68.65L175.7 68.75L175.97 68.86L176.25 68.98L176.52 69.11L176.78 69.25L177.03 69.4L177.28 69.56L177.53 69.73L177.77 69.9L178 70.08L178.22 70.28L178.44 70.48L178.65 70.69L178.85 70.9L179.04 71.12L179.22 71.35L179.4 71.59L179.57 71.84L179.73 72.09L179.88 72.34L180.02 72.61L180.15 72.87L180.27 73.15L180.38 73.43L180.48 73.71L180.57 74L180.65 74.29L180.72 74.59L180.78 74.9L180.82 75.2L180.86 75.51L180.88 75.83L183.34 133.48L183.34 133.7L183.35 133.93L183.36 134.16L183.36 134.4L183.37 134.65L183.37 134.9L183.38 135.16L183.38 135.42L183.38 135.68L183.38 135.95L183.38 136.22L183.38 136.49L183.38 136.77L183.38 137.05L183.38 137.33L183.38 137.61L183.37 137.89L183.37 138.18L183.36 138.46L183.36 138.75L183.35 139.03L183.34 139.32L183.33 139.6L183.32 139.88L183.31 140.16L183.3 140.44L183.29 140.72L183.27 140.99L183.26 141.27L183.24 141.54L183.23 141.8L183.21 142.06L183.19 142.32L183.17 142.57L183.15 142.82L183.13 143.06L183.1 143.3L183.08 143.53L183.06 143.76L183.03 143.97L181.6 163.33L181.56 163.64L181.51 163.94L181.46 164.25L181.39 164.55L181.32 164.84L181.23 165.14L181.14 165.42L181.03 165.71L180.92 165.99L180.8 166.26L180.67 166.53L180.53 166.8L180.38 167.06L180.22 167.31L180.06 167.56L179.89 167.8L179.71 168.04L179.52 168.27L179.33 168.49L179.13 168.71L178.92 168.92L178.7 169.12L178.48 169.32L178.25 169.51L178.02 169.69L177.78 169.87L177.53 170.03L177.28 170.19L177.02 170.34L176.76 170.49L176.49 170.62L176.22 170.75L175.94 170.86L175.65 170.97L175.37 171.07L175.07 171.16L174.78 171.24L174.48 171.31L174.17 171.37L173.86 171.42L136.28 175.97L136.01 176L135.74 176.03L135.48 176.05L135.21 176.07L134.94 176.1L134.67 176.12L134.4 176.13L134.13 176.15L133.86 176.17L133.59 176.18L133.32 176.19L133.05 176.21L132.77 176.22L132.5 176.23L132.23 176.23L131.96 176.24L131.69 176.24L131.42 176.25L131.15 176.25L130.88 176.25L130.61 176.25L130.34 176.25L130.07 176.24L129.8 176.24L129.53 176.23L129.26 176.23L128.99 176.22L128.72 176.21L128.45 176.19L128.18 176.18L127.91 176.17L127.64 176.15L127.37 176.13L127.1 176.12L126.83 176.1L126.56 176.07L126.29 176.05L126.02 176.03L125.75 176L125.48 175.97L87.9 171.42L87.59 171.37L87.29 171.31L86.99 171.24L86.69 171.16L86.4 171.07L86.11 170.97L85.83 170.86L85.55 170.75L85.27 170.62L85.01 170.49L84.74 170.34L84.48 170.19L84.23 170.03L83.98 169.87L83.74 169.69L83.51 169.51L83.28 169.32L83.06 169.12L82.84 168.92L82.64 168.71L82.44 168.49L82.24 168.27L82.05 168.04L81.87 167.8L81.7 167.56L81.54 167.31L81.38 167.06L81.24 166.8L81.1 166.53L80.97 166.26L80.84 165.99L80.73 165.71L80.63 165.42L80.53 165.14L80.45 164.84L80.37 164.55L80.31 164.25L80.25 163.94L80.2 163.64L80.17 163.33L78.68 143.97L78.68 133.48L81.14 75.83L81.16 75.51L81.2 75.2L81.24 74.9L81.3 74.59L81.37 74.29L81.45 74L81.54 73.71L81.64 73.43L81.75 73.15L81.87 72.87L82 72.61L82.14 72.34L82.29 72.09L82.45 71.84L82.62 71.59L82.8 71.35L82.98 71.12L83.17 70.9L83.37 70.69L83.58 70.48L83.8 70.28L84.02 70.08L84.25 69.9L84.49 69.73L84.74 69.56L84.99 69.4L85.24 69.25L85.5 69.11L85.77 68.98L86.05 68.86L86.32 68.75L86.61 68.65L86.9 68.56L87.19 68.48L87.49 68.42L87.79 68.36L88.09 68.31L88.4 68.28L88.71 68.26L89.03 68.25L172.99 68.25L173.31 68.26L173.62 68.28ZM102.47 134.41L101.24 135.06L100.14 135.97L99.24 137.08L98.6 138.31L98.21 139.62L98.09 140.97L98.22 142.32L98.62 143.63L99.27 144.86L100.18 145.96L101.29 146.86L102.52 147.5L103.83 147.89L105.18 148.01L106.53 147.87L107.84 147.48L109.07 146.83L110.17 145.92L110.65 145.39L111.07 144.82L111.42 144.21L111.72 143.57L111.94 142.9L112.11 142.22L112.2 141.51L112.22 140.8L112.17 140.12L112.06 139.45L111.89 138.79L111.65 138.16L111.35 137.55L111 136.98L110.59 136.43L110.13 135.93L109.02 135.03L107.79 134.39L106.48 134L105.13 133.88L103.78 134.01L102.47 134.41ZM154.18 134.41L152.96 135.06L151.85 135.97L150.95 137.08L150.31 138.31L149.93 139.62L149.8 140.97L149.94 142.32L150.33 143.63L150.98 144.86L151.89 145.96L153 146.86L154.24 147.5L155.55 147.89L156.9 148.01L158.24 147.87L159.55 147.48L160.78 146.83L161.88 145.92L161.73 145.92L162.23 145.4L162.67 144.83L163.04 144.22L163.36 143.59L163.6 142.92L163.78 142.23L163.89 141.52L163.93 140.8L163.88 140.12L163.77 139.45L163.6 138.79L163.36 138.16L163.07 137.55L162.71 136.98L162.31 136.43L161.84 135.93L160.73 135.03L159.5 134.39L158.19 134L156.84 133.88L155.49 134.01L154.18 134.41ZM92.18 75.78L92.11 75.78L92.04 75.78L91.97 75.79L91.9 75.79L91.83 75.8L91.76 75.81L91.69 75.82L91.63 75.83L91.56 75.84L91.49 75.86L91.42 75.87L91.36 75.89L91.29 75.91L91.22 75.93L91.16 75.95L91.09 75.97L91.03 75.99L90.96 76.02L90.9 76.04L90.83 76.07L90.77 76.1L90.71 76.13L90.65 76.16L90.58 76.19L90.52 76.22L90.46 76.25L90.4 76.29L90.34 76.33L90.29 76.36L90.23 76.4L90.17 76.44L90.11 76.48L90.06 76.52L90 76.57L89.95 76.61L89.9 76.66L89.85 76.7L89.79 76.75L89.74 76.8L89.69 76.85L89.65 76.9L89.6 76.95L89.55 77L89.51 77.05L89.46 77.1L89.42 77.15L89.38 77.2L89.34 77.26L89.3 77.31L89.26 77.37L89.22 77.42L89.19 77.48L89.15 77.54L89.12 77.6L89.08 77.65L89.05 77.71L89.02 77.77L88.99 77.83L88.97 77.9L88.94 77.96L88.91 78.02L88.89 78.08L88.87 78.15L88.84 78.21L88.82 78.27L88.8 78.34L88.78 78.4L88.77 78.47L88.75 78.53L88.74 78.6L88.72 78.67L88.71 78.73L88.7 78.8L88.69 78.87L88.69 78.93L88.68 79L88.67 79.07L88.67 79.14L88.67 79.21L88.05 121.7L88.05 121.77L88.05 121.84L88.06 121.91L88.06 121.98L88.06 122.05L88.07 122.12L88.08 122.19L88.09 122.26L88.1 122.33L88.11 122.4L88.13 122.47L88.14 122.53L88.16 122.6L88.17 122.67L88.19 122.74L88.21 122.8L88.23 122.87L88.26 122.93L88.28 123L88.31 123.06L88.33 123.13L88.36 123.19L88.39 123.25L88.42 123.31L88.45 123.38L88.49 123.44L88.52 123.5L88.56 123.56L88.59 123.61L88.63 123.67L88.67 123.73L88.71 123.79L88.75 123.84L88.8 123.9L88.84 123.95L88.89 124.01L88.93 124.06L88.98 124.11L89.03 124.16L89.08 124.21L89.13 124.26L89.18 124.31L89.23 124.35L89.29 124.4L89.34 124.44L89.39 124.49L89.45 124.53L89.51 124.57L89.56 124.61L89.62 124.65L89.68 124.69L89.74 124.72L89.8 124.76L89.86 124.79L89.92 124.82L89.98 124.86L90.04 124.89L90.1 124.91L90.17 124.94L90.23 124.97L90.3 124.99L90.36 125.02L90.43 125.04L90.49 125.06L90.56 125.08L90.62 125.1L90.69 125.12L90.76 125.14L90.82 125.15L90.89 125.17L90.96 125.18L91.03 125.19L91.1 125.2L91.17 125.21L91.24 125.22L91.31 125.22L91.38 125.23L91.45 125.23L91.52 125.23L91.59 125.24L170.43 125.24L170.51 125.24L170.58 125.23L170.65 125.23L170.72 125.23L170.79 125.22L170.86 125.22L170.93 125.21L171 125.2L171.07 125.19L171.14 125.18L171.21 125.16L171.28 125.15L171.35 125.13L171.41 125.11L171.48 125.09L171.55 125.07L171.61 125.05L171.68 125.03L171.75 125L171.81 124.98L171.87 124.95L171.94 124.92L172 124.9L172.06 124.86L172.12 124.83L172.18 124.8L172.24 124.77L172.3 124.73L172.36 124.69L172.42 124.66L172.48 124.62L172.53 124.58L172.59 124.53L172.64 124.49L172.69 124.45L172.75 124.4L172.8 124.36L172.85 124.31L172.9 124.26L172.94 124.21L173 124.16L173.05 124.1L173.1 124.05L173.15 123.99L173.19 123.94L173.24 123.88L173.28 123.82L173.33 123.76L173.37 123.7L173.41 123.64L173.45 123.58L173.49 123.52L173.53 123.45L173.56 123.39L173.6 123.32L173.63 123.26L173.66 123.19L173.69 123.13L173.72 123.06L173.74 122.99L173.77 122.92L173.79 122.85L173.82 122.78L173.84 122.71L173.86 122.64L173.88 122.57L173.89 122.5L173.91 122.43L173.92 122.36L173.93 122.29L173.94 122.21L173.95 122.14L173.96 122.07L173.97 121.99L173.97 121.92L173.97 121.85L173.97 121.77L173.97 121.7L173.97 121.62L173.97 121.55L173.66 100.45L173.35 79.21L173.35 79.14L173.35 79.07L173.34 79L173.33 78.93L173.33 78.87L173.32 78.8L173.31 78.73L173.3 78.67L173.28 78.6L173.27 78.53L173.25 78.47L173.24 78.4L173.22 78.34L173.2 78.27L173.18 78.21L173.16 78.15L173.13 78.08L173.11 78.02L173.08 77.96L173.06 77.9L173.03 77.83L173 77.77L172.97 77.71L172.94 77.65L172.9 77.6L172.87 77.54L172.83 77.48L172.8 77.42L172.76 77.37L172.72 77.31L172.68 77.26L172.64 77.2L172.6 77.15L172.56 77.1L172.51 77.05L172.47 77L172.42 76.95L172.37 76.9L172.33 76.85L172.28 76.8L172.23 76.75L172.18 76.7L172.12 76.66L172.07 76.61L172.02 76.57L171.96 76.52L171.91 76.48L171.85 76.44L171.79 76.4L171.73 76.36L171.68 76.33L171.62 76.29L171.56 76.25L171.5 76.22L171.44 76.19L171.37 76.16L171.31 76.13L171.25 76.1L171.19 76.07L171.12 76.04L171.06 76.02L170.99 75.99L170.93 75.97L170.86 75.95L170.8 75.93L170.73 75.91L170.66 75.89L170.6 75.87L170.53 75.86L170.46 75.84L170.39 75.83L170.33 75.82L170.26 75.81L170.19 75.8L170.12 75.79L170.05 75.79L169.98 75.78L169.91 75.78L169.84 75.78L169.77 75.78L92.25 75.78L92.18 75.78Z" id="b1BLl5Nwl3"></path></defs><g><g><g><use xlink:href="#g7vdOKCvM" opacity="1" fill="#0080ff" fill-opacity="1"></use><g><use xlink:href="#g7vdOKCvM" opacity="1" fill-opacity="0" stroke="#000000" stroke-width="1" stroke-opacity="0"></use></g></g><g><use xlink:href="#b1gRQbmKg5" opacity="1" fill="#0080ff" fill-opacity="1"></use></g><g><use xlink:href="#b4uHUv3xvf" opacity="1" fill="#ffffff" fill-opacity="1"></use><g><use xlink:href="#b4uHUv3xvf" opacity="1" fill-opacity="0" stroke="#000000" stroke-width="1" stroke-opacity="0"></use></g></g><g><use xlink:href="#a1BYSvutFn" opacity="1" fill="#ffffff" fill-opacity="1"></use><g><use xlink:href="#a1BYSvutFn" opacity="1" fill-opacity="0" stroke="#000000" stroke-width="1" stroke-opacity="0"></use></g></g><g><use xlink:href="#beamIYSrk" opacity="1" fill="#ffffff" fill-opacity="1"></use><g><use xlink:href="#beamIYSrk" opacity="1" fill-opacity="0" stroke="#000000" stroke-width="1" stroke-opacity="0"></use></g></g><g><use xlink:href="#b1BLl5Nwl3" opacity="1" fill="#ffffff" fill-opacity="1"></use><g><use xlink:href="#b1BLl5Nwl3" opacity="1" fill-opacity="0" stroke="#000000" stroke-width="1" stroke-opacity="0"></use></g></g></g></g></svg>